<?xml version="1.0" encoding="utf-8"?>
<!-- Generator: Adobe Illustrator 25.0.0, SVG Export Plug-In . SVG Version: 6.00 Build 0)  -->
<svg version="1.1" xmlns="http://www.w3.org/2000/svg" xmlns:xlink="http://www.w3.org/1999/xlink" x="0px" y="0px"
	 viewBox="0 0 520 187" style="enable-background:new 0 0 520 187;" xml:space="preserve">
<style type="text/css">
	.st0{fill:#FFFFFF;}
	.st1{fill:#6097D0;}
	.st2{fill:#676463;}
	.st3{fill:#6599D2;}
	.st4{fill:#649CD4;}
	.st5{display:none;}
	.st6{display:inline;}
	.st7{clip-path:url(#SVGID_2_);}
	.st8{clip-path:url(#SVGID_4_);fill:#5C5857;}
	.st9{display:inline;opacity:0.5;fill:#D6D4D4;}
	.st10{clip-path:url(#SVGID_6_);}
	.st11{clip-path:url(#SVGID_8_);fill:#5C5857;}
	.st12{fill:#5C5856;}
	.st13{fill:#A29F9D;}
</style>
<g id="Your_design">
	<circle class="st0" cx="127" cy="73" r="101"/>
	<g>
		<polygon class="st1" points="263.48,191.91 263.01,192.86 263.46,191.91 		"/>
		<g>
			<g>
				<path class="st2" d="M208.99,56.91V78c0,0.47,0.18,0.83,0.53,1.06c0.35,0.24,1.06,0.35,2.1,0.35l0.51,2.12
					c-3.15-0.08-5.3-0.12-6.45-0.12c-1.15,0-2.74,0.04-4.76,0.12l-0.47-2.12c1.26-0.03,2.09-0.16,2.5-0.39
					c0.41-0.24,0.61-0.58,0.61-1.02V56.91c0-0.47-0.18-0.83-0.53-1.06c-0.35-0.24-1.06-0.35-2.1-0.35l-0.51-2.12
					c3.15,0.08,5.3,0.12,6.47,0.12c1.17,0,2.75-0.04,4.74-0.12l0.47,2.12c-1.26,0.03-2.09,0.16-2.5,0.39
					C209.2,56.13,208.99,56.47,208.99,56.91z"/>
				<path class="st2" d="M243.69,53.33l3.89,0.16c0.97,0,2.45-0.04,4.45-0.12l0.47,2.12c-1.26,0.03-2.09,0.16-2.5,0.39
					c-0.41,0.24-0.61,0.58-0.61,1.02V78c0,0.47,0.18,0.83,0.53,1.06c0.35,0.24,1.06,0.35,2.1,0.35l0.51,2.12
					c-3.15-0.08-5.3-0.12-6.45-0.12c-1.15,0-2.74,0.04-4.76,0.12l-0.47-2.12c1.26-0.03,2.09-0.16,2.5-0.39
					c0.41-0.24,0.61-0.58,0.61-1.02V61.63c-0.76,1.6-2.23,4.68-4.41,9.23c-2.18,4.55-3.83,8.02-4.96,10.41l-1.02,0.47l-10.39-20.93
					V78c0,0.47,0.18,0.83,0.53,1.06c0.35,0.24,1.06,0.35,2.1,0.35l0.51,2.12c-3.15-0.08-5.09-0.12-5.82-0.12
					c-0.73,0-2.11,0.04-4.13,0.12l-0.47-2.12c2.25-0.05,3.38-0.52,3.38-1.42V56.91c0-0.94-0.97-1.42-2.91-1.42l-0.51-2.12
					c3.15,0.08,5.27,0.12,6.37,0.12s1.99-0.04,2.68-0.12c0.5,1.47,1.41,3.5,2.73,6.08c1.32,2.58,2.17,4.31,2.54,5.17
					c0.6,1.6,2.18,4.67,4.72,9.21c1.05-2.36,1.97-4.48,2.77-6.35c0.8-1.87,1.5-3.46,2.08-4.74c0.59-1.28,1.15-2.53,1.67-3.74
					C242.94,55.72,243.69,53.83,243.69,53.33z"/>
				<path class="st2" d="M284.09,53.33l3.9,0.16c0.97,0,2.45-0.04,4.45-0.12l0.47,2.12c-1.26,0.03-2.09,0.16-2.5,0.39
					s-0.61,0.58-0.61,1.02V78c0,0.47,0.18,0.83,0.53,1.06c0.35,0.24,1.05,0.35,2.11,0.35l0.51,2.12c-3.15-0.08-5.3-0.12-6.45-0.12
					s-2.74,0.04-4.76,0.12l-0.47-2.12c1.26-0.03,2.09-0.16,2.5-0.39c0.41-0.24,0.61-0.58,0.61-1.02V61.63
					c-0.76,1.6-2.23,4.68-4.4,9.23c-2.18,4.55-3.83,8.02-4.96,10.41l-1.02,0.47L263.6,60.81V78c0,0.47,0.18,0.83,0.53,1.06
					c0.36,0.24,1.06,0.35,2.11,0.35l0.51,2.12c-3.15-0.08-5.09-0.12-5.82-0.12c-0.73,0-2.11,0.04-4.13,0.12l-0.47-2.12
					c2.25-0.05,3.38-0.52,3.38-1.42V56.91c0-0.94-0.97-1.42-2.91-1.42l-0.51-2.12c3.15,0.08,5.27,0.12,6.37,0.12
					s1.99-0.04,2.68-0.12c0.5,1.47,1.41,3.5,2.73,6.08c1.32,2.58,2.17,4.31,2.54,5.17c0.6,1.6,2.18,4.67,4.72,9.21
					c1.05-2.36,1.97-4.48,2.77-6.35c0.8-1.87,1.49-3.46,2.08-4.74c0.59-1.28,1.15-2.53,1.67-3.74
					C283.35,55.72,284.09,53.83,284.09,53.33z"/>
				<path class="st2" d="M311.91,81.9c-4.33,0-7.88-1.29-10.66-3.88c-2.78-2.58-4.17-5.94-4.17-10.07c0-4.13,1.48-7.65,4.45-10.56
					s6.6-4.37,10.92-4.37s7.83,1.3,10.56,3.91c2.73,2.61,4.09,6,4.09,10.17s-1.45,7.68-4.35,10.52
					C319.85,80.47,316.23,81.9,311.91,81.9z M307.42,77.17c1.52,1.26,3.45,1.89,5.78,1.89c2.33,0,4.22-1,5.65-2.99
					c1.43-1.99,2.14-4.48,2.14-7.47c0-3.7-0.83-6.77-2.48-9.21c-1.65-2.44-4.04-3.66-7.16-3.66c-2.47,0-4.45,1.02-5.94,3.07
					c-1.5,2.05-2.24,4.56-2.24,7.55C303.17,71.26,304.59,74.87,307.42,77.17z"/>
				<path class="st2" d="M343.02,81.58l-5.59-0.16c-1.78,0-3.68,0.04-5.7,0.12l-0.47-2.12c1.26-0.03,2.09-0.16,2.5-0.39
					c0.41-0.24,0.61-0.58,0.61-1.02V56.91c0-0.47-0.18-0.83-0.53-1.06c-0.35-0.24-1.06-0.35-2.1-0.35l-0.51-2.12
					c3.15,0.08,4.98,0.12,5.51,0.12l6.29-0.16c6.16,0,9.25,2.15,9.25,6.45c0,2.89-1.75,5.01-5.23,6.37
					c1.99,0.37,3.69,1.17,5.09,2.42c1.4,1.25,2.1,2.76,2.1,4.54c0,2.68-0.95,4.75-2.85,6.24C349.48,80.84,346.69,81.58,343.02,81.58
					z M346.72,60.59c0-1.59-0.46-2.77-1.38-3.56c-0.92-0.79-2.07-1.18-3.46-1.18c-1.39,0-2.09,0.09-2.09,0.27v9.64
					c0.05,0.03,0.59,0.04,1.61,0.04c1.65,0,2.95-0.47,3.89-1.42S346.72,62.18,346.72,60.59z M339.8,76.9c0,1.47,0.95,2.2,2.85,2.2
					s3.35-0.53,4.35-1.59c1-1.06,1.5-2.31,1.5-3.76c0-2.05-0.65-3.53-1.95-4.45c-1.3-0.92-2.74-1.38-4.33-1.38s-2.39,0.01-2.42,0.04
					V76.9z"/>
				<path class="st2" d="M366.86,56.91V78c0,0.47,0.18,0.83,0.53,1.06c0.35,0.24,1.06,0.35,2.11,0.35l0.51,2.12
					c-3.15-0.08-5.3-0.12-6.45-0.12c-1.15,0-2.74,0.04-4.76,0.12l-0.47-2.12c1.26-0.03,2.09-0.16,2.5-0.39
					c0.41-0.24,0.61-0.58,0.61-1.02V56.91c0-0.47-0.18-0.83-0.53-1.06c-0.35-0.24-1.06-0.35-2.1-0.35l-0.51-2.12
					c3.15,0.08,5.3,0.12,6.47,0.12s2.75-0.04,4.74-0.12l0.47,2.12c-1.26,0.03-2.09,0.16-2.5,0.39
					C367.07,56.13,366.86,56.47,366.86,56.91z"/>
				<path class="st2" d="M385.51,81.5l-6.18-0.08c-1.42,0-3.12,0.04-5.11,0.12l-0.47-2.12c1.26-0.03,2.09-0.16,2.5-0.39
					c0.41-0.24,0.61-0.58,0.61-1.02l0.16-21.09c0-0.47-0.18-0.83-0.53-1.06c-0.35-0.24-1.06-0.35-2.1-0.35l-0.51-2.12
					c3.15,0.08,5.3,0.12,6.47,0.12s2.75-0.04,4.74-0.12l0.47,2.12c-1.26,0.03-2.09,0.16-2.5,0.39c-0.41,0.24-0.61,0.58-0.61,1.02
					v20.02c0,1.39,0.64,2.08,1.93,2.08h3.7c3.54,0,5.95-1.89,7.24-5.67l2.13,0.43c0,0.45-0.38,1.83-1.14,4.15
					c-0.76,2.32-1.32,3.48-1.69,3.48L385.51,81.5z"/>
				<path class="st2" d="M408.56,56.91V78c0,0.47,0.18,0.83,0.53,1.06c0.35,0.24,1.06,0.35,2.11,0.35l0.51,2.12
					c-3.15-0.08-5.3-0.12-6.45-0.12c-1.15,0-2.74,0.04-4.76,0.12l-0.47-2.12c1.26-0.03,2.09-0.16,2.5-0.39
					c0.41-0.24,0.61-0.58,0.61-1.02V56.91c0-0.47-0.18-0.83-0.53-1.06c-0.35-0.24-1.06-0.35-2.1-0.35l-0.51-2.12
					c3.15,0.08,5.3,0.12,6.47,0.12s2.75-0.04,4.74-0.12l0.47,2.12c-1.26,0.03-2.09,0.16-2.5,0.39
					C408.77,56.13,408.56,56.47,408.56,56.91z"/>
				<path class="st2" d="M431.5,55.81l-4.92,0.04h-0.94c-1.08,0.05-1.61,0.1-1.61,0.16v9.72h6.53c0.31,0,0.47-1.26,0.47-3.78
					l2.2-0.35l-0.12,5.43c0,1.5,0.04,3.11,0.12,4.84l-2.28,0.43c0-1.49-0.03-2.45-0.08-2.87c-0.05-0.42-0.18-0.63-0.39-0.63h-6.45
					v8.1c0,0.87,0.24,1.43,0.71,1.69c0.47,0.26,1.27,0.39,2.4,0.39h3.7c3.54,0,5.95-1.89,7.24-5.67l2.12,0.43
					c0,0.45-0.38,1.84-1.14,4.17c-0.76,2.33-1.32,3.5-1.69,3.5l-9.09,0.04l-7.2-0.04c-1.39,0-3.09,0.04-5.11,0.12l-0.47-2.12
					c1.26-0.03,2.09-0.16,2.5-0.39c0.41-0.24,0.61-0.58,0.61-1.02V56.91c0-0.47-0.18-0.83-0.53-1.06c-0.35-0.24-1.06-0.35-2.1-0.35
					l-0.51-2.12c3.15,0.08,4.98,0.12,5.51,0.12h10.19l6.14,0.04c0.32,0.71,0.47,1.85,0.47,3.42c0,1.57-0.07,2.98-0.2,4.21
					l-1.73-0.28c-0.29-1.81-0.77-3.11-1.44-3.89C433.72,56.21,432.76,55.81,431.5,55.81z"/>
				<path class="st2" d="M470.33,81.58c-0.53-0.1-1.1-0.16-1.71-0.16c-0.62,0-1.12,0.04-1.51,0.12l-16.64-21.13V78
					c0,0.47,0.18,0.83,0.53,1.06c0.35,0.24,1.06,0.35,2.1,0.35l0.51,2.12c-3.15-0.08-5.09-0.12-5.82-0.12s-2.11,0.04-4.13,0.12
					l-0.47-2.12c2.25-0.05,3.38-0.52,3.38-1.42V56.91c0-0.94-0.97-1.42-2.91-1.42l-0.51-2.12c3.15,0.08,5.27,0.12,6.37,0.12
					s1.99-0.04,2.67-0.12c0,0.31,0.18,0.74,0.55,1.28c0.37,0.54,0.67,1,0.92,1.38c0.25,0.38,0.58,0.84,0.98,1.38
					c0.41,0.54,0.76,1,1.06,1.4s0.69,0.88,1.16,1.46c1.73,2.18,2.79,3.5,3.17,3.97c0.38,0.47,1.44,1.84,3.19,4.11
					c1.74,2.27,2.81,3.64,3.21,4.11l-0.04-15.54c0-0.47-0.18-0.83-0.53-1.06c-0.35-0.24-1.06-0.35-2.11-0.35l-0.51-2.12
					c3.15,0.08,5.09,0.12,5.84,0.12s2.12-0.04,4.11-0.12l0.47,2.12c-2.26,0.05-3.38,0.52-3.38,1.42L470.33,81.58z"/>
				<path class="st2" d="M227.96,119.42l-3.89-0.12c-0.84,0-2.33,0.03-4.48,0.08c-0.24-0.32-0.53-0.74-0.89-1.28
					c-0.35-0.54-0.79-1.19-1.3-1.97c-0.51-0.77-1.44-2.18-2.79-4.23c-1.35-2.05-2.38-3.54-3.09-4.49c0-0.03,0.01-0.04,0.04-0.04
					h-2.56v8.5c0,0.47,0.18,0.83,0.53,1.06s1.06,0.35,2.1,0.35l0.51,2.12c-3.15-0.08-5.3-0.12-6.45-0.12
					c-1.15,0-2.74,0.04-4.76,0.12l-0.47-2.12c1.26-0.03,2.09-0.16,2.5-0.39c0.41-0.24,0.61-0.58,0.61-1.02V94.8
					c0-0.47-0.18-0.83-0.53-1.06c-0.35-0.24-1.06-0.35-2.1-0.35l-0.51-2.13c3.15,0.08,4.98,0.12,5.51,0.12l5.86-0.16
					c3.09,0,5.62,0.64,7.57,1.91c1.95,1.27,2.93,3.21,2.93,5.8c0,3.49-1.84,5.97-5.51,7.43c1.1,1.44,1.9,2.53,2.4,3.27h-0.04
					c2.88,3.96,4.46,6.06,4.72,6.29c0.94,0.89,2.06,1.38,3.34,1.46L227.96,119.42z M208.99,94.01v11.21c0.45,0.03,1,0.04,1.65,0.04
					c2.07,0,3.64-0.56,4.7-1.69c1.06-1.13,1.59-2.6,1.59-4.43c0-1.82-0.54-3.18-1.61-4.07c-1.08-0.89-2.4-1.34-3.97-1.34
					S208.99,93.83,208.99,94.01z"/>
				<path class="st2" d="M245.97,93.7l-4.92,0.04h-0.94c-1.08,0.05-1.61,0.11-1.61,0.16v9.72h6.53c0.31,0,0.47-1.26,0.47-3.78
					l2.2-0.35l-0.12,5.43c0,1.5,0.04,3.11,0.12,4.84l-2.28,0.43c0-1.5-0.03-2.45-0.08-2.87c-0.05-0.42-0.18-0.63-0.39-0.63h-6.45
					v8.1c0,0.87,0.24,1.43,0.71,1.69c0.47,0.26,1.27,0.39,2.4,0.39h3.7c3.54,0,5.95-1.89,7.24-5.67l2.12,0.43
					c0,0.45-0.38,1.84-1.14,4.17c-0.76,2.33-1.32,3.5-1.69,3.5l-9.09,0.04l-7.2-0.04c-1.39,0-3.09,0.04-5.11,0.12l-0.47-2.12
					c1.26-0.03,2.09-0.16,2.5-0.39c0.41-0.24,0.61-0.58,0.61-1.02V94.8c0-0.47-0.18-0.83-0.53-1.06c-0.35-0.24-1.06-0.35-2.1-0.35
					l-0.51-2.13c3.15,0.08,4.98,0.12,5.51,0.12h10.19l6.14,0.04c0.31,0.71,0.47,1.85,0.47,3.42c0,1.57-0.07,2.98-0.2,4.21
					l-1.73-0.28c-0.29-1.81-0.77-3.11-1.44-3.9C248.2,94.09,247.23,93.7,245.97,93.7z"/>
				<path class="st2" d="M270.32,119.42l-7.08-0.2c-1.39,0-3.09,0.04-5.11,0.12l-0.47-2.12c1.26-0.03,2.09-0.16,2.5-0.39
					c0.41-0.24,0.61-0.58,0.61-1.02V94.84c0-0.47-0.18-0.83-0.53-1.06c-0.35-0.24-1.06-0.35-2.1-0.35l-0.51-2.12
					c3.15,0.08,4.98,0.12,5.51,0.12l7.87-0.08c5.19,0,9.26,1.17,12.2,3.52c2.94,2.35,4.41,5.72,4.41,10.11c0,4.39-1.5,7.9-4.5,10.52
					C280.09,118.11,275.83,119.42,270.32,119.42z M278.9,114c1.73-1.97,2.6-4.82,2.6-8.56s-0.99-6.63-2.97-8.69
					c-1.98-2.06-4.81-3.09-8.48-3.09h-2.95c-0.68,0-1.02,0.09-1.02,0.28v20.42c0,0.68,0.06,1.17,0.2,1.46s0.59,0.55,1.38,0.79
					c0.79,0.24,2.03,0.35,3.74,0.35C274.66,116.95,277.17,115.96,278.9,114z"/>
				<path class="st2" d="M295.62,119.31l-4.8,0.16l-0.28-2.16c0.92-0.08,1.67-0.3,2.24-0.67s1-0.77,1.26-1.2s0.55-1.08,0.87-1.95
					l8.22-22.11h3.42l9.28,22.74c0.47,1.18,0.96,2.01,1.47,2.5c0.51,0.49,1.24,0.73,2.18,0.73l0.43,2.08
					c-1.21-0.08-3.19-0.12-5.94-0.12c-2.75,0-4.75,0.04-5.98,0.12l-0.35-2.08c1.39,0,2.25-0.1,2.6-0.29
					c0.34-0.2,0.51-0.43,0.51-0.69s-0.08-0.56-0.24-0.91l-2.64-5.9h-8.54l-1.65,4.72c-0.11,0.29-0.16,0.56-0.16,0.83
					c0,0.55,0.33,1.05,0.98,1.49c0.66,0.45,1.67,0.68,3.03,0.71l0.39,2.16L295.62,119.31z M303.25,98.5l-3.03,8.54h6.57L303.25,98.5
					z"/>
				<path class="st2" d="M350.3,119.42l-5-0.12c-1.13,0-2.04,0.01-2.75,0.04c-1-1.21-3.07-3.56-6.21-7.06
					c-3.15-3.5-4.89-5.25-5.23-5.25h-0.04v8.85c0,0.47,0.18,0.83,0.53,1.06c0.35,0.24,1.06,0.35,2.11,0.35l0.51,2.12
					c-3.15-0.08-5.3-0.12-6.45-0.12c-1.15,0-2.74,0.04-4.76,0.12l-0.47-2.12c1.26-0.03,2.09-0.16,2.5-0.39
					c0.41-0.24,0.61-0.58,0.61-1.02V94.8c0-0.47-0.18-0.83-0.53-1.06c-0.35-0.24-1.06-0.35-2.1-0.35l-0.51-2.13
					c3.15,0.08,5.3,0.12,6.47,0.12s2.75-0.04,4.74-0.12l0.47,2.13c-1.26,0.03-2.09,0.16-2.5,0.39c-0.41,0.24-0.61,0.58-0.61,1.02
					v9.4c1.6-1.52,3.57-3.54,5.9-6.06s3.5-3.94,3.5-4.27c0-0.33-0.87-0.49-2.6-0.49l-0.51-2.13c3.15,0.08,5.3,0.12,6.45,0.12
					c1.15,0,2.74-0.04,4.76-0.12l0.47,2.13c-2.67,0.08-4.38,0.51-5.11,1.3L335.2,104l10.98,11.88c1,0.94,2.2,1.42,3.62,1.42
					L350.3,119.42z"/>
				<path class="st2" d="M368.99,94.01h-2.16v21.87c0,0.5,0.2,0.86,0.59,1.08c0.39,0.22,1.21,0.33,2.44,0.33l0.51,2.12
					c-3.15-0.08-5.43-0.12-6.84-0.12s-3.13,0.04-5.15,0.12l-0.47-2.12c1.44-0.03,2.39-0.16,2.83-0.39c0.45-0.24,0.67-0.58,0.67-1.02
					V94.01h-1.3c-2.39,0-3.89,0.3-4.52,0.91c-0.55,0.45-1.02,1.77-1.42,3.97l-1.81,0.04c-0.26-1.29-0.39-2.62-0.39-4.01
					c0-1.39,0.16-2.68,0.47-3.86c1.02,0.21,2.18,0.31,3.46,0.31h17.07c1.76,0,3.08-0.1,3.97-0.31c0.16,1.81,0.24,3.25,0.24,4.31
					s-0.14,2.29-0.43,3.68l-1.85-0.28c-0.29-2.1-0.76-3.38-1.42-3.86C372.63,94.31,371.14,94.01,368.99,94.01z"/>
				<path class="st2" d="M389.09,94.8v21.09c0,0.47,0.18,0.83,0.53,1.06c0.35,0.24,1.06,0.35,2.11,0.35l0.51,2.12
					c-3.15-0.08-5.3-0.12-6.45-0.12c-1.15,0-2.74,0.04-4.76,0.12l-0.47-2.12c1.26-0.03,2.09-0.16,2.5-0.39
					c0.41-0.24,0.61-0.58,0.61-1.02V94.8c0-0.47-0.18-0.83-0.53-1.06c-0.35-0.24-1.06-0.35-2.1-0.35l-0.51-2.13
					c3.15,0.08,5.3,0.12,6.47,0.12s2.75-0.04,4.74-0.12l0.47,2.13c-1.26,0.03-2.09,0.16-2.5,0.39
					C389.29,94.01,389.09,94.35,389.09,94.8z"/>
				<path class="st2" d="M411.2,119.78c-4.33,0-7.88-1.29-10.66-3.88c-2.78-2.58-4.17-5.94-4.17-10.07c0-4.13,1.48-7.65,4.45-10.56
					s6.6-4.37,10.92-4.37s7.83,1.3,10.56,3.91c2.73,2.61,4.09,6,4.09,10.17c0,4.17-1.45,7.68-4.35,10.52
					C419.14,118.36,415.53,119.78,411.2,119.78z M406.71,115.06c1.52,1.26,3.45,1.89,5.78,1.89c2.33,0,4.22-1,5.65-2.99
					c1.43-1.99,2.14-4.48,2.14-7.47c0-3.7-0.83-6.77-2.48-9.21c-1.65-2.44-4.04-3.66-7.16-3.66c-2.47,0-4.45,1.02-5.94,3.07
					c-1.5,2.04-2.24,4.56-2.24,7.55C402.46,109.14,403.88,112.75,406.71,115.06z"/>
				<path class="st2" d="M457.7,119.46c-0.53-0.1-1.1-0.16-1.71-0.16c-0.62,0-1.12,0.04-1.51,0.12L437.83,98.3v17.58
					c0,0.47,0.18,0.83,0.53,1.06c0.35,0.24,1.06,0.35,2.1,0.35l0.51,2.12c-3.15-0.08-5.09-0.12-5.82-0.12s-2.11,0.04-4.13,0.12
					l-0.47-2.12c2.25-0.05,3.38-0.52,3.38-1.42V94.8c0-0.94-0.97-1.42-2.91-1.42l-0.51-2.13c3.15,0.08,5.27,0.12,6.37,0.12
					s1.99-0.04,2.67-0.12c0,0.32,0.18,0.74,0.55,1.28c0.37,0.54,0.67,1,0.92,1.38c0.25,0.38,0.58,0.84,0.98,1.38
					c0.41,0.54,0.76,1,1.06,1.4c0.3,0.39,0.69,0.88,1.16,1.46c1.73,2.18,2.79,3.5,3.17,3.97c0.38,0.47,1.44,1.84,3.19,4.11
					c1.74,2.27,2.81,3.64,3.21,4.11l-0.04-15.54c0-0.47-0.18-0.83-0.53-1.06c-0.35-0.24-1.06-0.35-2.11-0.35l-0.51-2.13
					c3.15,0.08,5.09,0.12,5.84,0.12s2.12-0.04,4.11-0.12l0.47,2.13c-2.26,0.05-3.38,0.52-3.38,1.42L457.7,119.46z"/>
			</g>
		</g>
		<path class="st3" d="M93.12,65.06v69.96c-0.19-0.12-0.38-0.23-0.57-0.35c-1.49-0.92-2.95-1.88-4.38-2.89V72.43L61.64,83.27v19.87
			c-0.16-0.26-0.32-0.53-0.48-0.8c-1.63-2.78-3.14-5.65-4.48-8.6v-13.8l0.03-0.01l31.39-12.82l0.06,0.02v-0.05L93.12,65.06z"/>
		<polygon class="st4" points="56.71,79.94 56.69,79.94 56.69,79.94 		"/>
		<polygon class="st4" points="88.17,67.08 88.17,67.13 88.11,67.11 		"/>
		<polygon class="st4" points="88.11,67.11 88.17,67.08 88.17,67.13 		"/>
		<path class="st3" d="M122.13,73.97v72c-1.67-0.28-3.32-0.62-4.95-1.02V77.46l-4.95-1.77v67.92c-0.62-0.19-1.23-0.39-1.85-0.59
			c-1.05-0.35-2.08-0.71-3.1-1.1V73.93l-4.83-1.72v67.72c-1.68-0.76-3.33-1.57-4.95-2.43V65.2h0.01l4.47,1.59l0.48,0.16l9.75,3.47
			l0.03,0.01l4.95,1.76L122.13,73.97z"/>
		<polygon class="st4" points="112.23,70.43 112.23,70.44 112.2,70.43 		"/>
		<polygon class="st4" points="117.19,52.7 117.18,52.7 117.18,52.7 		"/>
		<polygon class="st3" points="154.09,38.48 154.09,104.52 149.13,103.11 149.13,45.7 122.13,56.1 122.13,73.97 117.18,72.2 
			117.18,52.7 117.19,52.7 149.13,40.39 		"/>
		<polygon class="st3" points="194.53,52.39 194.53,116.06 189.58,114.65 189.58,55.81 183.8,53.6 183.8,113 178.85,111.59 
			178.85,51.71 173.54,49.69 173.54,110.07 168.59,108.66 168.59,47.78 163.05,45.64 163.05,107.08 158.09,105.66 158.09,38.43 
			163.05,40.34 168.59,42.47 173.54,44.38 189.58,50.5 		"/>
		<path class="st3" d="M216.71,151.96l-47.83-6.99l-18.31-29.33l-16.6,33.65h-0.01l-0.31,0.66c-0.71,1.54-1.58,3.06-1.59,3.06h-0.14
			c-0.83-0.02-1.65-0.05-2.49-0.1c-0.03,0-0.08,0-0.12-0.01c-0.19-0.01-0.4-0.02-0.59-0.03c-0.14,0-0.28-0.01-0.43-0.03
			c-6.27-0.4-12.36-1.49-18.22-3.2c-0.62-0.17-1.23-0.36-1.85-0.55c-1.05-0.32-2.08-0.67-3.1-1.05c-1.63-0.57-3.25-1.2-4.83-1.88
			c-1.68-0.71-3.33-1.47-4.95-2.29c-0.84-0.41-1.68-0.85-2.5-1.3c-0.82-0.43-1.63-0.9-2.44-1.36c-0.71-0.41-1.42-0.83-2.11-1.28
			c-0.77-0.46-1.52-0.95-2.27-1.46c-10.66-7.09-19.74-16.46-26.53-27.37c-0.32-0.5-0.64-1.02-0.94-1.52
			c-0.78-1.3-1.52-2.63-2.23-3.97c-0.63-1.17-1.22-2.36-1.78-3.56c-5.19-10.89-8.22-22.97-8.54-35.63
			c-0.02-0.68-0.03-1.37-0.03-2.07v-0.18c0-0.51,0.01-1.02,0.03-1.52c0.01-0.57,0.02-1.15,0.05-1.7
			c0.49,12.22,3.48,24.09,8.49,34.96c1.34,2.94,2.84,5.82,4.48,8.6c0.15,0.27,0.31,0.54,0.48,0.8c0.24,0.41,0.49,0.8,0.74,1.2
			c6.7,10.8,15.51,20.22,25.8,27.44c1.43,1.01,2.89,1.97,4.38,2.89c0.19,0.12,0.38,0.23,0.57,0.35c1.43,0.87,2.89,1.7,4.37,2.48
			c1.62,0.86,3.28,1.68,4.95,2.43c1.59,0.71,3.2,1.38,4.83,1.99c1.03,0.39,2.05,0.76,3.1,1.1c0.62,0.21,1.23,0.4,1.85,0.59
			c1.63,0.51,3.29,0.95,4.95,1.34c1.63,0.4,3.29,0.74,4.95,1.02c2.64,0.46,5.3,0.78,8.01,0.96l21.64-41.82l44.91,12.59
			L216.71,151.96z"/>
		<g>
			<g>
				<path class="st2" d="M35.22,66.26l9.52,0.34l-0.09,2.55c-0.05,1.46-0.48,2.58-1.3,3.37c-0.82,0.79-2.01,1.15-3.58,1.1
					c-0.79-0.03-1.48-0.16-2.07-0.39c-0.59-0.23-1.09-0.55-1.48-0.96c-0.39-0.41-0.68-0.89-0.86-1.46c-0.18-0.57-0.26-1.2-0.24-1.91
					L35.22,66.26z M36.53,68l-0.03,0.74c-0.03,0.97,0.22,1.73,0.76,2.26c0.54,0.54,1.4,0.83,2.57,0.87c1.16,0.04,2.02-0.19,2.58-0.7
					c0.55-0.51,0.85-1.24,0.88-2.2l0.03-0.74L36.53,68z"/>
				<path class="st2" d="M35.19,77.98l9.52-0.5l0.09,1.69l-9.52,0.5L35.19,77.98z"/>
				<path class="st2" d="M35.73,84.53l9.42-1.46l0.88,5.67l-1.41,0.22l-0.62-4l-2.4,0.37l0.52,3.38l-1.41,0.22l-0.52-3.38
					l-2.78,0.43l0.64,4.15l-1.41,0.22L35.73,84.53z"/>
				<path class="st2" d="M40,103.4c-0.18-0.52-0.27-1.02-0.26-1.49s0.12-0.91,0.35-1.33s0.57-0.79,1.03-1.13
					c0.46-0.34,1.07-0.64,1.81-0.9l5.05-1.76l0.56,1.6l-5.17,1.8c-0.49,0.17-0.88,0.36-1.19,0.56c-0.31,0.2-0.53,0.42-0.68,0.65
					c-0.15,0.23-0.22,0.47-0.23,0.72c-0.01,0.25,0.03,0.51,0.13,0.79c0.1,0.27,0.23,0.51,0.39,0.71c0.17,0.2,0.38,0.35,0.64,0.44
					c0.26,0.09,0.57,0.13,0.94,0.1c0.37-0.02,0.79-0.12,1.28-0.29l5.17-1.8l0.53,1.53l-5.05,1.76c-0.74,0.26-1.4,0.4-1.97,0.42
					c-0.57,0.03-1.08-0.05-1.51-0.24s-0.8-0.46-1.1-0.82S40.18,103.92,40,103.4z"/>
				<path class="st2" d="M43.37,111.5l8.5-4.31l0.79,1.55l-3.44,5.08l-1.36,1.79l0.03,0.05c0.42-0.26,0.88-0.54,1.36-0.85
					c0.48-0.3,0.96-0.58,1.44-0.82l3.69-1.87l0.73,1.44l-8.5,4.31l-0.79-1.55l3.44-5.08l1.36-1.79l-0.03-0.05
					c-0.43,0.26-0.88,0.54-1.35,0.84c-0.47,0.3-0.94,0.57-1.42,0.81l-3.72,1.89L43.37,111.5z"/>
				<path class="st2" d="M48.56,121.25l9.63-2.78l1.11,1.64l-6.14,7.92l-1-1.47l1.72-2.06l-1.8-2.65l-2.55,0.83L48.56,121.25z
					 M54.55,121.05l-1.15,0.38l1.37,2.01l0.78-0.93c0.33-0.41,0.68-0.83,1.04-1.24c0.36-0.42,0.72-0.83,1.08-1.24l-0.03-0.05
					c-0.52,0.19-1.04,0.37-1.55,0.56C55.57,120.72,55.06,120.9,54.55,121.05z"/>
				<path class="st2" d="M55.57,131.07l7.19-6.26l2,2.3c0.33,0.37,0.59,0.74,0.8,1.11c0.21,0.37,0.35,0.72,0.41,1.07
					c0.07,0.35,0.04,0.69-0.08,1.01c-0.12,0.33-0.34,0.63-0.67,0.92c-0.34,0.3-0.74,0.49-1.19,0.57c-0.45,0.08-0.86,0.01-1.25-0.21
					l-0.04,0.04c0.26,0.47,0.36,0.96,0.3,1.47c-0.06,0.51-0.33,0.97-0.81,1.39c-0.36,0.31-0.73,0.51-1.12,0.6
					c-0.39,0.09-0.77,0.09-1.16,0c-0.39-0.09-0.77-0.27-1.15-0.53c-0.38-0.26-0.74-0.59-1.08-0.99L55.57,131.07z M57.67,131.48
					l0.94,1.08c0.46,0.53,0.91,0.85,1.35,0.97s0.87,0,1.27-0.35c0.38-0.33,0.54-0.71,0.47-1.14c-0.07-0.43-0.34-0.92-0.81-1.46
					l-0.94-1.08L57.67,131.48z M60.9,128.67l0.79,0.91c0.44,0.5,0.85,0.79,1.23,0.85c0.38,0.06,0.72-0.04,1.03-0.31
					c0.35-0.31,0.5-0.64,0.44-1c-0.06-0.36-0.29-0.78-0.7-1.25l-0.81-0.93L60.9,128.67z"/>
				<path class="st2" d="M63.33,139.51l6.32-7.13l1.26,1.12l-2.54,2.87l2.89,2.56l2.54-2.87l1.27,1.12l-6.32,7.13l-1.27-1.12
					l2.8-3.16l-2.89-2.56l-2.8,3.16L63.33,139.51z"/>
				<path class="st2" d="M71.83,146.75l7.94-6.12l1.64,1.12l-2.81,9.62l-1.47-1l0.84-2.55L75.31,146l-2.07,1.71L71.83,146.75z
					 M77.32,144.36l-0.93,0.77l2.01,1.37l0.38-1.15c0.16-0.5,0.33-1.02,0.51-1.54c0.18-0.52,0.37-1.04,0.55-1.55l-0.05-0.03
					c-0.41,0.36-0.83,0.73-1.24,1.09S77.73,144.03,77.32,144.36z M79.71,139.64c-0.21-0.14-0.33-0.32-0.38-0.55
					c-0.04-0.22,0.01-0.44,0.15-0.65c0.14-0.21,0.33-0.34,0.55-0.38c0.23-0.05,0.44,0,0.65,0.14c0.21,0.14,0.33,0.33,0.38,0.56
					c0.04,0.23-0.01,0.45-0.15,0.66c-0.14,0.21-0.33,0.33-0.55,0.37C80.14,139.83,79.92,139.78,79.71,139.64z M82.29,141.4
					c-0.21-0.14-0.34-0.33-0.38-0.55c-0.05-0.23,0-0.44,0.14-0.65c0.14-0.21,0.33-0.33,0.56-0.38c0.23-0.04,0.45,0.01,0.66,0.15
					c0.21,0.14,0.33,0.33,0.37,0.55c0.04,0.23-0.01,0.45-0.15,0.66c-0.14,0.21-0.33,0.33-0.55,0.38S82.49,141.54,82.29,141.4z"/>
				<path class="st2" d="M81.97,153.33l4.34-8.49l1.54,0.79l0.21,6.13L88,154.01l0.05,0.03c0.19-0.46,0.39-0.95,0.6-1.48
					c0.21-0.53,0.44-1.03,0.68-1.51l1.88-3.68l1.44,0.74l-4.34,8.48l-1.54-0.79l-0.21-6.13l0.05-2.25l-0.05-0.03
					c-0.2,0.47-0.4,0.96-0.6,1.48c-0.2,0.52-0.43,1.01-0.67,1.49l-1.9,3.71L81.97,153.33z"/>
				<path class="st2" d="M96.81,160.12c-0.6-0.21-1.13-0.51-1.58-0.9c-0.45-0.38-0.79-0.84-1.03-1.37
					c-0.24-0.53-0.36-1.12-0.37-1.77c-0.01-0.65,0.12-1.35,0.38-2.09c0.26-0.73,0.6-1.35,1.03-1.86s0.9-0.89,1.42-1.16
					c0.52-0.27,1.08-0.42,1.67-0.44c0.59-0.03,1.19,0.06,1.78,0.27c0.64,0.23,1.14,0.54,1.5,0.92c0.36,0.39,0.63,0.78,0.81,1.18
					l-1.22,0.73c-0.15-0.3-0.34-0.58-0.57-0.83c-0.23-0.25-0.55-0.45-0.97-0.6c-0.4-0.14-0.79-0.2-1.17-0.16
					c-0.38,0.04-0.73,0.15-1.07,0.35c-0.33,0.2-0.63,0.47-0.9,0.83c-0.27,0.36-0.5,0.79-0.67,1.29c-0.36,1.03-0.42,1.91-0.16,2.66
					c0.26,0.75,0.84,1.28,1.75,1.6c0.26,0.09,0.51,0.14,0.76,0.15c0.25,0.01,0.48-0.02,0.67-0.1l0.68-1.94l-1.7-0.6l0.46-1.3
					l3.13,1.11l-1.4,3.96c-0.41,0.2-0.9,0.31-1.47,0.34C98.02,160.43,97.43,160.34,96.81,160.12z"/>
				<path class="st2" d="M104.28,162.17l2.25-9.26l1.64,0.4l-2.25,9.26L104.28,162.17z"/>
				<path class="st2" d="M114.76,164.34c-0.64-0.09-1.21-0.27-1.72-0.56c-0.51-0.29-0.94-0.66-1.29-1.13
					c-0.34-0.47-0.58-1.02-0.72-1.66c-0.14-0.64-0.15-1.34-0.05-2.12c0.11-0.77,0.32-1.44,0.63-2.02c0.31-0.58,0.7-1.05,1.16-1.42
					c0.46-0.37,0.97-0.63,1.55-0.77c0.57-0.15,1.17-0.18,1.8-0.09c0.67,0.09,1.23,0.29,1.66,0.6c0.43,0.31,0.78,0.64,1.03,0.99
					l-1.04,0.96c-0.21-0.26-0.45-0.5-0.72-0.7c-0.27-0.2-0.63-0.33-1.07-0.39c-0.42-0.06-0.82-0.03-1.18,0.08
					c-0.36,0.11-0.69,0.3-0.97,0.56c-0.29,0.26-0.52,0.59-0.72,1c-0.19,0.41-0.33,0.87-0.4,1.4c-0.15,1.08-0.02,1.96,0.38,2.63
					c0.4,0.68,1.08,1.08,2.03,1.21c0.27,0.04,0.53,0.04,0.78,0c0.25-0.04,0.46-0.12,0.63-0.23l0.28-2.04l-1.79-0.25l0.19-1.37
					l3.29,0.45l-0.57,4.16c-0.36,0.27-0.82,0.48-1.37,0.63C116,164.41,115.4,164.43,114.76,164.34z"/>
				<path class="st2" d="M122.62,164.89l0.13-9.53l5.74,0.08l-0.02,1.43l-4.05-0.05l-0.03,2.43l3.42,0.04l-0.02,1.43l-3.42-0.05
					l-0.04,2.81l4.2,0.06l-0.02,1.43L122.62,164.89z"/>
			</g>
		</g>
	</g>
</g>
<g id="_x39_9d_logo" class="st5">
	<g class="st6">
		<defs>
			<path id="SVGID_1_" d="M-3.68,8.11c15.66-27.27,50.32-36.62,77.44-20.87c27.11,15.74,36.39,50.62,20.75,77.88
				C78.85,92.4,44.18,101.74,17.06,86C-10.05,70.25-19.34,35.37-3.68,8.11z M212.75,8.11c15.66-27.27,50.32-36.62,77.44-20.87
				c27.11,15.74,36.39,50.62,20.75,77.88C295.28,92.4,260.62,101.74,233.49,86C206.39,70.25,197.09,35.37,212.75,8.11z
				 M515.73,180.25c-11.19,11.27-25.5,16.91-42.92,16.91c-8.39,0-16.25-1.49-23.56-4.47c-7.31-2.97-13.52-7.1-18.66-12.44
				c-5.13-5.31-9.17-11.64-12.13-18.99c-2.96-7.36-4.43-15.42-4.43-24.16c0-8.45,1.47-16.36,4.43-23.71
				c2.96-7.35,7.08-13.6,12.37-18.77c5.28-5.16,11.59-9.23,18.89-12.19c7.31-2.98,15.32-4.47,24.02-4.47
				c8.39,0,16.18,1.49,23.34,4.47c7.14,2.97,13.37,7.12,18.65,12.44c5.29,5.3,9.42,11.49,12.37,18.52
				c2.96,7.05,4.44,14.78,4.44,23.23C532.54,154.46,526.93,169.01,515.73,180.25z M153.62,97.75
				c10.55,18.93,26.14,35.34,46.17,46.98c16.82,9.76,34.98,14.98,53.13,16.27l-53.98,94.06h80.82l64.38-112.16
				c0.55,16.2,3.39,31.16,8.53,44.87c5.76,15.31,13.85,28.52,24.27,39.64c10.42,11.12,22.79,19.78,37.09,26.05
				c14.31,6.26,30.02,9.38,47.11,9.38c16.18,0,29.78-2.57,40.83-7.74c11.04-5.16,21.23-13.53,30.56-25.12v24.88h66.25V-81.1h-70
				V39.95c-9.64-9.41-19.9-16.36-30.78-20.91c-10.89-4.54-23.65-6.8-38.27-6.8c-16.48,0-31.8,3.14-45.95,9.39
				c-10.32,4.56-19.6,10.41-27.85,17.55c0.86-44-21.48-87.12-62.05-110.68c-59.36-34.48-135.27-14.03-169.53,45.68
				c-0.25,0.43-0.49,0.86-0.73,1.29c-10.54-18.93-26.13-35.33-46.17-46.97C48.11-105.97-27.8-85.51-62.07-25.81
				C-96.35,33.91-76,110.25-16.64,144.73c16.82,9.76,34.98,14.98,53.13,16.27l-53.98,94.06h80.82l89.57-156.03
				C153.14,98.61,153.38,98.18,153.62,97.75L153.62,97.75z"/>
		</defs>
		<clipPath id="SVGID_2_">
			<use xlink:href="#SVGID_1_"  style="overflow:visible;"/>
		</clipPath>
		<g class="st7">
			<defs>
				<rect id="SVGID_3_" x="-625.46" y="-798.79" width="1770.84" height="1770.84"/>
			</defs>
			<clipPath id="SVGID_4_">
				<use xlink:href="#SVGID_3_"  style="overflow:visible;"/>
			</clipPath>
			<rect x="-89.79" y="-99.31" class="st8" width="699.65" height="373.22"/>
		</g>
	</g>
</g>
<g id="Guides">
</g>
<g id="TEMPLATE__x28_delete_x29_" class="st5">
	<path class="st9" d="M-240-413V587H760V-413H-240z M560,387H-40v-600h600V387z"/>
	<g class="st6">
		<defs>
			<path id="SVGID_5_" d="M7.51-118.08c1.99-3.46,6.38-4.64,9.82-2.65c3.44,2,4.61,6.42,2.63,9.88c-1.99,3.46-6.38,4.64-9.82,2.65
				C6.71-110.2,5.53-114.62,7.51-118.08z M36.11-118.08c1.99-3.46,6.38-4.64,9.82-2.65c3.44,2,4.61,6.42,2.63,9.88
				c-1.99,3.46-6.38,4.64-9.82,2.65C35.31-110.2,34.13-114.62,36.11-118.08z M79.39-96.25c-1.42,1.43-3.23,2.14-5.44,2.14
				c-1.06,0-2.06-0.19-2.99-0.57c-0.93-0.38-1.71-0.9-2.37-1.58c-0.65-0.67-1.16-1.48-1.54-2.41c-0.38-0.93-0.56-1.96-0.56-3.06
				c0-1.07,0.19-2.07,0.56-3.01c0.38-0.93,0.9-1.72,1.57-2.38c0.67-0.65,1.47-1.17,2.4-1.55c0.93-0.38,1.94-0.57,3.05-0.57
				c1.06,0,2.05,0.19,2.96,0.57c0.91,0.38,1.7,0.9,2.36,1.58c0.67,0.67,1.19,1.46,1.57,2.35c0.38,0.89,0.56,1.87,0.56,2.94
				C81.52-99.52,80.81-97.68,79.39-96.25z M81.05-129.39v15.35c-1.22-1.19-2.52-2.07-3.9-2.65c-1.38-0.58-3-0.86-4.85-0.86
				c-2.09,0-4.03,0.4-5.83,1.19c-1.8,0.79-3.34,1.89-4.65,3.3c-1.3,1.41-2.32,3.08-3.08,5.03c-0.75,1.94-1.12,4.04-1.12,6.31
				c0,2.34,0.37,4.48,1.09,6.43c0.73,1.94,1.76,3.62,3.08,5.03c1.32,1.41,2.89,2.51,4.7,3.3c1.82,0.79,3.81,1.19,5.97,1.19
				c2.05,0,3.78-0.33,5.18-0.98c1.4-0.65,2.69-1.72,3.88-3.18v3.15h8.4v-42.6H81.05z M28.04-121.08c0.2-0.44,0.43-0.88,0.67-1.3
				c4.34-7.57,13.97-10.16,21.5-5.79c7.53,4.37,10.1,14.05,5.76,21.62L44.61-86.77H34.36l6.85-11.93c-2.3-0.16-4.6-0.83-6.74-2.06
				c-2.94-1.71-5.12-4.22-6.43-7.1c-0.2,0.44-0.43,0.88-0.67,1.3L16.01-86.77H5.76l6.85-11.93c-2.3-0.16-4.6-0.83-6.74-2.06
				c-7.53-4.37-10.11-14.05-5.76-21.62c4.34-7.57,13.97-10.16,21.5-5.79C24.54-126.47,26.73-123.96,28.04-121.08z M100.69-104.77
				c0.35-1.66,1.11-2.94,2.27-3.83c1.16-0.89,2.61-1.33,4.34-1.33c1.73,0,3.2,0.48,4.4,1.43c1.2,0.95,1.96,2.19,2.27,3.74H100.69z
				 M121.64-107.68c-0.79-1.98-1.88-3.69-3.28-5.13c-1.39-1.44-3.05-2.58-4.96-3.41c-1.91-0.83-3.96-1.25-6.17-1.25
				c-2.12,0-4.12,0.42-5.99,1.25c-1.87,0.83-3.49,1.96-4.87,3.38c-1.38,1.42-2.47,3.11-3.28,5.05c-0.81,1.94-1.21,4.02-1.21,6.23
				c0,2.21,0.4,4.28,1.21,6.2c0.81,1.92,1.91,3.59,3.3,5.02c1.4,1.42,3.04,2.54,4.93,3.35c1.89,0.81,3.92,1.22,6.08,1.22
				c3.15,0,5.98-0.91,8.5-2.73c2.41-1.74,4.3-4.11,5.66-7.12h-9.2c-0.94,0.91-1.81,1.52-2.6,1.84c-0.79,0.32-1.73,0.48-2.83,0.48
				c-1.77,0-3.25-0.51-4.43-1.51c-1.18-1.01-1.87-2.35-2.06-4h22.13C123.05-101.83,122.77-104.83,121.64-107.68z M147.19-108.09
				c-0.43-5.81-4.95-9.32-11.34-9.32c-5.97,0-11.45,3.78-11.45,9.64c0,3.46,1.97,6.39,9.43,8.68c4.42,1.38,5.43,2.24,5.43,3.89
				c0,1.38-1.54,2.29-3.09,2.29c-1.76,0-3.09-0.85-3.36-2.72h-8.79c0.64,6.02,5.38,9.8,12.04,9.8c6.71,0,12.04-3.89,12.04-10.07
				c0-4.31-2.29-7.14-9.32-9c-4.1-1.07-5.54-1.86-5.54-3.46c0-1.12,1.07-1.97,2.56-1.97c1.44,0,2.66,0.53,2.72,2.24H147.19z
				 M154.88-119.58c2.93,0,5.3-2.39,5.3-5.33c0-2.94-2.37-5.33-5.3-5.33c-2.93,0-5.3,2.39-5.3,5.33
				C149.58-121.97,151.96-119.58,154.88-119.58z M159.31-86.79h-8.85v-29.68h8.85V-86.79z M176.22-110.77c2.69,0,4.87,2.19,4.87,4.9
				c0,2.7-2.18,4.9-4.87,4.9c-2.69,0-4.87-2.19-4.87-4.9C171.35-108.58,173.53-110.77,176.22-110.77z M182.38-80.68
				c-1.01,1.38-2.93,1.86-4.54,1.94c-1.89,0.09-4.45-0.34-5.74-1.89c-1.24-1.49-0.95-3.57,0.73-4.59c0.48-0.3,0.99-0.47,1.54-0.55
				h4.4c1.92,0,4.36,0.54,4.34,2.93C183.1-82.1,182.82-81.28,182.38-80.68z M173.79-92.61c-3.59-0.56-3.51-2-2.64-2.69
				c8.16,3.11,18.12-0.84,18.18-10.3c-0.02-3.47-1.25-5.68-2.2-6.7c0.75-1.43,1.6-2.15,3.44-2.59l-3.73-6.45
				c-3.36,0.29-5.58,2.36-6.59,4.5c-1.99-0.81-6.06-0.91-9.3,0.25c-1.56,0.55-3,1.35-4.25,2.45c-1.19,1.05-2.13,2.3-2.79,3.75
				c-0.7,1.51-1,3.13-1.01,4.78c0.02,2.26,0.73,4.94,2.04,6.77c-3.56,3.52-3.36,8.75,0.33,12.05c-0.39,0.3-0.75,0.63-1.08,0.99
				c-3.33,3.63-1.75,8.68,2.07,11.34c4.83,3.46,13.41,3.67,18.69,1.32c9.27-3.77,9.61-17.59-1.16-19.4
				C180.79-93.04,177.38-92.05,173.79-92.61z M192.76-86.79h8.85v-16.56c0-3.88,1.67-5.81,5.02-5.81c1.61,0,2.78,0.49,3.51,1.48
				c0.73,0.99,1.09,2.55,1.09,4.69v16.2h8.85v-18.58c0-1.19-0.05-2.23-0.15-3.12c-0.1-0.89-0.26-1.68-0.47-2.37
				c-0.22-0.69-0.51-1.33-0.88-1.9c-0.37-0.57-0.86-1.14-1.44-1.69c-0.94-0.95-2.1-1.69-3.48-2.23c-1.38-0.53-2.85-0.8-4.42-0.8
				c-1.89,0-3.45,0.33-4.69,0.98c-1.24,0.65-2.37,1.71-3.39,3.18v-3.15h-8.38V-86.79z M245.13-108.09
				c-0.43-5.81-4.95-9.32-11.34-9.32c-5.97,0-11.45,3.78-11.45,9.64c0,3.46,1.97,6.39,9.43,8.68c4.42,1.38,5.43,2.24,5.43,3.89
				c0,1.38-1.54,2.29-3.09,2.29c-1.76,0-3.09-0.85-3.36-2.72h-8.79c0.64,6.02,5.38,9.8,12.04,9.8c6.71,0,12.04-3.89,12.04-10.07
				c0-4.31-2.29-7.14-9.32-9c-4.1-1.07-5.54-1.86-5.54-3.46c0-1.12,1.07-1.97,2.56-1.97c1.44,0,2.66,0.53,2.72,2.24H245.13z"/>
		</defs>
		<clipPath id="SVGID_6_">
			<use xlink:href="#SVGID_5_"  style="overflow:visible;"/>
		</clipPath>
		<g class="st10">
			<defs>
				<rect id="SVGID_7_" x="-43.34" y="-270.44" width="330.71" height="330.71"/>
			</defs>
			<clipPath id="SVGID_8_">
				<use xlink:href="#SVGID_7_"  style="overflow:visible;"/>
			</clipPath>
			<rect x="-4.07" y="-132.36" class="st11" width="252.17" height="62.85"/>
		</g>
	</g>
	<g class="st6">
		<path class="st12" d="M2.99-27.17h6.98v3.07h-10.3v-16.8h3.31V-27.17z"/>
		<path class="st12" d="M24.33-30.2c0,3.77-2.74,6.36-6.41,6.36c-3.65,0-6.36-2.59-6.36-6.36c0-3.77,2.71-6.34,6.36-6.34
			C21.59-36.54,24.33-33.97,24.33-30.2z M14.78-30.2c0,1.99,1.3,3.5,3.17,3.5c1.9,0,3.14-1.51,3.14-3.5c0-2.02-1.25-3.5-3.14-3.5
			C16.07-33.7,14.78-32.21,14.78-30.2z"/>
		<path class="st12" d="M37.89-33.63h-1.8c0.14,0.43,0.24,0.91,0.24,1.42c0,2.45-1.99,4.22-4.8,4.22c-0.74,0-1.42-0.1-2.02-0.31
			c-0.17,0.22-0.29,0.5-0.29,0.89c0,0.62,0.46,1.01,1.22,1.01h2.86c2.5,0,3.98,1.2,3.98,3.5c0,2.74-2.14,4.22-5.38,4.22
			c-3.62,0-5.52-1.34-5.52-3.74c0-1.06,0.62-1.75,1.22-2.14c-0.74-0.5-1.42-1.44-1.42-2.62c0-1.15,0.53-1.97,1.25-2.57
			c-0.53-0.67-0.84-1.51-0.84-2.47c0-2.52,2.06-4.32,4.92-4.32c0.62,0,1.22,0.1,1.75,0.26h4.61V-33.63z M30.69-24.05
			c-0.7,0.1-1.25,0.58-1.25,1.39c0,1.1,0.98,1.66,2.5,1.66c1.42,0,2.3-0.58,2.3-1.7c0-0.91-0.67-1.34-1.73-1.34H30.69z M29.68-32.21
			c0,1.13,0.74,1.92,1.82,1.92s1.8-0.79,1.8-1.92c0-1.18-0.72-1.97-1.8-1.97C30.4-34.18,29.68-33.39,29.68-32.21z"/>
		<path class="st12" d="M51.76-30.2c0,3.77-2.74,6.36-6.41,6.36c-3.65,0-6.36-2.59-6.36-6.36c0-3.77,2.71-6.34,6.36-6.34
			C49.02-36.54,51.76-33.97,51.76-30.2z M42.21-30.2c0,1.99,1.3,3.5,3.17,3.5c1.9,0,3.14-1.51,3.14-3.5c0-2.02-1.25-3.5-3.14-3.5
			C43.5-33.7,42.21-32.21,42.21-30.2z"/>
		<path class="st12" d="M63.25-36.27h2.78v2.83h-2.81l-0.05,4.92c0,1.25,0.38,1.75,1.58,1.75c0.6,0,0.94-0.07,1.27-0.17v2.74
			c-0.38,0.14-1.01,0.26-1.97,0.26c-2.66,0-4.03-1.08-4.01-3.84l0.05-5.66h-1.99v-2.83h1.99l0.02-2.95h3.14L63.25-36.27z"/>
		<path class="st12" d="M79.58-30.2v0.96H71.1c0.1,1.61,1.22,2.74,2.93,2.74c1.2,0,2.11-0.5,2.45-1.42h3.02
			c-0.74,2.57-2.62,4.08-5.57,4.08c-3.6,0-6.05-2.5-6.05-6.34c0-3.67,2.42-6.36,6.05-6.36C77.15-36.54,79.58-34.52,79.58-30.2z
			 M71.13-31.4h5.3c-0.02-1.54-1.03-2.54-2.57-2.54C72.3-33.94,71.27-32.89,71.13-31.4z"/>
		<path class="st12" d="M99.42-32v7.9H96.3v-7.22c0-1.42-0.55-2.18-1.7-2.18c-1.15,0-2.09,0.91-2.14,2.83v6.58h-3.12v-7.22
			c0-1.42-0.58-2.18-1.7-2.18c-1.2,0-2.14,0.96-2.14,2.98v6.43h-3.1v-12.17h2.66l0.24,1.58c0.55-1.03,1.66-1.85,3.24-1.85
			c1.73,0,2.9,0.79,3.48,2.14c0.58-1.15,1.78-2.14,3.5-2.14C98.13-36.54,99.42-34.76,99.42-32z"/>
		<path class="st12" d="M115.29-30.2c0,3.58-2.4,6.36-5.66,6.36c-1.75,0-3.02-0.72-3.65-1.61v6.5h-3.12v-17.33h2.69l0.22,1.63
			c0.67-0.98,1.8-1.9,3.86-1.9C112.89-36.54,115.29-33.77,115.29-30.2z M105.9-30.25v0.14c0.02,2.14,1.56,3.34,3.07,3.34
			c1.7,0,3.07-1.34,3.07-3.43c0-2.09-1.34-3.41-3.07-3.41C107.44-33.61,105.9-32.43,105.9-30.25z"/>
		<path class="st12" d="M121.12-24.1H118v-17.52h3.12V-24.1z"/>
		<path class="st12" d="M134.03-32.09v7.99h-2.66l-0.19-1.49c-0.65,0.98-1.75,1.75-3.48,1.75c-2.16,0-3.7-1.32-3.7-3.5
			c0-2.38,1.61-3.29,3.77-3.65l3.14-0.58v-0.46c0-1.2-0.6-1.85-1.7-1.85c-1.03,0-1.82,0.62-1.82,1.61h-3.02
			c0.14-2.47,1.97-4.27,4.85-4.27S134.03-35.07,134.03-32.09z M128.49-28.97c-0.82,0.19-1.37,0.55-1.37,1.37
			c0,0.72,0.5,1.2,1.42,1.2c0.77,0,1.51-0.38,1.94-1.1c0.26-0.41,0.43-1.01,0.43-1.61v-0.36L128.49-28.97z"/>
		<path class="st12" d="M141.16-36.27h2.78v2.83h-2.81l-0.05,4.92c0,1.25,0.38,1.75,1.58,1.75c0.6,0,0.94-0.07,1.27-0.17v2.74
			c-0.38,0.14-1.01,0.26-1.97,0.26c-2.66,0-4.03-1.08-4.01-3.84l0.05-5.66h-1.99v-2.83h1.99l0.02-2.95h3.14L141.16-36.27z"/>
		<path class="st12" d="M157.48-30.2v0.96h-8.47c0.1,1.61,1.22,2.74,2.93,2.74c1.2,0,2.11-0.5,2.45-1.42h3.02
			c-0.74,2.57-2.62,4.08-5.57,4.08c-3.6,0-6.05-2.5-6.05-6.34c0-3.67,2.42-6.36,6.05-6.36C155.05-36.54,157.48-34.52,157.48-30.2z
			 M149.03-31.4h5.3c-0.02-1.54-1.03-2.54-2.57-2.54C150.21-33.94,149.17-32.89,149.03-31.4z"/>
		<path class="st13" d="M170.56-40.42c-2.02,2.66-3,4.99-3,8.62c0,3.62,0.98,5.95,3,8.62l-2.21,1.49c-2.21-2.71-3.74-5.69-3.74-10.1
			s1.54-7.39,3.74-10.1L170.56-40.42z"/>
		<path class="st13" d="M178.55-24.1h-3.31v-11.64h-3.53v-2.78c2.59,0,3.98-0.58,4.42-2.38h2.42V-24.1z"/>
		<path class="st13" d="M193.29-32.53c0,5.38-2.14,8.74-5.98,8.74s-5.95-3.36-5.95-8.74c0-5.35,2.11-8.69,5.95-8.69
			S193.29-37.88,193.29-32.53z M184.69-32.53c0,3.55,0.86,5.66,2.62,5.66c1.75,0,2.62-2.11,2.62-5.66c0-3.53-0.86-5.62-2.62-5.62
			C185.56-38.14,184.69-36.06,184.69-32.53z"/>
		<path class="st13" d="M207.25-32.53c0,5.38-2.14,8.74-5.98,8.74s-5.95-3.36-5.95-8.74c0-5.35,2.11-8.69,5.95-8.69
			S207.25-37.88,207.25-32.53z M198.66-32.53c0,3.55,0.86,5.66,2.62,5.66c1.75,0,2.62-2.11,2.62-5.66c0-3.53-0.86-5.62-2.62-5.62
			C199.52-38.14,198.66-36.06,198.66-32.53z"/>
		<path class="st13" d="M221.22-32.53c0,5.38-2.14,8.74-5.98,8.74s-5.95-3.36-5.95-8.74c0-5.35,2.11-8.69,5.95-8.69
			S221.22-37.88,221.22-32.53z M212.63-32.53c0,3.55,0.86,5.66,2.62,5.66c1.75,0,2.62-2.11,2.62-5.66c0-3.53-0.86-5.62-2.62-5.62
			C213.49-38.14,212.63-36.06,212.63-32.53z"/>
		<path class="st13" d="M238-32.62l5.67,8.52h-3.89l-4.03-6.07l-4.03,6.07h-3.86l5.64-8.52l-5.5-8.28h3.89l3.86,5.83l3.86-5.83h3.89
			L238-32.62z"/>
		<path class="st13" d="M256.96-24.1h-3.31v-11.64h-3.53v-2.78c2.59,0,3.98-0.58,4.42-2.38h2.42V-24.1z"/>
		<path class="st13" d="M271.69-32.53c0,5.38-2.14,8.74-5.98,8.74c-3.84,0-5.95-3.36-5.95-8.74c0-5.35,2.11-8.69,5.95-8.69
			C269.56-41.22,271.69-37.88,271.69-32.53z M263.1-32.53c0,3.55,0.86,5.66,2.62,5.66c1.75,0,2.62-2.11,2.62-5.66
			c0-3.53-0.86-5.62-2.62-5.62C263.96-38.14,263.1-36.06,263.1-32.53z"/>
		<path class="st13" d="M285.66-32.53c0,5.38-2.14,8.74-5.98,8.74c-3.84,0-5.95-3.36-5.95-8.74c0-5.35,2.11-8.69,5.95-8.69
			C283.52-41.22,285.66-37.88,285.66-32.53z M277.07-32.53c0,3.55,0.86,5.66,2.62,5.66c1.75,0,2.62-2.11,2.62-5.66
			c0-3.53-0.86-5.62-2.62-5.62C277.93-38.14,277.07-36.06,277.07-32.53z"/>
		<path class="st13" d="M299.63-32.53c0,5.38-2.14,8.74-5.98,8.74c-3.84,0-5.95-3.36-5.95-8.74c0-5.35,2.11-8.69,5.95-8.69
			C297.49-41.22,299.63-37.88,299.63-32.53z M291.03-32.53c0,3.55,0.86,5.66,2.62,5.66c1.75,0,2.62-2.11,2.62-5.66
			c0-3.53-0.86-5.62-2.62-5.62C291.9-38.14,291.03-36.06,291.03-32.53z"/>
		<path class="st13" d="M314.92-30.2c0,3.58-2.4,6.36-5.66,6.36c-1.75,0-3.02-0.72-3.65-1.61v6.5h-3.12v-17.33h2.69l0.22,1.63
			c0.67-0.98,1.8-1.9,3.86-1.9C312.51-36.54,314.92-33.77,314.92-30.2z M305.53-30.25v0.14c0.02,2.14,1.56,3.34,3.07,3.34
			c1.7,0,3.07-1.34,3.07-3.43c0-2.09-1.34-3.41-3.07-3.41C307.07-33.61,305.53-32.43,305.53-30.25z"/>
		<path class="st13" d="M324.01-30.29l3.84,6.19h-3.62l-2.38-3.84l-2.35,3.84h-3.62l3.82-6.19l-3.67-5.98h3.63l2.21,3.55l2.23-3.55
			h3.62L324.01-30.29z"/>
		<path class="st13" d="M334.64-31.81c0,4.42-1.56,7.39-3.77,10.1l-2.18-1.49c1.99-2.66,2.98-4.99,2.98-8.62
			c0-3.62-0.98-5.95-2.98-8.62l2.18-1.49C333.08-39.2,334.64-36.22,334.64-31.81z"/>
	</g>
	<g class="st6">
		<path class="st13" d="M1.6,30.21h4.45v1.3H1.6V30.21z"/>
		<path class="st13" d="M14.83,31.42v4.67h-1.49V23.85h3.68c2.37,0,4.21,1.12,4.21,3.76c0,2.59-1.82,3.81-4.34,3.81H14.83z
			 M16.9,30.22c1.78,0,2.8-0.86,2.8-2.61c0-1.82-1.02-2.56-2.75-2.56h-2.11v5.17H16.9z"/>
		<path class="st13" d="M23.33,23.48h1.44V36.1h-1.44V23.48z"/>
		<path class="st13" d="M27.52,29.97c0.03-1.49,1.17-2.51,3.19-2.51c2.1,0,3.12,0.88,3.12,3.14v3.44c0,0.67,0.14,0.94,0.77,0.96
			v1.17h-0.18c-1.34,0-1.79-0.48-1.94-1.49h-0.03c-0.45,0.99-1.46,1.57-2.71,1.57c-1.68,0-2.67-0.91-2.67-2.42
			c0-0.93,0.4-1.7,1.26-2.13c0.88-0.46,2.19-0.62,4.08-0.69v-0.37c0-1.52-0.58-2.11-1.76-2.11c-1.25,0-1.71,0.72-1.76,1.44H27.52z
			 M32.42,32.27v-0.19c-1.82,0.08-2.86,0.22-3.41,0.62c-0.32,0.24-0.46,0.59-0.46,1.04c0,0.86,0.56,1.33,1.47,1.33
			C31.09,35.07,32.42,34.35,32.42,32.27z"/>
		<path class="st13" d="M41.89,30.21c-0.1-0.86-0.7-1.65-1.92-1.65c-1.52,0-2.32,1.33-2.32,3.3c0,1.95,0.59,3.31,2.29,3.31
			c1.6,0,2.02-1.18,2.07-1.82h1.34c-0.21,1.95-1.6,2.95-3.42,2.95c-2.43,0-3.75-1.7-3.75-4.37c0-2.58,1.41-4.47,3.78-4.47
			c1.68,0,3.2,0.77,3.34,2.75H41.89z"/>
		<path class="st13" d="M48.8,36.3c-2.58,0-3.81-1.87-3.81-4.39c0-2.5,1.34-4.47,3.76-4.47c2.53,0,3.52,1.95,3.52,4.08v0.74h-5.81
			c0.1,1.74,0.8,2.93,2.39,2.93c1.41,0,1.78-0.82,1.92-1.31h1.39C51.86,35.34,50.61,36.3,48.8,36.3z M50.8,31.04
			c-0.03-1.41-0.59-2.5-2.06-2.5c-1.34,0-2.08,1.06-2.26,2.59h4.32V31.04z"/>
		<path class="st13" d="M58.32,27.66h1.44l1.76,5.28c0.27,0.8,0.42,1.31,0.42,1.31h0.05c0,0,0.14-0.51,0.42-1.33l1.73-5.27h1.44
			l-3.07,8.96c-0.67,1.94-1.23,2.66-3.06,2.66c-0.32,0-0.64-0.05-0.86-0.1V38c0.27,0.06,0.59,0.08,0.74,0.08
			c1.07,0,1.42-0.4,1.79-1.54l0.16-0.45L58.32,27.66z"/>
		<path class="st13" d="M66.86,31.87c0-2.61,1.44-4.42,3.79-4.42c2.51,0,3.76,1.81,3.76,4.42c0,2.64-1.42,4.43-3.79,4.43
			C68.14,36.3,66.86,34.51,66.86,31.87z M68.35,31.87c0,2.06,0.69,3.31,2.32,3.31c1.57,0,2.26-1.25,2.26-3.31
			c0-2.05-0.67-3.31-2.29-3.31C69.1,28.56,68.35,29.82,68.35,31.87z"/>
		<path class="st13" d="M78.24,32.85c0,0.61,0,1.31,0.3,1.71c0.29,0.38,0.74,0.56,1.3,0.56c1.57,0,2.3-1.04,2.3-2.9v-4.56h1.44v8.44
			h-1.38v-1.44h-0.03c-0.38,0.86-1.31,1.65-2.66,1.65c-1.62,0-2.71-0.78-2.71-2.77v-5.87h1.42V32.85z"/>
		<path class="st13" d="M86.74,27.66h1.36v1.58h0.03c0.38-0.88,1.44-1.75,2.67-1.75h0.14V29h-0.27c-1.5,0-2.5,0.86-2.5,2.5v4.59
			h-1.44V27.66z"/>
		<path class="st13" d="M97.66,23.48h1.44V36.1h-1.44V23.48z"/>
		<path class="st13" d="M101.5,31.87c0-2.61,1.44-4.42,3.79-4.42c2.51,0,3.76,1.81,3.76,4.42c0,2.64-1.42,4.43-3.79,4.43
			C102.78,36.3,101.5,34.51,101.5,31.87z M102.99,31.87c0,2.06,0.69,3.31,2.32,3.31c1.57,0,2.26-1.25,2.26-3.31
			c0-2.05-0.67-3.31-2.29-3.31C103.74,28.56,102.99,29.82,102.99,31.87z"/>
		<path class="st13" d="M111.1,36.94h1.39c0.16,0.72,0.71,1.18,2.08,1.18c1.6,0,2.4-0.59,2.4-2.45v-1.25h-0.02
			c-0.43,0.83-1.42,1.55-2.69,1.55c-1.76,0-3.38-1.1-3.38-4.23c0-2.79,1.47-4.31,3.55-4.31c1.36,0,2.18,0.75,2.53,1.54h0.03v-1.33
			h1.38v8.23c0,2.37-1.55,3.39-3.84,3.39C112.94,39.28,111.29,38.69,111.1,36.94z M117.01,31.42c0-1.68-0.94-2.83-2.4-2.83
			c-1.52,0-2.24,1.26-2.24,3.17c0,1.86,0.53,3.14,2.31,3.14c1.36,0,2.34-1.18,2.34-2.63V31.42z"/>
		<path class="st13" d="M120.8,31.87c0-2.61,1.44-4.42,3.79-4.42c2.51,0,3.76,1.81,3.76,4.42c0,2.64-1.42,4.43-3.79,4.43
			C122.08,36.3,120.8,34.51,120.8,31.87z M122.29,31.87c0,2.06,0.69,3.31,2.32,3.31c1.57,0,2.26-1.25,2.26-3.31
			c0-2.05-0.67-3.31-2.29-3.31C123.04,28.56,122.29,29.82,122.29,31.87z"/>
		<path class="st13" d="M134.22,27.66h1.47l1.63,5.68c0.14,0.53,0.27,1.07,0.27,1.07h0.03c0,0,0.16-0.56,0.32-1.06l1.79-5.7h1.47
			l1.78,5.7c0.16,0.5,0.3,1.06,0.3,1.06h0.03c0,0,0.13-0.56,0.27-1.06l1.67-5.7h1.39l-2.61,8.44h-1.52l-1.54-4.96
			c-0.24-0.78-0.53-1.79-0.53-1.79h-0.02c0,0-0.29,1.02-0.53,1.79l-1.55,4.96h-1.52L134.22,27.66z"/>
		<path class="st13" d="M148.72,24.19h1.52v1.55h-1.52V24.19z M148.75,27.66h1.46v8.44h-1.46V27.66z"/>
		<path class="st13" d="M155.15,25.21v2.45h2.08v1.1h-2.08v4.98c0,0.9,0.37,1.25,1.28,1.25c0.43,0,0.93-0.08,0.93-0.08v1.22
			c0,0-0.59,0.1-1.33,0.1c-1.65,0-2.31-0.8-2.31-2.24v-5.22h-1.54v-1.06h0.26c1.14,0,1.39-0.27,1.39-1.89v-0.61H155.15z"/>
		<path class="st13" d="M164.7,30.88c0-0.61,0-1.26-0.3-1.66c-0.29-0.4-0.77-0.56-1.33-0.56c-1.57,0-2.29,1.01-2.29,2.38v5.06h-1.44
			V23.48h1.44v5.57h0.03c0.37-0.82,1.26-1.6,2.64-1.6c1.62,0,2.69,0.77,2.69,2.77v5.87h-1.44V30.88z"/>
		<path class="st13" d="M169.2,24.19h1.52v1.55h-1.52V24.19z M169.23,27.66h1.46v8.44h-1.46V27.66z"/>
		<path class="st13" d="M179.22,30.89c0-0.61,0-1.28-0.3-1.68c-0.29-0.4-0.77-0.56-1.33-0.56c-1.57,0-2.29,1.01-2.29,2.38v5.06
			h-1.44v-8.44h1.36v1.42h0.03c0.4-0.86,1.38-1.63,2.72-1.63c1.62,0,2.69,0.77,2.69,2.77v5.87h-1.44V30.89z"/>
		<path class="st13" d="M190.03,25.21v2.45h2.08v1.1h-2.08v4.98c0,0.9,0.37,1.25,1.28,1.25c0.43,0,0.93-0.08,0.93-0.08v1.22
			c0,0-0.59,0.1-1.33,0.1c-1.65,0-2.31-0.8-2.31-2.24v-5.22h-1.54v-1.06h0.26c1.14,0,1.39-0.27,1.39-1.89v-0.61H190.03z"/>
		<path class="st13" d="M199.58,30.88c0-0.61,0-1.26-0.3-1.66c-0.29-0.4-0.77-0.56-1.33-0.56c-1.57,0-2.29,1.01-2.29,2.38v5.06
			h-1.44V23.48h1.44v5.57h0.03c0.37-0.82,1.26-1.6,2.64-1.6c1.62,0,2.69,0.77,2.69,2.77v5.87h-1.44V30.88z"/>
		<path class="st13" d="M207.17,36.3c-2.58,0-3.81-1.87-3.81-4.39c0-2.5,1.34-4.47,3.76-4.47c2.53,0,3.52,1.95,3.52,4.08v0.74h-5.81
			c0.1,1.74,0.8,2.93,2.38,2.93c1.41,0,1.78-0.82,1.92-1.31h1.39C210.22,35.34,208.97,36.3,207.17,36.3z M209.17,31.04
			c-0.03-1.41-0.59-2.5-2.06-2.5c-1.34,0-2.08,1.06-2.26,2.59h4.32V31.04z"/>
		<path class="st13" d="M222.54,30.21c-0.1-0.86-0.7-1.65-1.92-1.65c-1.52,0-2.32,1.33-2.32,3.3c0,1.95,0.59,3.31,2.29,3.31
			c1.6,0,2.02-1.18,2.07-1.82H224c-0.21,1.95-1.6,2.95-3.42,2.95c-2.43,0-3.75-1.7-3.75-4.37c0-2.58,1.41-4.47,3.78-4.47
			c1.68,0,3.2,0.77,3.34,2.75H222.54z"/>
		<path class="st13" d="M226.32,27.66h1.36v1.58h0.03c0.38-0.88,1.44-1.75,2.67-1.75h0.14V29h-0.27c-1.5,0-2.5,0.86-2.5,2.5v4.59
			h-1.44V27.66z"/>
		<path class="st13" d="M231.82,31.87c0-2.61,1.44-4.42,3.79-4.42c2.51,0,3.76,1.81,3.76,4.42c0,2.64-1.42,4.43-3.79,4.43
			C233.1,36.3,231.82,34.51,231.82,31.87z M233.31,31.87c0,2.06,0.69,3.31,2.32,3.31c1.57,0,2.26-1.25,2.26-3.31
			c0-2.05-0.67-3.31-2.29-3.31C234.06,28.56,233.31,29.82,233.31,31.87z"/>
		<path class="st13" d="M241.8,27.66h1.39v1.41h0.03c0.5-0.9,1.41-1.62,2.69-1.62c1.79,0,3.39,1.1,3.39,4.31
			c0,3.07-1.58,4.55-3.49,4.55c-1.23,0-2.23-0.69-2.54-1.44h-0.03v4.24h-1.44V27.66z M245.61,35.17c1.5,0,2.24-1.2,2.24-3.41
			c0-1.79-0.53-3.15-2.26-3.15c-1.49,0-2.4,1.26-2.4,2.69v0.9C243.2,33.85,244.01,35.17,245.61,35.17z"/>
		<path class="st13" d="M251.74,27.66h1.39v1.41h0.03c0.5-0.9,1.41-1.62,2.69-1.62c1.79,0,3.39,1.1,3.39,4.31
			c0,3.07-1.58,4.55-3.49,4.55c-1.23,0-2.23-0.69-2.54-1.44h-0.03v4.24h-1.44V27.66z M255.55,35.17c1.5,0,2.24-1.2,2.24-3.41
			c0-1.79-0.53-3.15-2.26-3.15c-1.49,0-2.4,1.26-2.4,2.69v0.9C253.13,33.85,253.95,35.17,255.55,35.17z"/>
		<path class="st13" d="M261.64,24.19h1.52v1.55h-1.52V24.19z M261.68,27.66h1.46v8.44h-1.46V27.66z"/>
		<path class="st13" d="M271.66,30.89c0-0.61,0-1.28-0.3-1.68c-0.29-0.4-0.77-0.56-1.33-0.56c-1.57,0-2.29,1.01-2.29,2.38v5.06
			h-1.44v-8.44h1.36v1.42h0.03c0.4-0.86,1.38-1.63,2.72-1.63c1.62,0,2.69,0.77,2.69,2.77v5.87h-1.44V30.89z"/>
		<path class="st13" d="M275.64,36.94h1.39c0.16,0.72,0.71,1.18,2.08,1.18c1.6,0,2.4-0.59,2.4-2.45v-1.25h-0.02
			c-0.43,0.83-1.42,1.55-2.69,1.55c-1.76,0-3.38-1.1-3.38-4.23c0-2.79,1.47-4.31,3.55-4.31c1.36,0,2.18,0.75,2.53,1.54h0.03v-1.33
			h1.38v8.23c0,2.37-1.55,3.39-3.84,3.39C277.48,39.28,275.83,38.69,275.64,36.94z M281.55,31.42c0-1.68-0.94-2.83-2.4-2.83
			c-1.52,0-2.24,1.26-2.24,3.17c0,1.86,0.53,3.14,2.31,3.14c1.36,0,2.34-1.18,2.34-2.63V31.42z"/>
		<path class="st13" d="M290.06,36.94h1.39c0.16,0.72,0.71,1.18,2.08,1.18c1.6,0,2.4-0.59,2.4-2.45v-1.25h-0.02
			c-0.43,0.83-1.42,1.55-2.69,1.55c-1.76,0-3.38-1.1-3.38-4.23c0-2.79,1.47-4.31,3.55-4.31c1.36,0,2.18,0.75,2.53,1.54h0.03v-1.33
			h1.38v8.23c0,2.37-1.55,3.39-3.84,3.39C291.9,39.28,290.25,38.69,290.06,36.94z M295.96,31.42c0-1.68-0.94-2.83-2.4-2.83
			c-1.52,0-2.24,1.26-2.24,3.17c0,1.86,0.53,3.14,2.31,3.14c1.36,0,2.34-1.18,2.34-2.63V31.42z"/>
		<path class="st13" d="M301.82,32.85c0,0.61,0,1.31,0.3,1.71c0.29,0.38,0.74,0.56,1.3,0.56c1.57,0,2.3-1.04,2.3-2.9v-4.56h1.44
			v8.44h-1.38v-1.44h-0.03c-0.38,0.86-1.31,1.65-2.66,1.65c-1.62,0-2.71-0.78-2.71-2.77v-5.87h1.42V32.85z"/>
		<path class="st13" d="M310.28,24.19h1.52v1.55h-1.52V24.19z M310.31,27.66h1.46v8.44h-1.46V27.66z"/>
		<path class="st13" d="M321.71,36.1h-1.38V34.7h-0.05c-0.45,0.83-1.36,1.6-2.66,1.6c-1.79,0-3.44-1.12-3.44-4.37
			c0-2.9,1.5-4.48,3.63-4.48c1.26,0,2.08,0.7,2.42,1.49h0.03v-5.46h1.44V36.1z M320.3,31.55c0-1.79-0.94-2.95-2.29-2.95
			c-1.62,0-2.35,1.28-2.35,3.27c0,1.9,0.56,3.3,2.24,3.3c1.49,0,2.4-1.18,2.4-2.72V31.55z"/>
		<path class="st13" d="M327.93,36.3c-2.58,0-3.81-1.87-3.81-4.39c0-2.5,1.34-4.47,3.76-4.47c2.53,0,3.52,1.95,3.52,4.08v0.74h-5.81
			c0.1,1.74,0.8,2.93,2.38,2.93c1.41,0,1.78-0.82,1.92-1.31h1.39C330.99,35.34,329.74,36.3,327.93,36.3z M329.93,31.04
			c-0.03-1.41-0.59-2.5-2.06-2.5c-1.34,0-2.08,1.06-2.26,2.59h4.32V31.04z"/>
		<path class="st13" d="M338,29.77c-0.08-0.75-0.69-1.23-1.68-1.23s-1.65,0.58-1.65,1.36c0,0.69,0.42,1.01,1.26,1.15l1.3,0.19
			c1.76,0.27,2.4,0.99,2.4,2.45c0,1.7-1.38,2.61-3.3,2.61c-1.75,0-3.19-0.78-3.3-2.59h1.41c0.06,0.66,0.43,1.49,1.92,1.49
			c1.15,0,1.87-0.54,1.87-1.42c0-0.67-0.18-1.04-1.33-1.23l-1.3-0.19c-1.5-0.24-2.3-0.86-2.3-2.34c0-1.49,1.14-2.56,3.06-2.56
			c1.83,0,2.87,0.85,3.01,2.32H338z"/>
		<path class="st13" d="M341.55,34.14h1.95v1.95h-1.95V34.14z"/>
		<path class="st13" d="M1.6,60.21h4.45v1.3H1.6V60.21z"/>
		<path class="st13" d="M18.24,53.67c2.98,0,5.52,1.95,5.52,6.34c0,4.37-2.53,6.34-5.52,6.34c-3.01,0-5.47-1.97-5.47-6.34
			C12.77,55.63,15.33,53.67,18.24,53.67z M22.2,60.03c0-3.36-1.6-5.17-3.95-5.17c-2.29,0-3.91,1.71-3.91,5.17
			c0,3.35,1.57,5.12,3.91,5.12C20.55,65.15,22.2,63.33,22.2,60.03z"/>
		<path class="st13" d="M27.91,62.85c0,0.61,0,1.31,0.3,1.71c0.29,0.38,0.74,0.56,1.3,0.56c1.57,0,2.3-1.04,2.3-2.9v-4.56h1.44v8.44
			h-1.38v-1.44h-0.03c-0.38,0.86-1.31,1.65-2.66,1.65c-1.62,0-2.71-0.78-2.71-2.77v-5.88h1.42V62.85z"/>
		<path class="st13" d="M38.18,55.21v2.45h2.08v1.1h-2.08v4.98c0,0.9,0.37,1.25,1.28,1.25c0.43,0,0.93-0.08,0.93-0.08v1.22
			c0,0-0.59,0.1-1.33,0.1c-1.65,0-2.31-0.8-2.31-2.24v-5.22h-1.54v-1.06h0.26c1.14,0,1.39-0.27,1.39-1.89v-0.61H38.18z"/>
		<path class="st13" d="M42.37,53.48h1.44V66.1h-1.44V53.48z"/>
		<path class="st13" d="M46.93,54.19h1.52v1.55h-1.52V54.19z M46.96,57.66h1.46v8.44h-1.46V57.66z"/>
		<path class="st13" d="M56.95,60.89c0-0.61,0-1.28-0.3-1.68c-0.29-0.4-0.77-0.56-1.33-0.56c-1.57,0-2.29,1.01-2.29,2.39v5.06h-1.44
			v-8.44h1.36v1.42h0.03c0.4-0.86,1.38-1.63,2.72-1.63c1.62,0,2.69,0.77,2.69,2.77v5.87h-1.44V60.89z"/>
		<path class="st13" d="M64.53,66.3c-2.58,0-3.81-1.87-3.81-4.39c0-2.5,1.34-4.47,3.76-4.47c2.53,0,3.52,1.95,3.52,4.08v0.74h-5.81
			c0.1,1.74,0.8,2.93,2.39,2.93c1.41,0,1.78-0.82,1.92-1.31h1.39C67.59,65.34,66.34,66.3,64.53,66.3z M66.53,61.04
			c-0.03-1.41-0.59-2.5-2.06-2.5c-1.34,0-2.08,1.06-2.26,2.59h4.32V61.04z"/>
		<path class="st13" d="M74.62,59.96c0.03-1.49,1.17-2.51,3.19-2.51c2.1,0,3.12,0.88,3.12,3.14v3.44c0,0.67,0.14,0.94,0.77,0.96
			v1.17h-0.18c-1.34,0-1.79-0.48-1.94-1.49h-0.03c-0.45,0.99-1.46,1.57-2.71,1.57c-1.68,0-2.67-0.91-2.67-2.42
			c0-0.93,0.4-1.7,1.26-2.13c0.88-0.46,2.19-0.63,4.08-0.69v-0.37c0-1.52-0.58-2.11-1.76-2.11c-1.25,0-1.71,0.72-1.76,1.44H74.62z
			 M79.52,62.27v-0.19c-1.82,0.08-2.86,0.22-3.41,0.62c-0.32,0.24-0.46,0.59-0.46,1.04c0,0.86,0.56,1.33,1.47,1.33
			C78.19,65.07,79.52,64.35,79.52,62.27z"/>
		<path class="st13" d="M83.95,53.48h1.44V66.1h-1.44V53.48z"/>
		<path class="st13" d="M88.54,53.48h1.44V66.1h-1.44V53.48z"/>
		<path class="st13" d="M99.42,66.1h-1.44v-7.33h-1.54v-1.1h1.54v-1.89c0-1.73,0.99-2.34,2.56-2.34c0.32,0,0.64,0.03,0.9,0.08v1.18
			c-0.16-0.03-0.42-0.06-0.78-0.06c-0.83,0-1.23,0.3-1.23,1.31v1.71h2.02v1.1h-2.02V66.1z"/>
		<path class="st13" d="M102.62,61.87c0-2.61,1.44-4.42,3.79-4.42c2.51,0,3.76,1.81,3.76,4.42c0,2.64-1.42,4.43-3.79,4.43
			C103.9,66.3,102.62,64.51,102.62,61.87z M104.11,61.87c0,2.06,0.69,3.31,2.32,3.31c1.57,0,2.26-1.25,2.26-3.31
			c0-2.05-0.67-3.31-2.29-3.31C104.86,58.56,104.11,59.82,104.11,61.87z"/>
		<path class="st13" d="M117.97,60.89c0-0.61,0-1.28-0.3-1.68c-0.29-0.4-0.77-0.56-1.33-0.56c-1.57,0-2.29,1.01-2.29,2.39v5.06
			h-1.44v-8.44h1.36v1.42H114c0.4-0.86,1.38-1.63,2.72-1.63c1.62,0,2.69,0.77,2.69,2.77v5.87h-1.44V60.89z"/>
		<path class="st13" d="M124.27,55.21v2.45h2.08v1.1h-2.08v4.98c0,0.9,0.37,1.25,1.28,1.25c0.43,0,0.93-0.08,0.93-0.08v1.22
			c0,0-0.59,0.1-1.33,0.1c-1.65,0-2.31-0.8-2.31-2.24v-5.22h-1.54v-1.06h0.26c1.14,0,1.39-0.27,1.39-1.89v-0.61H124.27z"/>
		<path class="st13" d="M132.7,59.77c-0.08-0.75-0.69-1.23-1.68-1.23s-1.65,0.58-1.65,1.36c0,0.69,0.42,1.01,1.26,1.15l1.3,0.19
			c1.76,0.27,2.4,0.99,2.4,2.45c0,1.7-1.38,2.61-3.3,2.61c-1.75,0-3.19-0.78-3.3-2.59h1.41c0.06,0.66,0.43,1.49,1.92,1.49
			c1.15,0,1.87-0.54,1.87-1.42c0-0.67-0.18-1.04-1.33-1.23l-1.3-0.19c-1.5-0.24-2.3-0.86-2.3-2.34c0-1.49,1.14-2.56,3.06-2.56
			c1.83,0,2.87,0.85,3.01,2.32H132.7z"/>
		<path class="st13" d="M142.65,62.85c0,0.61,0,1.31,0.3,1.71c0.29,0.38,0.74,0.56,1.3,0.56c1.57,0,2.3-1.04,2.3-2.9v-4.56H148v8.44
			h-1.38v-1.44h-0.03c-0.38,0.86-1.31,1.65-2.66,1.65c-1.62,0-2.71-0.78-2.71-2.77v-5.88h1.42V62.85z"/>
		<path class="st13" d="M155.31,59.77c-0.08-0.75-0.69-1.23-1.68-1.23s-1.65,0.58-1.65,1.36c0,0.69,0.42,1.01,1.26,1.15l1.3,0.19
			c1.76,0.27,2.4,0.99,2.4,2.45c0,1.7-1.38,2.61-3.3,2.61c-1.75,0-3.19-0.78-3.3-2.59h1.41c0.06,0.66,0.43,1.49,1.92,1.49
			c1.15,0,1.87-0.54,1.87-1.42c0-0.67-0.18-1.04-1.33-1.23l-1.3-0.19c-1.5-0.24-2.3-0.86-2.3-2.34c0-1.49,1.14-2.56,3.06-2.56
			c1.83,0,2.87,0.85,3.01,2.32H155.31z"/>
		<path class="st13" d="M162.49,66.3c-2.58,0-3.81-1.87-3.81-4.39c0-2.5,1.34-4.47,3.76-4.47c2.53,0,3.52,1.95,3.52,4.08v0.74h-5.81
			c0.1,1.74,0.8,2.93,2.39,2.93c1.41,0,1.78-0.82,1.92-1.31h1.39C165.55,65.34,164.3,66.3,162.49,66.3z M164.5,61.04
			c-0.03-1.41-0.59-2.5-2.06-2.5c-1.34,0-2.08,1.06-2.26,2.59h4.32V61.04z"/>
		<path class="st13" d="M175.25,66.1h-1.38V64.7h-0.05c-0.45,0.83-1.36,1.6-2.66,1.6c-1.79,0-3.44-1.12-3.44-4.37
			c0-2.9,1.5-4.48,3.63-4.48c1.26,0,2.08,0.7,2.42,1.49h0.03v-5.46h1.44V66.1z M173.84,61.55c0-1.79-0.94-2.95-2.29-2.95
			c-1.62,0-2.35,1.28-2.35,3.27c0,1.9,0.56,3.3,2.24,3.3c1.49,0,2.4-1.18,2.4-2.72V61.55z"/>
		<path class="st13" d="M182.89,54.19h1.52v1.55h-1.52V54.19z M182.92,57.66h1.46v8.44h-1.46V57.66z"/>
		<path class="st13" d="M192.91,60.89c0-0.61,0-1.28-0.3-1.68c-0.29-0.4-0.77-0.56-1.33-0.56c-1.57,0-2.29,1.01-2.29,2.39v5.06
			h-1.44v-8.44h1.36v1.42h0.03c0.4-0.86,1.38-1.63,2.72-1.63c1.62,0,2.69,0.77,2.69,2.77v5.87h-1.44V60.89z"/>
		<path class="st13" d="M201.05,57.66h1.44l1.76,5.28c0.27,0.8,0.42,1.31,0.42,1.31h0.05c0,0,0.14-0.51,0.42-1.33l1.73-5.27h1.44
			l-3.07,8.96c-0.67,1.94-1.23,2.66-3.06,2.66c-0.32,0-0.64-0.05-0.86-0.1V68c0.27,0.06,0.59,0.08,0.74,0.08
			c1.07,0,1.42-0.4,1.79-1.54L204,66.1L201.05,57.66z"/>
		<path class="st13" d="M209.59,61.87c0-2.61,1.44-4.42,3.79-4.42c2.51,0,3.76,1.81,3.76,4.42c0,2.64-1.42,4.43-3.79,4.43
			C210.88,66.3,209.59,64.51,209.59,61.87z M211.08,61.87c0,2.06,0.69,3.31,2.32,3.31c1.57,0,2.26-1.25,2.26-3.31
			c0-2.05-0.67-3.31-2.29-3.31C211.84,58.56,211.08,59.82,211.08,61.87z"/>
		<path class="st13" d="M220.97,62.85c0,0.61,0,1.31,0.3,1.71c0.29,0.38,0.74,0.56,1.3,0.56c1.57,0,2.3-1.04,2.3-2.9v-4.56h1.44
			v8.44h-1.38v-1.44h-0.03c-0.38,0.86-1.31,1.65-2.66,1.65c-1.62,0-2.71-0.78-2.71-2.77v-5.88h1.42V62.85z"/>
		<path class="st13" d="M229.47,57.66h1.36v1.58h0.03c0.38-0.88,1.44-1.75,2.67-1.75h0.14V59h-0.27c-1.5,0-2.5,0.86-2.5,2.5v4.59
			h-1.44V57.66z"/>
		<path class="st13" d="M247.17,66.1h-1.38V64.7h-0.05c-0.45,0.83-1.36,1.6-2.66,1.6c-1.79,0-3.44-1.12-3.44-4.37
			c0-2.9,1.5-4.48,3.63-4.48c1.26,0,2.08,0.7,2.42,1.49h0.03v-5.46h1.44V66.1z M245.76,61.55c0-1.79-0.94-2.95-2.29-2.95
			c-1.62,0-2.35,1.28-2.35,3.27c0,1.9,0.56,3.3,2.24,3.3c1.49,0,2.4-1.18,2.4-2.72V61.55z"/>
		<path class="st13" d="M253.39,66.3c-2.58,0-3.81-1.87-3.81-4.39c0-2.5,1.34-4.47,3.76-4.47c2.53,0,3.52,1.95,3.52,4.08v0.74h-5.81
			c0.1,1.74,0.8,2.93,2.38,2.93c1.41,0,1.78-0.82,1.92-1.31h1.39C256.45,65.34,255.2,66.3,253.39,66.3z M255.39,61.04
			c-0.03-1.41-0.59-2.5-2.06-2.5c-1.34,0-2.08,1.06-2.26,2.59h4.32V61.04z"/>
		<path class="st13" d="M263.45,59.77c-0.08-0.75-0.69-1.23-1.68-1.23s-1.65,0.58-1.65,1.36c0,0.69,0.42,1.01,1.26,1.15l1.3,0.19
			c1.76,0.27,2.4,0.99,2.4,2.45c0,1.7-1.38,2.61-3.3,2.61c-1.75,0-3.19-0.78-3.3-2.59h1.41c0.06,0.66,0.43,1.49,1.92,1.49
			c1.15,0,1.87-0.54,1.87-1.42c0-0.67-0.18-1.04-1.33-1.23l-1.3-0.19c-1.5-0.24-2.3-0.86-2.3-2.34c0-1.49,1.14-2.56,3.06-2.56
			c1.83,0,2.87,0.85,3.01,2.32H263.45z"/>
		<path class="st13" d="M267.55,54.19h1.52v1.55h-1.52V54.19z M267.58,57.66h1.46v8.44h-1.46V57.66z"/>
		<path class="st13" d="M271.66,66.94h1.39c0.16,0.72,0.71,1.18,2.08,1.18c1.6,0,2.4-0.59,2.4-2.45v-1.25h-0.02
			c-0.43,0.83-1.42,1.55-2.69,1.55c-1.76,0-3.38-1.1-3.38-4.23c0-2.79,1.47-4.31,3.55-4.31c1.36,0,2.18,0.75,2.53,1.54h0.03v-1.33
			h1.38v8.23c0,2.37-1.55,3.39-3.84,3.39C273.5,69.28,271.85,68.69,271.66,66.94z M277.56,61.42c0-1.68-0.94-2.83-2.4-2.83
			c-1.52,0-2.24,1.26-2.24,3.17c0,1.86,0.53,3.14,2.31,3.14c1.36,0,2.34-1.18,2.34-2.63V61.42z"/>
		<path class="st13" d="M287.47,60.89c0-0.61,0-1.28-0.3-1.68c-0.29-0.4-0.77-0.56-1.33-0.56c-1.57,0-2.29,1.01-2.29,2.39v5.06
			h-1.44v-8.44h1.36v1.42h0.03c0.4-0.86,1.38-1.63,2.72-1.63c1.62,0,2.69,0.77,2.69,2.77v5.87h-1.44V60.89z"/>
		<path class="st13" d="M291.42,64.14h1.95v1.95h-1.95V64.14z"/>
		<path class="st13" d="M1.6,90.21h4.45v1.3H1.6V90.21z"/>
		<path class="st13" d="M13.35,83.85h7.83v1.33h-6.34v4.08h5.83v1.3h-5.83v4.21h6.42v1.33h-7.91V83.85z"/>
		<path class="st13" d="M25.86,91.74l-2.67-4.08h1.7l1.84,2.95h0.03l1.89-2.95h1.57l-2.66,4l2.93,4.43h-1.71l-2.1-3.3h-0.05
			l-2.08,3.3h-1.57L25.86,91.74z"/>
		<path class="st13" d="M32.37,87.66h1.39v1.41h0.03c0.5-0.9,1.41-1.62,2.69-1.62c1.79,0,3.39,1.1,3.39,4.31
			c0,3.07-1.58,4.55-3.49,4.55c-1.23,0-2.23-0.69-2.54-1.44h-0.03v4.24h-1.44V87.66z M36.18,95.17c1.5,0,2.24-1.2,2.24-3.41
			c0-1.79-0.53-3.15-2.26-3.15c-1.49,0-2.4,1.26-2.4,2.69v0.9C33.76,93.85,34.58,95.17,36.18,95.17z"/>
		<path class="st13" d="M41.71,91.87c0-2.61,1.44-4.42,3.79-4.42c2.51,0,3.76,1.81,3.76,4.42c0,2.64-1.42,4.43-3.79,4.43
			C42.99,96.3,41.71,94.51,41.71,91.87z M43.2,91.87c0,2.06,0.69,3.31,2.32,3.31c1.57,0,2.26-1.25,2.26-3.31
			c0-2.05-0.67-3.31-2.29-3.31C43.95,88.56,43.2,89.82,43.2,91.87z"/>
		<path class="st13" d="M51.7,87.66h1.36v1.58h0.03c0.38-0.88,1.44-1.75,2.67-1.75h0.14V89h-0.27c-1.5,0-2.5,0.86-2.5,2.5v4.59H51.7
			V87.66z"/>
		<path class="st13" d="M60.13,85.21v2.45h2.08v1.1h-2.08v4.98c0,0.9,0.37,1.25,1.28,1.25c0.43,0,0.93-0.08,0.93-0.08v1.22
			c0,0-0.59,0.1-1.33,0.1c-1.65,0-2.31-0.8-2.31-2.24v-5.22h-1.54v-1.06h0.26c1.14,0,1.39-0.27,1.39-1.89v-0.61H60.13z"/>
		<path class="st13" d="M68.51,89.96c0.03-1.49,1.17-2.51,3.19-2.51c2.1,0,3.12,0.88,3.12,3.14v3.44c0,0.67,0.14,0.94,0.77,0.96
			v1.17h-0.18c-1.34,0-1.79-0.48-1.94-1.49h-0.03c-0.45,0.99-1.46,1.57-2.71,1.57c-1.68,0-2.67-0.91-2.67-2.42
			c0-0.93,0.4-1.7,1.26-2.13c0.88-0.46,2.19-0.63,4.08-0.69v-0.37c0-1.52-0.58-2.11-1.76-2.11c-1.25,0-1.71,0.72-1.76,1.44H68.51z
			 M73.41,92.27v-0.19c-1.82,0.08-2.86,0.22-3.41,0.62c-0.32,0.24-0.46,0.59-0.46,1.04c0,0.86,0.56,1.33,1.47,1.33
			C72.08,95.07,73.41,94.35,73.41,92.27z"/>
		<path class="st13" d="M83.2,90.89c0-0.61,0-1.28-0.3-1.68c-0.29-0.4-0.77-0.56-1.33-0.56c-1.57,0-2.29,1.01-2.29,2.39v5.06h-1.44
			v-8.44h1.36v1.42h0.03c0.4-0.86,1.38-1.63,2.72-1.63c1.62,0,2.69,0.77,2.69,2.77v5.87H83.2V90.89z"/>
		<path class="st13" d="M94.5,96.1h-1.38V94.7h-0.05c-0.45,0.83-1.36,1.6-2.66,1.6c-1.79,0-3.44-1.12-3.44-4.37
			c0-2.9,1.5-4.48,3.63-4.48c1.26,0,2.08,0.7,2.42,1.49h0.03v-5.46h1.44V96.1z M93.09,91.55c0-1.79-0.94-2.95-2.29-2.95
			c-1.62,0-2.35,1.28-2.35,3.27c0,1.9,0.56,3.3,2.24,3.3c1.49,0,2.4-1.18,2.4-2.72V91.55z"/>
		<path class="st13" d="M106.34,89.77c-0.08-0.75-0.69-1.23-1.68-1.23s-1.65,0.58-1.65,1.36c0,0.69,0.42,1.01,1.26,1.15l1.3,0.19
			c1.76,0.27,2.4,0.99,2.4,2.45c0,1.7-1.38,2.61-3.3,2.61c-1.75,0-3.19-0.78-3.3-2.59h1.41c0.06,0.66,0.43,1.49,1.92,1.49
			c1.15,0,1.87-0.54,1.87-1.42c0-0.67-0.18-1.04-1.33-1.23l-1.3-0.19c-1.5-0.24-2.3-0.86-2.3-2.34c0-1.49,1.14-2.56,3.06-2.56
			c1.83,0,2.87,0.85,3.01,2.32H106.34z"/>
		<path class="st13" d="M111.7,92.85c0,0.61,0,1.31,0.3,1.71c0.29,0.38,0.74,0.56,1.3,0.56c1.57,0,2.3-1.04,2.3-2.9v-4.56h1.44v8.44
			h-1.38v-1.44h-0.03c-0.38,0.86-1.31,1.65-2.66,1.65c-1.62,0-2.71-0.78-2.71-2.77v-5.88h1.42V92.85z"/>
		<path class="st13" d="M120.19,83.48h1.44v5.57h0.02c0.46-0.91,1.39-1.6,2.66-1.6c1.79,0,3.39,1.1,3.39,4.31
			c0,3.07-1.57,4.55-3.47,4.55c-1.33,0-2.21-0.74-2.64-1.55h-0.03v1.34h-1.36V83.48z M126.24,91.76c0-1.79-0.53-3.15-2.26-3.15
			c-1.52,0-2.4,1.26-2.4,2.69v0.9c0,1.66,0.82,2.98,2.42,2.98C125.5,95.17,126.24,93.97,126.24,91.76z"/>
		<path class="st13" d="M130.13,87.66h1.36v1.42h0.03c0.38-0.86,1.36-1.63,2.71-1.63c1.28,0,2.24,0.58,2.54,1.75h0.03
			c0.32-0.88,1.36-1.75,2.75-1.75c1.58,0,2.67,0.77,2.67,2.77v5.87h-1.44v-5.22c0-0.61,0-1.26-0.3-1.68
			c-0.29-0.4-0.75-0.54-1.31-0.54c-1.57,0-2.27,1.01-2.27,2.39v5.06h-1.44v-5.22c0-0.61,0-1.25-0.3-1.67
			c-0.29-0.4-0.75-0.56-1.31-0.56c-1.57,0-2.27,1.01-2.27,2.35v5.09h-1.44V87.66z"/>
		<path class="st13" d="M145.28,84.19h1.52v1.55h-1.52V84.19z M145.31,87.66h1.46v8.44h-1.46V87.66z"/>
		<path class="st13" d="M151.71,85.21v2.45h2.08v1.1h-2.08v4.98c0,0.9,0.37,1.25,1.28,1.25c0.43,0,0.93-0.08,0.93-0.08v1.22
			c0,0-0.59,0.1-1.33,0.1c-1.65,0-2.31-0.8-2.31-2.24v-5.22h-1.54v-1.06h0.26c1.14,0,1.39-0.27,1.39-1.89v-0.61H151.71z"/>
		<path class="st13" d="M160.41,83.48h1.44V96.1h-1.44V83.48z"/>
		<path class="st13" d="M164.25,91.87c0-2.61,1.44-4.42,3.79-4.42c2.51,0,3.76,1.81,3.76,4.42c0,2.64-1.42,4.43-3.79,4.43
			C165.53,96.3,164.25,94.51,164.25,91.87z M165.74,91.87c0,2.06,0.69,3.31,2.32,3.31c1.57,0,2.26-1.25,2.26-3.31
			c0-2.05-0.67-3.31-2.29-3.31C166.49,88.56,165.74,89.82,165.74,91.87z"/>
		<path class="st13" d="M173.85,96.94h1.39c0.16,0.72,0.71,1.18,2.08,1.18c1.6,0,2.4-0.59,2.4-2.45v-1.25h-0.02
			c-0.43,0.83-1.42,1.55-2.69,1.55c-1.76,0-3.38-1.1-3.38-4.23c0-2.79,1.47-4.31,3.55-4.31c1.36,0,2.18,0.75,2.53,1.54h0.03v-1.33
			h1.38v8.23c0,2.37-1.55,3.39-3.84,3.39C175.69,99.28,174.04,98.69,173.85,96.94z M179.76,91.42c0-1.68-0.94-2.83-2.4-2.83
			c-1.52,0-2.24,1.26-2.24,3.17c0,1.86,0.53,3.14,2.31,3.14c1.36,0,2.34-1.18,2.34-2.63V91.42z"/>
		<path class="st13" d="M183.55,91.87c0-2.61,1.44-4.42,3.79-4.42c2.51,0,3.76,1.81,3.76,4.42c0,2.64-1.42,4.43-3.79,4.43
			C184.83,96.3,183.55,94.51,183.55,91.87z M185.04,91.87c0,2.06,0.69,3.31,2.32,3.31c1.57,0,2.26-1.25,2.26-3.31
			c0-2.05-0.67-3.31-2.29-3.31C185.79,88.56,185.04,89.82,185.04,91.87z"/>
		<path class="st13" d="M197.77,89.77c-0.08-0.75-0.69-1.23-1.68-1.23s-1.65,0.58-1.65,1.36c0,0.69,0.42,1.01,1.26,1.15l1.3,0.19
			c1.76,0.27,2.4,0.99,2.4,2.45c0,1.7-1.38,2.61-3.3,2.61c-1.75,0-3.19-0.78-3.3-2.59h1.41c0.06,0.66,0.43,1.49,1.92,1.49
			c1.15,0,1.87-0.54,1.87-1.42c0-0.67-0.18-1.04-1.33-1.23l-1.3-0.19c-1.5-0.24-2.3-0.86-2.3-2.34c0-1.49,1.14-2.56,3.06-2.56
			c1.83,0,2.87,0.85,3.01,2.32H197.77z"/>
		<path class="st13" d="M206.01,89.96c0.03-1.49,1.17-2.51,3.19-2.51c2.1,0,3.12,0.88,3.12,3.14v3.44c0,0.67,0.14,0.94,0.77,0.96
			v1.17h-0.18c-1.34,0-1.79-0.48-1.94-1.49h-0.03c-0.45,0.99-1.46,1.57-2.71,1.57c-1.68,0-2.67-0.91-2.67-2.42
			c0-0.93,0.4-1.7,1.26-2.13c0.88-0.46,2.19-0.63,4.08-0.69v-0.37c0-1.52-0.58-2.11-1.76-2.11c-1.25,0-1.71,0.72-1.76,1.44H206.01z
			 M210.91,92.27v-0.19c-1.82,0.08-2.86,0.22-3.41,0.62c-0.32,0.24-0.46,0.59-0.46,1.04c0,0.86,0.56,1.33,1.47,1.33
			C209.58,95.07,210.91,94.35,210.91,92.27z"/>
		<path class="st13" d="M217.12,85.21v2.45h2.08v1.1h-2.08v4.98c0,0.9,0.37,1.25,1.28,1.25c0.43,0,0.93-0.08,0.93-0.08v1.22
			c0,0-0.59,0.1-1.33,0.1c-1.65,0-2.31-0.8-2.31-2.24v-5.22h-1.54v-1.06h0.26c1.14,0,1.39-0.27,1.39-1.89v-0.61H217.12z"/>
		<path class="st13" d="M227.6,87.36h-2.37v-1.02h0.35c0.8,0,1.38-0.21,1.74-0.58c0.35-0.35,0.51-0.83,0.53-1.57h1.2V96.1h-1.46
			V87.36z"/>
		<path class="st13" d="M236.59,84.06c2.59,0,4.27,2.02,4.27,6.15c0,4.11-1.67,6.15-4.27,6.15c-2.63,0-4.24-2.03-4.24-6.15
			C232.35,86.08,234.03,84.06,236.59,84.06z M239.31,90.24c0-3.3-1.02-4.98-2.72-4.98c-1.66,0-2.69,1.6-2.69,4.98
			c0,3.28,0.99,4.93,2.69,4.93C238.25,95.17,239.31,93.46,239.31,90.24z"/>
		<path class="st13" d="M247.55,84.06c2.59,0,4.27,2.02,4.27,6.15c0,4.11-1.67,6.15-4.27,6.15c-2.63,0-4.24-2.03-4.24-6.15
			C243.31,86.08,244.99,84.06,247.55,84.06z M250.27,90.24c0-3.3-1.02-4.98-2.72-4.98c-1.66,0-2.69,1.6-2.69,4.98
			c0,3.28,0.99,4.93,2.69,4.93C249.21,95.17,250.27,93.46,250.27,90.24z"/>
		<path class="st13" d="M258.51,84.06c2.59,0,4.27,2.02,4.27,6.15c0,4.11-1.67,6.15-4.27,6.15c-2.63,0-4.24-2.03-4.24-6.15
			C254.27,86.08,255.95,84.06,258.51,84.06z M261.23,90.24c0-3.3-1.02-4.98-2.72-4.98c-1.66,0-2.69,1.6-2.69,4.98
			c0,3.28,0.99,4.93,2.69,4.93C260.17,95.17,261.23,93.46,261.23,90.24z"/>
		<path class="st13" d="M265.55,87.66h1.39v1.41h0.03c0.5-0.9,1.41-1.62,2.69-1.62c1.79,0,3.39,1.1,3.39,4.31
			c0,3.07-1.58,4.55-3.49,4.55c-1.23,0-2.23-0.69-2.54-1.44h-0.03v4.24h-1.44V87.66z M269.36,95.17c1.5,0,2.24-1.2,2.24-3.41
			c0-1.79-0.53-3.15-2.26-3.15c-1.49,0-2.4,1.26-2.4,2.69v0.9C266.94,93.85,267.76,95.17,269.36,95.17z"/>
		<path class="st13" d="M277,91.74l-2.67-4.08h1.7l1.84,2.95h0.03l1.89-2.95h1.57l-2.66,4l2.93,4.43h-1.71l-2.1-3.3h-0.05l-2.08,3.3
			h-1.57L277,91.74z"/>
		<path class="st13" d="M292.27,89.77c-0.08-0.75-0.69-1.23-1.68-1.23s-1.65,0.58-1.65,1.36c0,0.69,0.42,1.01,1.26,1.15l1.3,0.19
			c1.76,0.27,2.4,0.99,2.4,2.45c0,1.7-1.38,2.61-3.3,2.61c-1.75,0-3.19-0.78-3.3-2.59h1.41c0.06,0.66,0.43,1.49,1.92,1.49
			c1.15,0,1.87-0.54,1.87-1.42c0-0.67-0.18-1.04-1.33-1.23l-1.3-0.19c-1.5-0.24-2.3-0.86-2.3-2.34c0-1.49,1.14-2.56,3.06-2.56
			c1.83,0,2.87,0.85,3.01,2.32H292.27z"/>
		<path class="st13" d="M303.17,99.1h-1.44v-4.29h-0.05c-0.4,0.75-1.3,1.49-2.59,1.49c-1.79,0-3.44-1.09-3.44-4.37
			c0-2.9,1.5-4.48,3.63-4.48c1.26,0,2.11,0.7,2.45,1.49h0.03v-1.28h1.41V99.1z M301.76,92.45v-0.9c0-1.79-0.94-2.95-2.29-2.95
			c-1.58,0-2.35,1.28-2.35,3.27c0,1.9,0.56,3.3,2.24,3.3C300.84,95.17,301.76,93.98,301.76,92.45z"/>
		<path class="st13" d="M307.64,92.85c0,0.61,0,1.31,0.3,1.71c0.29,0.38,0.74,0.56,1.3,0.56c1.57,0,2.3-1.04,2.3-2.9v-4.56h1.44
			v8.44h-1.38v-1.44h-0.03c-0.38,0.86-1.31,1.65-2.66,1.65c-1.62,0-2.71-0.78-2.71-2.77v-5.88h1.42V92.85z"/>
		<path class="st13" d="M315.74,89.96c0.03-1.49,1.17-2.51,3.19-2.51c2.1,0,3.12,0.88,3.12,3.14v3.44c0,0.67,0.14,0.94,0.77,0.96
			v1.17h-0.18c-1.34,0-1.79-0.48-1.94-1.49h-0.03c-0.45,0.99-1.46,1.57-2.71,1.57c-1.68,0-2.67-0.91-2.67-2.42
			c0-0.93,0.4-1.7,1.26-2.13c0.88-0.46,2.19-0.63,4.08-0.69v-0.37c0-1.52-0.58-2.11-1.76-2.11c-1.25,0-1.71,0.72-1.76,1.44H315.74z
			 M320.64,92.27v-0.19c-1.82,0.08-2.86,0.22-3.41,0.62c-0.32,0.24-0.46,0.59-0.46,1.04c0,0.86,0.56,1.33,1.47,1.33
			C319.31,95.07,320.64,94.35,320.64,92.27z"/>
		<path class="st13" d="M325.07,87.66h1.36v1.58h0.03c0.38-0.88,1.44-1.75,2.67-1.75h0.14V89H329c-1.5,0-2.5,0.86-2.5,2.5v4.59
			h-1.44V87.66z"/>
		<path class="st13" d="M334.38,96.3c-2.58,0-3.81-1.87-3.81-4.39c0-2.5,1.34-4.47,3.76-4.47c2.53,0,3.52,1.95,3.52,4.08v0.74h-5.81
			c0.1,1.74,0.8,2.93,2.38,2.93c1.41,0,1.78-0.82,1.92-1.31h1.39C337.44,95.34,336.19,96.3,334.38,96.3z M336.38,91.04
			c-0.03-1.41-0.59-2.5-2.06-2.5c-1.34,0-2.08,1.06-2.26,2.59h4.32V91.04z"/>
		<path class="st13" d="M346.57,85.21v2.45h2.08v1.1h-2.08v4.98c0,0.9,0.37,1.25,1.28,1.25c0.43,0,0.93-0.08,0.93-0.08v1.22
			c0,0-0.59,0.1-1.33,0.1c-1.65,0-2.31-0.8-2.31-2.24v-5.22h-1.54v-1.06h0.26c1.14,0,1.39-0.27,1.39-1.89v-0.61H346.57z"/>
		<path class="st13" d="M350.17,91.87c0-2.61,1.44-4.42,3.79-4.42c2.51,0,3.76,1.81,3.76,4.42c0,2.64-1.42,4.43-3.79,4.43
			C351.45,96.3,350.17,94.51,350.17,91.87z M351.66,91.87c0,2.06,0.69,3.31,2.32,3.31c1.57,0,2.26-1.25,2.26-3.31
			c0-2.05-0.67-3.31-2.29-3.31C352.41,88.56,351.66,89.82,351.66,91.87z"/>
		<path class="st13" d="M359.83,87.66h1.97v1.97h-1.97V87.66z M359.83,96.1v-1.97h1.97v1.97H359.83z"/>
		<path class="st13" d="M19.65,120.21h4.45v1.3h-4.45V120.21z"/>
		<path class="st13" d="M30.14,126.14v-1.26h0.34c2.56,0,2.99-0.67,2.99-2.48v-8.55h1.49v8.68c0,2.64-1.44,3.62-4.15,3.62H30.14z"/>
		<path class="st13" d="M39.83,121.42v4.67h-1.49v-12.25h3.68c2.37,0,4.21,1.12,4.21,3.76c0,2.59-1.82,3.81-4.34,3.81H39.83z
			 M41.89,120.22c1.78,0,2.8-0.86,2.8-2.61c0-1.83-1.02-2.56-2.75-2.56h-2.11v5.17H41.89z"/>
		<path class="st13" d="M49.71,120.08c0,3.25,1.38,5.06,3.86,5.06c2.32,0,3.7-1.33,3.7-3.73v-0.18h-3.54v-1.31h4.99v6.18h-1.3v-1.76
			h-0.06c-0.58,1.07-1.84,2.02-3.83,2.02c-3.09,0-5.39-2.02-5.39-6.32c0-4,2.42-6.35,5.59-6.35c2.51,0,4.32,1.26,4.63,3.42H56.8
			c-0.21-1.39-1.47-2.24-3.07-2.24C51.07,114.86,49.71,116.94,49.71,120.08z"/>
		<path class="st13" d="M61.81,124.13h1.79l-1.3,3.84h-1.04L61.81,124.13z"/>
		<path class="st13" d="M71.95,121.42v4.67h-1.49v-12.25h3.68c2.37,0,4.21,1.12,4.21,3.76c0,2.59-1.82,3.81-4.34,3.81H71.95z
			 M74.02,120.22c1.78,0,2.8-0.86,2.8-2.61c0-1.83-1.02-2.56-2.75-2.56h-2.11v5.17H74.02z"/>
		<path class="st13" d="M80.85,113.85h1.9l5.44,9.11c0.42,0.67,0.62,1.2,0.62,1.2h0.05v-10.31h1.41v12.25h-1.91L82.94,117
			c-0.48-0.8-0.64-1.18-0.64-1.18h-0.03v10.28h-1.42V113.85z"/>
		<path class="st13" d="M94.72,120.08c0,3.25,1.38,5.06,3.86,5.06c2.32,0,3.7-1.33,3.7-3.73v-0.18h-3.54v-1.31h4.99v6.18h-1.3v-1.76
			h-0.06c-0.58,1.07-1.84,2.02-3.83,2.02c-3.09,0-5.39-2.02-5.39-6.32c0-4,2.42-6.35,5.59-6.35c2.51,0,4.32,1.26,4.63,3.42h-1.55
			c-0.21-1.39-1.47-2.24-3.07-2.24C96.08,114.86,94.72,116.94,94.72,120.08z"/>
		<path class="st13" d="M106.74,117.66h1.97v1.97h-1.97V117.66z M106.74,126.1v-1.97h1.97v1.97H106.74z"/>
		<path class="st13" d="M119.97,119.77c-0.08-0.75-0.69-1.23-1.68-1.23s-1.65,0.58-1.65,1.36c0,0.69,0.42,1.01,1.26,1.15l1.3,0.19
			c1.76,0.27,2.4,0.99,2.4,2.45c0,1.7-1.38,2.61-3.3,2.61c-1.75,0-3.19-0.78-3.3-2.59h1.41c0.06,0.66,0.43,1.49,1.92,1.49
			c1.15,0,1.87-0.54,1.87-1.42c0-0.67-0.18-1.04-1.33-1.23l-1.3-0.19c-1.5-0.24-2.3-0.86-2.3-2.34c0-1.49,1.14-2.56,3.06-2.56
			c1.83,0,2.87,0.85,3.01,2.32H119.97z"/>
		<path class="st13" d="M127.15,126.3c-2.58,0-3.81-1.87-3.81-4.39c0-2.5,1.34-4.47,3.76-4.47c2.53,0,3.52,1.95,3.52,4.08v0.74
			h-5.81c0.1,1.74,0.8,2.93,2.38,2.93c1.41,0,1.78-0.82,1.92-1.31h1.39C130.21,125.34,128.96,126.3,127.15,126.3z M129.15,121.04
			c-0.03-1.41-0.59-2.5-2.06-2.5c-1.34,0-2.08,1.06-2.26,2.59h4.32V121.04z"/>
		<path class="st13" d="M134.83,115.21v2.45h2.08v1.1h-2.08v4.98c0,0.9,0.37,1.25,1.28,1.25c0.43,0,0.93-0.08,0.93-0.08v1.22
			c0,0-0.59,0.1-1.33,0.1c-1.65,0-2.31-0.8-2.31-2.24v-5.22h-1.54v-1.06h0.26c1.14,0,1.39-0.27,1.39-1.89v-0.61H134.83z"/>
		<path class="st13" d="M145.31,115.21v2.45h2.08v1.1h-2.08v4.98c0,0.9,0.37,1.25,1.28,1.25c0.43,0,0.93-0.08,0.93-0.08v1.22
			c0,0-0.59,0.1-1.33,0.1c-1.65,0-2.31-0.8-2.31-2.24v-5.22h-1.54v-1.06h0.26c1.14,0,1.39-0.27,1.39-1.89v-0.61H145.31z"/>
		<path class="st13" d="M148.91,121.87c0-2.61,1.44-4.42,3.79-4.42c2.51,0,3.76,1.81,3.76,4.42c0,2.64-1.42,4.43-3.79,4.43
			C150.19,126.3,148.91,124.51,148.91,121.87z M150.4,121.87c0,2.06,0.69,3.31,2.32,3.31c1.57,0,2.26-1.25,2.26-3.31
			c0-2.05-0.67-3.31-2.29-3.31C151.15,118.56,150.4,119.82,150.4,121.87z"/>
		<path class="st13" d="M163.41,117.66h1.36v1.42h0.03c0.38-0.86,1.36-1.63,2.71-1.63c1.28,0,2.24,0.58,2.54,1.75h0.03
			c0.32-0.88,1.36-1.75,2.75-1.75c1.58,0,2.67,0.77,2.67,2.77v5.87h-1.44v-5.22c0-0.61,0-1.26-0.3-1.68
			c-0.29-0.4-0.75-0.54-1.31-0.54c-1.57,0-2.27,1.01-2.27,2.39v5.06h-1.44v-5.22c0-0.61,0-1.25-0.3-1.67
			c-0.29-0.4-0.75-0.56-1.31-0.56c-1.57,0-2.27,1.01-2.27,2.35v5.09h-1.44V117.66z"/>
		<path class="st13" d="M178.27,119.96c0.03-1.49,1.17-2.51,3.19-2.51c2.1,0,3.12,0.88,3.12,3.14v3.44c0,0.67,0.14,0.94,0.77,0.96
			v1.17h-0.18c-1.34,0-1.79-0.48-1.94-1.49h-0.03c-0.45,0.99-1.46,1.57-2.71,1.57c-1.68,0-2.67-0.91-2.67-2.42
			c0-0.93,0.4-1.7,1.26-2.13c0.88-0.46,2.19-0.63,4.08-0.69v-0.37c0-1.52-0.58-2.11-1.76-2.11c-1.25,0-1.71,0.72-1.76,1.44H178.27z
			 M183.17,122.27v-0.19c-1.82,0.08-2.86,0.22-3.41,0.62c-0.32,0.24-0.46,0.59-0.46,1.04c0,0.86,0.56,1.33,1.47,1.33
			C181.84,125.07,183.17,124.35,183.17,122.27z"/>
		<path class="st13" d="M189.28,121.74l-2.67-4.08h1.7l1.84,2.95h0.03l1.89-2.95h1.57l-2.66,4l2.93,4.43h-1.71l-2.1-3.3h-0.05
			l-2.08,3.3h-1.57L189.28,121.74z"/>
		<path class="st13" d="M195.84,114.19h1.52v1.55h-1.52V114.19z M195.87,117.66h1.46v8.44h-1.46V117.66z"/>
		<path class="st13" d="M200.49,117.66h1.36v1.42h0.03c0.38-0.86,1.36-1.63,2.71-1.63c1.28,0,2.24,0.58,2.54,1.75h0.03
			c0.32-0.88,1.36-1.75,2.75-1.75c1.58,0,2.67,0.77,2.67,2.77v5.87h-1.44v-5.22c0-0.61,0-1.26-0.3-1.68
			c-0.29-0.4-0.75-0.54-1.31-0.54c-1.57,0-2.27,1.01-2.27,2.39v5.06h-1.44v-5.22c0-0.61,0-1.25-0.3-1.67
			c-0.29-0.4-0.75-0.56-1.31-0.56c-1.57,0-2.27,1.01-2.27,2.35v5.09h-1.44V117.66z"/>
		<path class="st13" d="M217.07,122.85c0,0.61,0,1.31,0.3,1.71c0.29,0.38,0.74,0.56,1.3,0.56c1.57,0,2.3-1.04,2.3-2.9v-4.56h1.44
			v8.44h-1.38v-1.44h-0.03c-0.38,0.86-1.31,1.65-2.66,1.65c-1.62,0-2.71-0.78-2.71-2.77v-5.88h1.42V122.85z"/>
		<path class="st13" d="M225.56,117.66h1.36v1.42h0.03c0.38-0.86,1.36-1.63,2.71-1.63c1.28,0,2.24,0.58,2.54,1.75h0.03
			c0.32-0.88,1.36-1.75,2.75-1.75c1.58,0,2.67,0.77,2.67,2.77v5.87h-1.44v-5.22c0-0.61,0-1.26-0.3-1.68
			c-0.29-0.4-0.75-0.54-1.31-0.54c-1.57,0-2.27,1.01-2.27,2.39v5.06h-1.44v-5.22c0-0.61,0-1.25-0.3-1.67
			c-0.29-0.4-0.75-0.56-1.31-0.56c-1.57,0-2.27,1.01-2.27,2.35v5.09h-1.44V117.66z"/>
		<path class="st13" d="M252.03,129.1h-1.44v-4.29h-0.05c-0.4,0.75-1.3,1.49-2.59,1.49c-1.79,0-3.44-1.09-3.44-4.37
			c0-2.9,1.5-4.48,3.63-4.48c1.26,0,2.11,0.7,2.45,1.49h0.03v-1.28h1.41V129.1z M250.62,122.45v-0.9c0-1.79-0.94-2.95-2.29-2.95
			c-1.58,0-2.35,1.28-2.35,3.27c0,1.9,0.56,3.3,2.24,3.3C249.71,125.17,250.62,123.98,250.62,122.45z"/>
		<path class="st13" d="M256.51,122.85c0,0.61,0,1.31,0.3,1.71c0.29,0.38,0.74,0.56,1.3,0.56c1.57,0,2.3-1.04,2.3-2.9v-4.56h1.44
			v8.44h-1.38v-1.44h-0.03c-0.38,0.86-1.31,1.65-2.66,1.65c-1.62,0-2.71-0.78-2.71-2.77v-5.88h1.42V122.85z"/>
		<path class="st13" d="M264.6,119.96c0.03-1.49,1.17-2.51,3.19-2.51c2.1,0,3.12,0.88,3.12,3.14v3.44c0,0.67,0.14,0.94,0.77,0.96
			v1.17h-0.18c-1.34,0-1.79-0.48-1.94-1.49h-0.03c-0.45,0.99-1.46,1.57-2.71,1.57c-1.68,0-2.67-0.91-2.67-2.42
			c0-0.93,0.4-1.7,1.26-2.13c0.88-0.46,2.19-0.63,4.08-0.69v-0.37c0-1.52-0.58-2.11-1.76-2.11c-1.25,0-1.71,0.72-1.76,1.44H264.6z
			 M269.5,122.27v-0.19c-1.82,0.08-2.86,0.22-3.41,0.62c-0.32,0.24-0.46,0.59-0.46,1.04c0,0.86,0.56,1.33,1.47,1.33
			C268.17,125.07,269.5,124.35,269.5,122.27z"/>
		<path class="st13" d="M273.93,113.48h1.44v12.61h-1.44V113.48z"/>
		<path class="st13" d="M278.49,114.19h1.52v1.55h-1.52V114.19z M278.52,117.66h1.46v8.44h-1.46V117.66z"/>
		<path class="st13" d="M284.92,115.21v2.45H287v1.1h-2.08v4.98c0,0.9,0.37,1.25,1.28,1.25c0.43,0,0.93-0.08,0.93-0.08v1.22
			c0,0-0.59,0.1-1.33,0.1c-1.65,0-2.31-0.8-2.31-2.24v-5.22h-1.54v-1.06h0.26c1.14,0,1.39-0.27,1.39-1.89v-0.61H284.92z"/>
		<path class="st13" d="M288.46,117.66h1.44l1.76,5.28c0.27,0.8,0.42,1.31,0.42,1.31h0.05c0,0,0.14-0.51,0.42-1.33l1.73-5.27h1.44
			l-3.07,8.96c-0.67,1.94-1.23,2.66-3.06,2.66c-0.32,0-0.64-0.05-0.86-0.1V128c0.27,0.06,0.59,0.08,0.74,0.08
			c1.07,0,1.42-0.4,1.79-1.54l0.16-0.45L288.46,117.66z"/>
		<path class="st13" d="M296.22,124.14h1.95v1.95h-1.95V124.14z"/>
		<path class="st13" d="M19.65,150.21h4.45v1.3h-4.45V150.21z"/>
		<path class="st13" d="M32.88,151.42v4.67h-1.49v-12.25h3.68c2.37,0,4.21,1.12,4.21,3.76c0,2.59-1.82,3.81-4.34,3.81H32.88z
			 M34.95,150.22c1.78,0,2.8-0.86,2.8-2.61c0-1.83-1.02-2.56-2.75-2.56h-2.11v5.17H34.95z"/>
		<path class="st13" d="M41.78,143.85h3.76c3.35,0,5.92,1.63,5.92,5.97c0,4.31-2.4,6.27-5.75,6.27h-3.94V143.85z M45.54,154.82
			c2.59,0,4.37-1.34,4.37-4.95c0-3.43-1.81-4.74-4.27-4.74h-2.37v9.68H45.54z"/>
		<path class="st13" d="M55.84,156.1h-1.49v-12.25h7.31v1.33h-5.83v4.42h5.33v1.3h-5.33V156.1z"/>
		<path class="st13" d="M19.65,180.21h4.45v1.3h-4.45V180.21z"/>
		<path class="st13" d="M31.39,173.85h7.83v1.33h-6.34v4.08h5.83v1.3h-5.83v4.21h6.42v1.33h-7.91V173.85z"/>
		<path class="st13" d="M43.87,181.42v4.67h-1.49v-12.25h3.68c2.37,0,4.21,1.12,4.21,3.76c0,2.59-1.82,3.81-4.34,3.81H43.87z
			 M45.94,180.22c1.78,0,2.8-0.86,2.8-2.61c0-1.83-1.02-2.56-2.75-2.56h-2.11v5.17H45.94z"/>
		<path class="st13" d="M59.3,177.13c-0.14-1.2-0.83-2.27-2.54-2.27c-1.67,0-2.56,0.94-2.56,2.11c0,1.12,0.61,1.76,2.05,2.03
			l1.73,0.3c2.39,0.43,3.22,1.6,3.22,3.35c0,2.24-1.52,3.68-4.45,3.68c-2.83,0-4.45-1.52-4.58-3.68h1.55
			c0.18,1.31,1.09,2.48,3.06,2.48c2.18,0,2.9-1.06,2.9-2.35c0-1.06-0.58-1.79-2.08-2.05l-1.71-0.3c-2.4-0.45-3.25-1.73-3.25-3.33
			c0-1.98,1.63-3.42,4.15-3.42c2.59,0,3.94,1.38,4.05,3.46H59.3z"/>
		<path class="st13" d="M63.63,177.66h1.97v1.97h-1.97V177.66z M63.63,186.1v-1.97h1.97v1.97H63.63z"/>
		<path class="st13" d="M75.76,186.3c-2.58,0-3.81-1.87-3.81-4.39c0-2.5,1.34-4.47,3.76-4.47c2.53,0,3.52,1.95,3.52,4.08v0.74h-5.81
			c0.1,1.74,0.8,2.93,2.38,2.93c1.41,0,1.78-0.82,1.92-1.31h1.39C78.82,185.34,77.57,186.3,75.76,186.3z M77.76,181.04
			c-0.03-1.41-0.59-2.5-2.06-2.5c-1.34,0-2.08,1.06-2.26,2.59h4.32V181.04z"/>
		<path class="st13" d="M83.26,181.74l-2.67-4.08h1.7l1.84,2.95h0.03l1.89-2.95h1.57l-2.66,4l2.93,4.43h-1.71l-2.1-3.3h-0.05
			l-2.08,3.3h-1.57L83.26,181.74z"/>
		<path class="st13" d="M89.78,177.66h1.39v1.41h0.03c0.5-0.9,1.41-1.62,2.69-1.62c1.79,0,3.39,1.1,3.39,4.31
			c0,3.07-1.58,4.55-3.49,4.55c-1.23,0-2.23-0.69-2.54-1.44h-0.03v4.24h-1.44V177.66z M93.58,185.17c1.5,0,2.24-1.2,2.24-3.41
			c0-1.79-0.53-3.15-2.26-3.15c-1.49,0-2.4,1.26-2.4,2.69v0.9C91.17,183.85,91.98,185.17,93.58,185.17z"/>
		<path class="st13" d="M99.12,181.87c0-2.61,1.44-4.42,3.79-4.42c2.51,0,3.76,1.81,3.76,4.42c0,2.64-1.42,4.43-3.79,4.43
			C100.4,186.3,99.12,184.51,99.12,181.87z M100.61,181.87c0,2.06,0.69,3.31,2.32,3.31c1.57,0,2.26-1.25,2.26-3.31
			c0-2.05-0.67-3.31-2.29-3.31C101.36,178.56,100.61,179.82,100.61,181.87z"/>
		<path class="st13" d="M109.1,177.66h1.36v1.58h0.03c0.38-0.88,1.44-1.75,2.67-1.75h0.14v1.5h-0.27c-1.5,0-2.5,0.86-2.5,2.5v4.59
			h-1.44V177.66z"/>
		<path class="st13" d="M117.54,175.21v2.45h2.08v1.1h-2.08v4.98c0,0.9,0.37,1.25,1.28,1.25c0.43,0,0.93-0.08,0.93-0.08v1.22
			c0,0-0.59,0.1-1.33,0.1c-1.65,0-2.31-0.8-2.31-2.24v-5.22h-1.54v-1.06h0.26c1.14,0,1.39-0.27,1.39-1.89v-0.61H117.54z"/>
		<path class="st13" d="M130.61,180.91h-2.72v5.19h-1.49v-12.25h4.43c0.9,0,1.7,0.19,2.37,0.54c0.98,0.54,1.58,1.49,1.58,2.9
			c0,2.3-1.5,3.09-2.63,3.38v0.03l2.71,5.39h-1.73L130.61,180.91z M130.7,179.68c1.44,0,2.51-0.69,2.51-2.37
			c0-1.5-1.04-2.24-2.45-2.24h-2.88v4.61H130.7z"/>
		<path class="st13" d="M138.54,180.08c0,3.25,1.38,5.06,3.86,5.06c2.32,0,3.7-1.33,3.7-3.73v-0.18h-3.54v-1.31h4.99v6.18h-1.3
			v-1.76h-0.06c-0.58,1.07-1.84,2.02-3.83,2.02c-3.09,0-5.39-2.02-5.39-6.32c0-4,2.42-6.35,5.59-6.35c2.51,0,4.32,1.26,4.63,3.42
			h-1.55c-0.21-1.39-1.47-2.24-3.07-2.24C139.9,174.86,138.54,176.94,138.54,180.08z"/>
		<path class="st13" d="M150.96,186.1v-12.25h4.82c2.1,0,3.78,0.98,3.78,2.98c0,1.49-0.83,2.42-2.24,2.74v0.03
			c1.54,0.26,2.63,1.47,2.63,2.95c0,2.75-2.07,3.55-4.53,3.55H150.96z M155.5,179c1.3,0,2.5-0.46,2.5-2.03
			c0-1.33-0.95-1.92-2.31-1.92h-3.25V179H155.5z M155.42,184.9c1.79,0,2.96-0.61,2.96-2.45c0-1.62-1.15-2.21-3.09-2.21h-2.85v4.66
			H155.42z"/>
		<path class="st13" d="M169.18,188.18c-0.91-1.81-2.13-4.11-2.13-7.35c0-3.25,1.22-5.54,2.13-7.35h1.09
			c-0.91,1.95-1.75,4.08-1.75,7.35c0,3.25,0.83,5.38,1.75,7.35H169.18z"/>
		<path class="st13" d="M179.2,186.1h-1.38v-1.39h-0.05c-0.45,0.83-1.36,1.6-2.66,1.6c-1.79,0-3.44-1.12-3.44-4.37
			c0-2.9,1.5-4.48,3.63-4.48c1.26,0,2.08,0.7,2.42,1.49h0.03v-5.46h1.44V186.1z M177.79,181.55c0-1.79-0.94-2.95-2.29-2.95
			c-1.62,0-2.35,1.28-2.35,3.27c0,1.9,0.56,3.3,2.24,3.3c1.49,0,2.4-1.18,2.4-2.72V181.55z"/>
		<path class="st13" d="M182.33,174.19h1.52v1.55h-1.52V174.19z M182.37,177.66h1.46v8.44h-1.46V177.66z"/>
		<path class="st13" d="M186.44,186.94h1.39c0.16,0.72,0.71,1.18,2.08,1.18c1.6,0,2.4-0.59,2.4-2.45v-1.25h-0.02
			c-0.43,0.83-1.42,1.55-2.69,1.55c-1.76,0-3.38-1.1-3.38-4.23c0-2.79,1.47-4.31,3.55-4.31c1.36,0,2.18,0.75,2.53,1.54h0.03v-1.33
			h1.38v8.23c0,2.37-1.55,3.39-3.84,3.39C188.29,189.28,186.64,188.69,186.44,186.94z M192.35,181.42c0-1.68-0.94-2.83-2.4-2.83
			c-1.52,0-2.24,1.26-2.24,3.17c0,1.86,0.53,3.14,2.31,3.14c1.36,0,2.34-1.18,2.34-2.63V181.42z"/>
		<path class="st13" d="M196.86,174.19h1.52v1.55h-1.52V174.19z M196.89,177.66h1.46v8.44h-1.46V177.66z"/>
		<path class="st13" d="M203.29,175.21v2.45h2.08v1.1h-2.08v4.98c0,0.9,0.37,1.25,1.28,1.25c0.43,0,0.93-0.08,0.93-0.08v1.22
			c0,0-0.59,0.1-1.33,0.1c-1.65,0-2.31-0.8-2.31-2.24v-5.22h-1.54v-1.06h0.26c1.14,0,1.39-0.27,1.39-1.89v-0.61H203.29z"/>
		<path class="st13" d="M207.8,179.96c0.03-1.49,1.17-2.51,3.19-2.51c2.1,0,3.12,0.88,3.12,3.14v3.44c0,0.67,0.14,0.94,0.77,0.96
			v1.17h-0.18c-1.34,0-1.79-0.48-1.94-1.49h-0.03c-0.45,0.99-1.46,1.57-2.71,1.57c-1.68,0-2.67-0.91-2.67-2.42
			c0-0.93,0.4-1.7,1.26-2.13c0.88-0.46,2.19-0.63,4.08-0.69v-0.37c0-1.52-0.58-2.11-1.76-2.11c-1.25,0-1.71,0.72-1.76,1.44H207.8z
			 M212.7,182.27v-0.19c-1.82,0.08-2.86,0.22-3.41,0.62c-0.32,0.24-0.46,0.59-0.46,1.04c0,0.86,0.56,1.33,1.47,1.33
			C211.37,185.07,212.7,184.35,212.7,182.27z"/>
		<path class="st13" d="M217.13,173.48h1.44v12.61h-1.44V173.48z"/>
		<path class="st13" d="M222.54,180.83c0-3.26-0.83-5.39-1.75-7.35h1.09c0.91,1.81,2.13,4.1,2.13,7.35c0,3.23-1.22,5.54-2.13,7.35
			h-1.09C221.71,186.21,222.54,184.08,222.54,180.83z"/>
		<path class="st13" d="M231.39,179.96c0.03-1.49,1.17-2.51,3.19-2.51c2.1,0,3.12,0.88,3.12,3.14v3.44c0,0.67,0.14,0.94,0.77,0.96
			v1.17h-0.18c-1.34,0-1.79-0.48-1.94-1.49h-0.03c-0.45,0.99-1.46,1.57-2.71,1.57c-1.68,0-2.67-0.91-2.67-2.42
			c0-0.93,0.4-1.7,1.26-2.13c0.88-0.46,2.19-0.63,4.08-0.69v-0.37c0-1.52-0.58-2.11-1.76-2.11c-1.25,0-1.71,0.72-1.76,1.44H231.39z
			 M236.29,182.27v-0.19c-1.82,0.08-2.86,0.22-3.41,0.62c-0.32,0.24-0.46,0.59-0.46,1.04c0,0.86,0.56,1.33,1.47,1.33
			C234.96,185.07,236.29,184.35,236.29,182.27z"/>
		<path class="st13" d="M246.08,180.89c0-0.61,0-1.28-0.3-1.68c-0.29-0.4-0.77-0.56-1.33-0.56c-1.57,0-2.29,1.01-2.29,2.39v5.06
			h-1.44v-8.44h1.36v1.42h0.03c0.4-0.86,1.38-1.63,2.72-1.63c1.62,0,2.69,0.77,2.69,2.77v5.87h-1.44V180.89z"/>
		<path class="st13" d="M257.38,186.1H256v-1.39h-0.05c-0.45,0.83-1.36,1.6-2.66,1.6c-1.79,0-3.44-1.12-3.44-4.37
			c0-2.9,1.5-4.48,3.63-4.48c1.26,0,2.08,0.7,2.42,1.49h0.03v-5.46h1.44V186.1z M255.97,181.55c0-1.79-0.94-2.95-2.29-2.95
			c-1.62,0-2.35,1.28-2.35,3.27c0,1.9,0.56,3.3,2.24,3.3c1.49,0,2.4-1.18,2.4-2.72V181.55z"/>
		<path class="st13" d="M266.22,180c0,3.17,1.41,5.12,3.86,5.12c2.16,0,3.06-1.46,3.22-2.85h1.52c-0.19,2.3-1.97,4.07-4.74,4.07
			c-3.18,0-5.44-2.07-5.44-6.34c0-3.99,2.29-6.34,5.47-6.34c2.08,0,4.43,1.1,4.71,3.84h-1.57c-0.21-1.25-1.17-2.63-3.14-2.63
			C267.6,174.88,266.22,176.94,266.22,180z"/>
		<path class="st13" d="M277.68,173.85h2.26l3.1,8.77c0.38,1.07,0.54,1.6,0.54,1.6h0.03c0,0,0.16-0.53,0.54-1.6l3.15-8.77h2.24
			v12.25h-1.52v-10.52h-0.05c0,0-0.19,0.63-0.66,1.92l-3.09,8.6h-1.41l-3.01-8.6c-0.43-1.28-0.66-1.92-0.66-1.92h-0.05v10.52h-1.44
			V173.85z"/>
		<path class="st13" d="M295.88,180.86l-4.32-7.01h1.73l3.31,5.65h0.03l3.44-5.65h1.58l-4.31,6.92v5.33h-1.47V180.86z"/>
		<path class="st13" d="M305.15,186.1h-1.49v-12.25h1.49v6.29l5.73-6.29h1.79l-4.71,5.14l5.04,7.11h-1.79l-4.27-5.99l-1.79,1.97
			V186.1z"/>
		<path class="st13" d="M321.74,188.18c-0.91-1.81-2.13-4.11-2.13-7.35c0-3.25,1.22-5.54,2.13-7.35h1.09
			c-0.91,1.95-1.75,4.08-1.75,7.35c0,3.25,0.83,5.38,1.75,7.35H321.74z"/>
		<path class="st13" d="M325.07,177.66h1.39v1.41h0.03c0.5-0.9,1.41-1.62,2.69-1.62c1.79,0,3.39,1.1,3.39,4.31
			c0,3.07-1.58,4.55-3.49,4.55c-1.23,0-2.23-0.69-2.54-1.44h-0.03v4.24h-1.44V177.66z M328.88,185.17c1.5,0,2.24-1.2,2.24-3.41
			c0-1.79-0.53-3.15-2.26-3.15c-1.49,0-2.4,1.26-2.4,2.69v0.9C326.46,183.85,327.28,185.17,328.88,185.17z"/>
		<path class="st13" d="M335,177.66h1.36v1.58h0.03c0.38-0.88,1.44-1.75,2.67-1.75h0.14v1.5h-0.27c-1.5,0-2.5,0.86-2.5,2.5v4.59H335
			V177.66z"/>
		<path class="st13" d="M341.39,174.19h1.52v1.55h-1.52V174.19z M341.42,177.66h1.46v8.44h-1.46V177.66z"/>
		<path class="st13" d="M351.41,180.89c0-0.61,0-1.28-0.3-1.68c-0.29-0.4-0.77-0.56-1.33-0.56c-1.57,0-2.29,1.01-2.29,2.39v5.06
			h-1.44v-8.44h1.36v1.42h0.03c0.4-0.86,1.38-1.63,2.72-1.63c1.62,0,2.69,0.77,2.69,2.77v5.87h-1.44V180.89z"/>
		<path class="st13" d="M357.71,175.21v2.45h2.08v1.1h-2.08v4.98c0,0.9,0.37,1.25,1.28,1.25c0.43,0,0.93-0.08,0.93-0.08v1.22
			c0,0-0.59,0.1-1.33,0.1c-1.65,0-2.31-0.8-2.31-2.24v-5.22h-1.54v-1.06H355c1.14,0,1.39-0.27,1.39-1.89v-0.61H357.71z"/>
		<path class="st13" d="M363.03,180.83c0-3.26-0.83-5.39-1.75-7.35h1.09c0.91,1.81,2.13,4.1,2.13,7.35c0,3.23-1.22,5.54-2.13,7.35
			h-1.09C362.2,186.21,363.03,184.08,363.03,180.83z"/>
		<path class="st13" d="M371.06,177.66h1.47l1.82,5.43c0.24,0.69,0.42,1.33,0.42,1.33h0.03c0,0,0.18-0.64,0.42-1.33l1.87-5.43h1.38
			l-2.93,8.44h-1.52L371.06,177.66z"/>
		<path class="st13" d="M383.5,186.3c-2.58,0-3.81-1.87-3.81-4.39c0-2.5,1.34-4.47,3.76-4.47c2.53,0,3.52,1.95,3.52,4.08v0.74h-5.81
			c0.1,1.74,0.8,2.93,2.39,2.93c1.41,0,1.78-0.82,1.92-1.31h1.39C386.56,185.34,385.31,186.3,383.5,186.3z M385.5,181.04
			c-0.03-1.41-0.59-2.5-2.06-2.5c-1.34,0-2.08,1.06-2.26,2.59h4.32V181.04z"/>
		<path class="st13" d="M389.32,177.66h1.36v1.58h0.03c0.38-0.88,1.44-1.75,2.67-1.75h0.14v1.5h-0.27c-1.5,0-2.5,0.86-2.5,2.5v4.59
			h-1.44V177.66z"/>
		<path class="st13" d="M399.74,179.77c-0.08-0.75-0.69-1.23-1.68-1.23s-1.65,0.58-1.65,1.36c0,0.69,0.42,1.01,1.26,1.15l1.3,0.19
			c1.76,0.27,2.4,0.99,2.4,2.45c0,1.7-1.38,2.61-3.3,2.61c-1.75,0-3.19-0.78-3.3-2.59h1.41c0.06,0.66,0.43,1.49,1.92,1.49
			c1.15,0,1.87-0.54,1.87-1.42c0-0.67-0.18-1.04-1.33-1.23l-1.3-0.19c-1.5-0.24-2.3-0.86-2.3-2.34c0-1.49,1.14-2.56,3.06-2.56
			c1.83,0,2.87,0.85,3.01,2.32H399.74z"/>
		<path class="st13" d="M403.83,174.19h1.52v1.55h-1.52V174.19z M403.87,177.66h1.46v8.44h-1.46V177.66z"/>
		<path class="st13" d="M407.74,181.87c0-2.61,1.44-4.42,3.79-4.42c2.51,0,3.76,1.81,3.76,4.42c0,2.64-1.42,4.43-3.79,4.43
			C409.02,186.3,407.74,184.51,407.74,181.87z M409.23,181.87c0,2.06,0.69,3.31,2.32,3.31c1.57,0,2.26-1.25,2.26-3.31
			c0-2.05-0.67-3.31-2.29-3.31C409.98,178.56,409.23,179.82,409.23,181.87z"/>
		<path class="st13" d="M423.08,180.89c0-0.61,0-1.28-0.3-1.68c-0.29-0.4-0.77-0.56-1.33-0.56c-1.57,0-2.29,1.01-2.29,2.39v5.06
			h-1.44v-8.44h1.36v1.42h0.03c0.4-0.86,1.38-1.63,2.72-1.63c1.62,0,2.69,0.77,2.69,2.77v5.87h-1.44V180.89z"/>
		<path class="st13" d="M431.77,179.77c-0.08-0.75-0.69-1.23-1.68-1.23s-1.65,0.58-1.65,1.36c0,0.69,0.42,1.01,1.26,1.15l1.3,0.19
			c1.76,0.27,2.4,0.99,2.4,2.45c0,1.7-1.38,2.61-3.3,2.61c-1.75,0-3.19-0.78-3.3-2.59h1.41c0.06,0.66,0.43,1.49,1.92,1.49
			c1.15,0,1.87-0.54,1.87-1.42c0-0.67-0.18-1.04-1.33-1.23l-1.3-0.19c-1.5-0.24-2.3-0.86-2.3-2.34c0-1.49,1.14-2.56,3.06-2.56
			c1.83,0,2.87,0.85,3.01,2.32H431.77z"/>
		<path class="st13" d="M435.32,184.14h1.95v1.95h-1.95V184.14z"/>
	</g>
</g>
</svg>
