<svg xmlns="http://www.w3.org/2000/svg" width="286.299" height="136.063" viewBox="0 0 286.299 136.063">
  <title>Logo_OERAG_Immobilien</title>
  <g>
    <g>
      <path d="M247.73,44.243V58.816h20.548a21.174,21.174,0,0,1-7.553,12.608,23.9,23.9,0,0,1-15.759,5.906c-6.873,0-13.361-2.69-19.279-8a28.283,28.283,0,0,1-9.51-21.873c0-8.56,2.872-15.772,8.546-21.447a28.6,28.6,0,0,1,21.159-8.692c9.3,0,17.325,4.4,23.844,13.08l.937,1.249,11.03-10.564-.874-1c-5.307-6.065-10.8-10.516-16.35-13.24a45.2,45.2,0,0,0-50.6,8.966,43.232,43.232,0,0,0-13.073,31.7A45.955,45.955,0,0,0,202.2,58.788l-27-57.255L138.456,76.7,122.208,54.338a23.772,23.772,0,0,0,12.127-8.114h0A25.1,25.1,0,0,0,139.7,30.165c0-7.934-2.883-14.416-8.574-19.272-5.121-4.33-13.435-6.526-24.713-6.526h-16.1V41.3A42.768,42.768,0,0,0,77.646,16.07,42.969,42.969,0,0,0,54.8,3.777l-1.4-.26V18l.881.234a27.973,27.973,0,0,1,12.9,7.642,29.43,29.43,0,0,1,8.547,21.455A29.581,29.581,0,0,1,67.073,68.78a28.932,28.932,0,0,1-21.25,8.694,28.748,28.748,0,0,1-20.466-8.553c-5.907-5.661-8.9-13-8.9-21.809a28.963,28.963,0,0,1,8.6-21.24,28.415,28.415,0,0,1,12.854-7.613l.877-.238V3.551l-1.409.267A43.626,43.626,0,0,0,14.652,15.952,42.079,42.079,0,0,0,1.417,46.977c0,13.625,4.887,24.8,14.526,33.228C24.675,87.8,34.673,91.651,45.66,91.651A44.261,44.261,0,0,0,77.583,78.758,41.97,41.97,0,0,0,90.319,53.64v36.7h15.327V56.283h.155l23.763,34.058h18.86l9.268-20.208h33.82l8.73,20.208h16.837l-7.927-16.81a47.675,47.675,0,0,0,4.491,5.351A42.043,42.043,0,0,0,244.537,91.9c12.284,0,22.549-4.544,30.513-13.511a36.831,36.831,0,0,0,7.563-13.012,58.519,58.519,0,0,0,2.269-17V44.243ZM185.142,55.559H164.234l10.7-22.244ZM124.7,30.325c0,8.242-5.382,12.249-16.452,12.249h-2.6V18.94h3.087C119.478,18.94,124.7,22.664,124.7,30.325Z" fill="#cd132c"/>
      <rect x="156.234" y="106.184" width="2.387" height="28.346" fill="#cd132c"/>
      <g>
        <path d="M14.861,109.051V130.73H13.432V109.051Z" fill="#575756"/>
        <path d="M20.452,117.469h1.3v1.658a3.774,3.774,0,0,1,3.445-1.95,3.661,3.661,0,0,1,3.705,2.4,4.111,4.111,0,0,1,3.933-2.4,4.056,4.056,0,0,1,2.99,1.1,4.842,4.842,0,0,1,1.137,3.608v8.841h-1.3v-8.841a3.845,3.845,0,0,0-.78-2.73,2.641,2.641,0,0,0-1.983-.748c-3.509,0-3.542,3.511-3.542,4.323v8h-1.3v-8.516c0-.845-.065-3.8-2.925-3.8-2.308,0-3.38,2.016-3.38,4.649v7.67h-1.3Z" fill="#575756"/>
        <path d="M41.967,117.469h1.3v1.658a3.773,3.773,0,0,1,3.445-1.95,3.662,3.662,0,0,1,3.7,2.4,4.111,4.111,0,0,1,3.933-2.4,4.056,4.056,0,0,1,2.99,1.1,4.842,4.842,0,0,1,1.137,3.608v8.841h-1.3v-8.841a3.85,3.85,0,0,0-.78-2.73,2.643,2.643,0,0,0-1.983-.748c-3.51,0-3.542,3.511-3.542,4.323v8h-1.3v-8.516c0-.845-.064-3.8-2.924-3.8-2.308,0-3.38,2.016-3.38,4.649v7.67h-1.3Z" fill="#575756"/>
        <path d="M76.547,124.132a6.956,6.956,0,1,1-6.956-6.955A6.842,6.842,0,0,1,76.547,124.132Zm-1.365,0a5.592,5.592,0,1,0-5.591,5.72A5.56,5.56,0,0,0,75.182,124.132Z" fill="#575756"/>
        <path d="M82.006,107.036v12.74a6.233,6.233,0,0,1,5.2-2.6c4,0,6.436,2.99,6.436,6.825,0,3.9-2.47,7.085-6.5,7.085a5.771,5.771,0,0,1-5.136-2.73v2.373h-1.3V107.036ZM92.276,124c0-3.641-2.405-5.591-5.134-5.591a5.156,5.156,0,0,0-5.2,5.526c0,3.315,1.82,5.915,5.167,5.915S92.276,127.252,92.276,124Z" fill="#575756"/>
        <path d="M97.28,113.049a1.17,1.17,0,1,1,1.17,1.2A1.153,1.153,0,0,1,97.28,113.049Zm1.821,4.42V130.73H97.8V117.469Z" fill="#575756"/>
        <path d="M105.405,107.036V130.73h-1.3V107.036Z" fill="#575756"/>
        <path d="M109.89,113.049a1.17,1.17,0,1,1,1.17,1.2A1.153,1.153,0,0,1,109.89,113.049Zm1.82,4.42V130.73h-1.3V117.469Z" fill="#575756"/>
        <path d="M117.235,124.262a5.324,5.324,0,0,0,5.265,5.59,5.059,5.059,0,0,0,4.615-3.023l1.106.651a6.409,6.409,0,0,1-5.819,3.607c-4.127,0-6.532-3.055-6.532-6.923,0-4.615,3.185-6.987,6.435-6.987,3.575,0,6.273,2.859,6.273,7.085Zm9.978-1.236a4.981,4.981,0,0,0-4.908-4.615,5.068,5.068,0,0,0-4.973,4.615Z" fill="#575756"/>
        <path d="M132.737,117.469h1.3v2.08a4.427,4.427,0,0,1,4.063-2.372,4.114,4.114,0,0,1,3.672,1.852,6.391,6.391,0,0,1,.651,3.348v8.353h-1.3v-8.353a4.92,4.92,0,0,0-.519-2.665,2.818,2.818,0,0,0-2.6-1.3,3.489,3.489,0,0,0-3.25,1.853,7.2,7.2,0,0,0-.715,3.575v6.891h-1.3Z" fill="#575756"/>
      </g>
      <g>
        <path d="M182.228,112.726a4.634,4.634,0,0,0-4.258-2.665,3.853,3.853,0,0,0-4.03,4.03c0,2.34,1.625,3.12,3.8,4.192a30.473,30.473,0,0,1,4.323,2.276,4.765,4.765,0,0,1,2.307,4.192,6.487,6.487,0,0,1-6.76,6.338,6.188,6.188,0,0,1-5.037-2.275,7.117,7.117,0,0,1-1.4-2.372l1.235-.585a7.535,7.535,0,0,0,1.17,2.08,5.214,5.214,0,0,0,4.063,1.852,5.04,5.04,0,0,0,5.233-5,3.814,3.814,0,0,0-2.113-3.413c-.617-.357-1.885-1.008-3.672-1.885-2.145-1.04-3.218-1.625-3.966-2.86a4.663,4.663,0,0,1-.682-2.47,5.266,5.266,0,0,1,5.558-5.4,5.811,5.811,0,0,1,5.265,3.088Z" fill="#575756"/>
        <path d="M189.313,124.264a5.324,5.324,0,0,0,5.264,5.59,5.061,5.061,0,0,0,4.616-3.023l1.1.651a6.407,6.407,0,0,1-5.818,3.607c-4.127,0-6.532-3.055-6.532-6.923,0-4.615,3.184-6.987,6.434-6.987,3.575,0,6.274,2.859,6.274,7.085Zm9.977-1.236a4.981,4.981,0,0,0-4.908-4.615,5.068,5.068,0,0,0-4.972,4.615Z" fill="#575756"/>
        <path d="M204.294,113.051a1.17,1.17,0,1,1,1.17,1.2A1.153,1.153,0,0,1,204.294,113.051Zm1.821,4.42v13.261h-1.3V117.471Z" fill="#575756"/>
        <path d="M212.517,118.706v12.026h-1.3V118.706h-1.462v-1.235h1.462v-4.745h1.3v4.745h2.308v1.235Z" fill="#575756"/>
        <path d="M228.571,110.354h-3.38l.65-1.3H230v21.679h-1.43Z" fill="#575756"/>
        <path d="M247.031,124.979a6.275,6.275,0,0,1-12.545,0,5.694,5.694,0,0,1,3.542-5.493,5.5,5.5,0,0,1-3.023-5.005,5.753,5.753,0,0,1,11.506,0,5.5,5.5,0,0,1-3.023,5.005A5.7,5.7,0,0,1,247.031,124.979Zm-1.5,0a4.778,4.778,0,1,0-4.778,4.81A4.634,4.634,0,0,0,245.536,124.979Zm-.52-10.5a4.26,4.26,0,1,0-4.258,4.387A4.251,4.251,0,0,0,245.016,114.481Z" fill="#575756"/>
        <path d="M262.7,110.354H249.533v-1.3h15.7l-15.5,22.036-1.073-.813Z" fill="#575756"/>
        <path d="M271.438,110.354h-3.38l.649-1.3h4.161v21.679h-1.43Z" fill="#575756"/>
      </g>
    </g>
    <rect width="286.299" height="136.063" fill="none"/>
  </g>
</svg>
