<?xml version="1.0" encoding="utf-8"?>
<!-- Generator: Adobe Illustrator 25.0.0, SVG Export Plug-In . SVG Version: 6.00 Build 0)  -->
<svg version="1.1" id="Ebene_1" xmlns="http://www.w3.org/2000/svg" xmlns:xlink="http://www.w3.org/1999/xlink" x="0px" y="0px"
	 viewBox="0 0 520 187" style="enable-background:new 0 0 520 187;" xml:space="preserve">
<style type="text/css">
	.st0{fill:#6097D0;}
	.st1{fill:#FFFFFF;}
	.st2{fill:#6599D2;}
	.st3{fill:#649CD4;}
	.st4{display:none;}
	.st5{display:inline;}
	.st6{clip-path:url(#SVGID_2_);}
	.st7{clip-path:url(#SVGID_4_);fill:#5C5857;}
	.st8{display:inline;opacity:0.5;fill:#D6D4D4;enable-background:new    ;}
	.st9{clip-path:url(#SVGID_6_);}
	.st10{clip-path:url(#SVGID_8_);fill:#5C5857;}
	.st11{fill:#5C5856;}
	.st12{fill:#A29F9D;}
</style>
<g id="Your_design">
	<g>
		<polygon class="st0" points="263.5,191.9 263,192.9 263.5,191.9 		"/>
		<g>
			<g>
				<path class="st1" d="M209,56.9V78c0,0.5,0.2,0.8,0.5,1.1c0.4,0.2,1.1,0.3,2.1,0.3l0.5,2.1c-3.1-0.1-5.3-0.1-6.4-0.1
					s-2.7,0-4.8,0.1l-0.5-2.1c1.3,0,2.1-0.2,2.5-0.4c0.4-0.2,0.6-0.6,0.6-1V56.9c0-0.5-0.2-0.8-0.5-1.1c-0.4-0.2-1.1-0.3-2.1-0.3
					l-0.5-2.1c3.1,0.1,5.3,0.1,6.5,0.1s2.8,0,4.7-0.1l0.5,2.1c-1.3,0-2.1,0.2-2.5,0.4C209.2,56.1,209,56.5,209,56.9z"/>
				<path class="st1" d="M243.7,53.3l3.9,0.2c1,0,2.4,0,4.4-0.1l0.5,2.1c-1.3,0-2.1,0.2-2.5,0.4c-0.4,0.2-0.6,0.6-0.6,1V78
					c0,0.5,0.2,0.8,0.5,1.1c0.4,0.2,1.1,0.3,2.1,0.3l0.5,2.1c-3.1-0.1-5.3-0.1-6.4-0.1s-2.7,0-4.8,0.1l-0.5-2.1
					c1.3,0,2.1-0.2,2.5-0.4c0.4-0.2,0.6-0.6,0.6-1V61.6c-0.8,1.6-2.2,4.7-4.4,9.2c-2.2,4.6-3.8,8-5,10.4l-1,0.5l-10.4-20.9V78
					c0,0.5,0.2,0.8,0.5,1.1c0.4,0.2,1.1,0.3,2.1,0.3l0.5,2.1c-3.1-0.1-5.1-0.1-5.8-0.1c-0.7,0-2.1,0-4.1,0.1l-0.5-2.1
					c2.3-0.1,3.4-0.5,3.4-1.4V56.9c0-0.9-1-1.4-2.9-1.4l-0.5-2.1c3.1,0.1,5.3,0.1,6.4,0.1s2,0,2.7-0.1c0.5,1.5,1.4,3.5,2.7,6.1
					c1.3,2.6,2.2,4.3,2.5,5.2c0.6,1.6,2.2,4.7,4.7,9.2c1.1-2.4,2-4.5,2.8-6.3c0.8-1.9,1.5-3.5,2.1-4.7c0.6-1.3,1.1-2.5,1.7-3.7
					C242.9,55.7,243.7,53.8,243.7,53.3z"/>
				<path class="st1" d="M284.1,53.3l3.9,0.2c1,0,2.5,0,4.5-0.1l0.5,2.1c-1.3,0-2.1,0.2-2.5,0.4s-0.6,0.6-0.6,1V78
					c0,0.5,0.2,0.8,0.5,1.1c0.4,0.2,1,0.3,2.1,0.3l0.5,2.1c-3.1-0.1-5.3-0.1-6.5-0.1s-2.7,0-4.8,0.1l-0.5-2.1c1.3,0,2.1-0.2,2.5-0.4
					c0.4-0.2,0.6-0.6,0.6-1V61.6c-0.8,1.6-2.2,4.7-4.4,9.2c-2.2,4.6-3.8,8-5,10.4l-1,0.5l-10.4-20.9V78c0,0.5,0.2,0.8,0.5,1.1
					c0.4,0.2,1.1,0.3,2.1,0.3l0.5,2.1c-3.1-0.1-5.1-0.1-5.8-0.1s-2.1,0-4.1,0.1l-0.5-2.1c2.3-0.1,3.4-0.5,3.4-1.4V56.9
					c0-0.9-1-1.4-2.9-1.4l-0.5-2.1c3.1,0.1,5.3,0.1,6.4,0.1s2,0,2.7-0.1c0.5,1.5,1.4,3.5,2.7,6.1s2.2,4.3,2.5,5.2
					c0.6,1.6,2.2,4.7,4.7,9.2c1-2.4,2-4.5,2.8-6.3c0.8-1.9,1.5-3.5,2.1-4.7s1.1-2.5,1.7-3.7C283.4,55.7,284.1,53.8,284.1,53.3z"/>
				<path class="st1" d="M311.9,81.9c-4.3,0-7.9-1.3-10.7-3.9c-2.8-2.6-4.2-5.9-4.2-10.1s1.5-7.7,4.5-10.6s6.6-4.4,10.9-4.4
					s7.8,1.3,10.6,3.9s4.1,6,4.1,10.2s-1.5,7.7-4.4,10.5C319.9,80.5,316.2,81.9,311.9,81.9z M307.4,77.2c1.5,1.3,3.5,1.9,5.8,1.9
					s4.2-1,5.6-3s2.1-4.5,2.1-7.5c0-3.7-0.8-6.8-2.5-9.2c-1.6-2.4-4-3.7-7.2-3.7c-2.5,0-4.5,1-5.9,3.1c-1.5,2-2.2,4.6-2.2,7.5
					C303.2,71.3,304.6,74.9,307.4,77.2z"/>
				<path class="st1" d="M343,81.6l-5.6-0.2c-1.8,0-3.7,0-5.7,0.1l-0.5-2.1c1.3,0,2.1-0.2,2.5-0.4c0.4-0.2,0.6-0.6,0.6-1V56.9
					c0-0.5-0.2-0.8-0.5-1.1c-0.4-0.2-1.1-0.3-2.1-0.3l-0.5-2.1c3.1,0.1,5,0.1,5.5,0.1l6.3-0.2c6.2,0,9.3,2.2,9.3,6.5
					c0,2.9-1.8,5-5.2,6.4c2,0.4,3.7,1.2,5.1,2.4s2.1,2.8,2.1,4.5c0,2.7-1,4.8-2.9,6.2C349.5,80.8,346.7,81.6,343,81.6z M346.7,60.6
					c0-1.6-0.5-2.8-1.4-3.6s-2.1-1.2-3.5-1.2c-1.4,0-2.1,0.1-2.1,0.3v9.6c0,0,0.6,0,1.6,0c1.6,0,3-0.5,3.9-1.4
					S346.7,62.2,346.7,60.6z M339.8,76.9c0,1.5,1,2.2,2.9,2.2s3.4-0.5,4.4-1.6s1.5-2.3,1.5-3.8c0-2.1-0.6-3.5-2-4.4
					c-1.3-0.9-2.7-1.4-4.3-1.4s-2.4,0-2.4,0V76.9z"/>
				<path class="st1" d="M366.9,56.9V78c0,0.5,0.2,0.8,0.5,1.1c0.4,0.2,1.1,0.3,2.1,0.3l0.5,2.1c-3.1-0.1-5.3-0.1-6.5-0.1
					c-1.1,0-2.7,0-4.8,0.1l-0.5-2.1c1.3,0,2.1-0.2,2.5-0.4c0.4-0.2,0.6-0.6,0.6-1V56.9c0-0.5-0.2-0.8-0.5-1.1
					c-0.4-0.2-1.1-0.3-2.1-0.3l-0.5-2.1c3.1,0.1,5.3,0.1,6.5,0.1s2.8,0,4.7-0.1l0.5,2.1c-1.3,0-2.1,0.2-2.5,0.4
					C367.1,56.1,366.9,56.5,366.9,56.9z"/>
				<path class="st1" d="M385.5,81.5l-6.2-0.1c-1.4,0-3.1,0-5.1,0.1l-0.5-2.1c1.3,0,2.1-0.2,2.5-0.4c0.4-0.2,0.6-0.6,0.6-1l0.2-21.1
					c0-0.5-0.2-0.8-0.5-1.1c-0.4-0.2-1.1-0.3-2.1-0.3l-0.5-2.1c3.1,0.1,5.3,0.1,6.5,0.1s2.8,0,4.7-0.1l0.5,2.1
					c-1.3,0-2.1,0.2-2.5,0.4c-0.4,0.2-0.6,0.6-0.6,1v20c0,1.4,0.6,2.1,1.9,2.1h3.7c3.5,0,6-1.9,7.2-5.7l2.1,0.4
					c0,0.4-0.4,1.8-1.1,4.2s-1.3,3.5-1.7,3.5L385.5,81.5z"/>
				<path class="st1" d="M408.6,56.9V78c0,0.5,0.2,0.8,0.5,1.1c0.4,0.2,1.1,0.3,2.1,0.3l0.5,2.1c-3.1-0.1-5.3-0.1-6.5-0.1
					c-1.1,0-2.7,0-4.8,0.1l-0.5-2.1c1.3,0,2.1-0.2,2.5-0.4c0.4-0.2,0.6-0.6,0.6-1V56.9c0-0.5-0.2-0.8-0.5-1.1
					c-0.4-0.2-1.1-0.3-2.1-0.3l-0.5-2.1c3.1,0.1,5.3,0.1,6.5,0.1s2.8,0,4.7-0.1l0.5,2.1c-1.3,0-2.1,0.2-2.5,0.4
					C408.8,56.1,408.6,56.5,408.6,56.9z"/>
				<path class="st1" d="M431.5,55.8l-4.9,0h-0.9c-1.1,0-1.6,0.1-1.6,0.2v9.7h6.5c0.3,0,0.5-1.3,0.5-3.8l2.2-0.3l-0.1,5.4
					c0,1.5,0,3.1,0.1,4.8l-2.3,0.4c0-1.5,0-2.4-0.1-2.9c0-0.4-0.2-0.6-0.4-0.6H424v8.1c0,0.9,0.2,1.4,0.7,1.7s1.3,0.4,2.4,0.4h3.7
					c3.5,0,6-1.9,7.2-5.7l2.1,0.4c0,0.4-0.4,1.8-1.1,4.2s-1.3,3.5-1.7,3.5l-9.1,0l-7.2,0c-1.4,0-3.1,0-5.1,0.1l-0.5-2.1
					c1.3,0,2.1-0.2,2.5-0.4c0.4-0.2,0.6-0.6,0.6-1V56.9c0-0.5-0.2-0.8-0.5-1.1c-0.4-0.2-1.1-0.3-2.1-0.3l-0.5-2.1
					c3.1,0.1,5,0.1,5.5,0.1h10.2l6.1,0c0.3,0.7,0.5,1.8,0.5,3.4s-0.1,3-0.2,4.2l-1.7-0.3c-0.3-1.8-0.8-3.1-1.4-3.9
					C433.7,56.2,432.8,55.8,431.5,55.8z"/>
				<path class="st1" d="M470.3,81.6c-0.5-0.1-1.1-0.2-1.7-0.2c-0.6,0-1.1,0-1.5,0.1l-16.6-21.1V78c0,0.5,0.2,0.8,0.5,1.1
					c0.4,0.2,1.1,0.3,2.1,0.3l0.5,2.1c-3.1-0.1-5.1-0.1-5.8-0.1s-2.1,0-4.1,0.1l-0.5-2.1c2.3-0.1,3.4-0.5,3.4-1.4V56.9
					c0-0.9-1-1.4-2.9-1.4l-0.5-2.1c3.1,0.1,5.3,0.1,6.4,0.1s2,0,2.7-0.1c0,0.3,0.2,0.7,0.5,1.3c0.4,0.5,0.7,1,0.9,1.4s0.6,0.8,1,1.4
					c0.4,0.5,0.8,1,1.1,1.4s0.7,0.9,1.2,1.5c1.7,2.2,2.8,3.5,3.2,4s1.4,1.8,3.2,4.1c1.7,2.3,2.8,3.6,3.2,4.1l0-15.5
					c0-0.5-0.2-0.8-0.5-1.1c-0.4-0.2-1.1-0.3-2.1-0.3l-0.5-2.1c3.1,0.1,5.1,0.1,5.8,0.1s2.1,0,4.1-0.1l0.5,2.1
					c-2.3,0-3.4,0.5-3.4,1.4L470.3,81.6z"/>
				<path class="st1" d="M228,119.4l-3.9-0.1c-0.8,0-2.3,0-4.5,0.1c-0.2-0.3-0.5-0.7-0.9-1.3c-0.4-0.5-0.8-1.2-1.3-2
					c-0.5-0.8-1.4-2.2-2.8-4.2c-1.4-2.1-2.4-3.5-3.1-4.5c0,0,0,0,0,0H209v8.5c0,0.5,0.2,0.8,0.5,1.1s1.1,0.3,2.1,0.3l0.5,2.1
					c-3.1-0.1-5.3-0.1-6.4-0.1s-2.7,0-4.8,0.1l-0.5-2.1c1.3,0,2.1-0.2,2.5-0.4c0.4-0.2,0.6-0.6,0.6-1V94.8c0-0.5-0.2-0.8-0.5-1.1
					c-0.4-0.2-1.1-0.3-2.1-0.3l-0.5-2.1c3.1,0.1,5,0.1,5.5,0.1l5.9-0.2c3.1,0,5.6,0.6,7.6,1.9c1.9,1.3,2.9,3.2,2.9,5.8
					c0,3.5-1.8,6-5.5,7.4c1.1,1.4,1.9,2.5,2.4,3.3h0c2.9,4,4.5,6.1,4.7,6.3c0.9,0.9,2.1,1.4,3.3,1.5L228,119.4z M209,94v11.2
					c0.4,0,1,0,1.6,0c2.1,0,3.6-0.6,4.7-1.7c1.1-1.1,1.6-2.6,1.6-4.4c0-1.8-0.5-3.2-1.6-4.1c-1.1-0.9-2.4-1.3-4-1.3S209,93.8,209,94
					z"/>
				<path class="st1" d="M246,93.7l-4.9,0h-0.9c-1.1,0.1-1.6,0.1-1.6,0.2v9.7h6.5c0.3,0,0.5-1.3,0.5-3.8l2.2-0.3l-0.1,5.4
					c0,1.5,0,3.1,0.1,4.8l-2.3,0.4c0-1.5,0-2.4-0.1-2.9c-0.1-0.4-0.2-0.6-0.4-0.6h-6.4v8.1c0,0.9,0.2,1.4,0.7,1.7s1.3,0.4,2.4,0.4
					h3.7c3.5,0,5.9-1.9,7.2-5.7l2.1,0.4c0,0.4-0.4,1.8-1.1,4.2s-1.3,3.5-1.7,3.5l-9.1,0l-7.2,0c-1.4,0-3.1,0-5.1,0.1l-0.5-2.1
					c1.3,0,2.1-0.2,2.5-0.4c0.4-0.2,0.6-0.6,0.6-1V94.8c0-0.5-0.2-0.8-0.5-1.1c-0.4-0.2-1.1-0.3-2.1-0.3l-0.5-2.1
					c3.1,0.1,5,0.1,5.5,0.1h10.2l6.1,0c0.3,0.7,0.5,1.8,0.5,3.4s-0.1,3-0.2,4.2l-1.7-0.3c-0.3-1.8-0.8-3.1-1.4-3.9
					C248.2,94.1,247.2,93.7,246,93.7z"/>
				<path class="st1" d="M270.3,119.4l-7.1-0.2c-1.4,0-3.1,0-5.1,0.1l-0.5-2.1c1.3,0,2.1-0.2,2.5-0.4c0.4-0.2,0.6-0.6,0.6-1v-21
					c0-0.5-0.2-0.8-0.5-1.1c-0.4-0.2-1.1-0.3-2.1-0.3l-0.5-2.1c3.1,0.1,5,0.1,5.5,0.1l7.9-0.1c5.2,0,9.3,1.2,12.2,3.5
					s4.4,5.7,4.4,10.1s-1.5,7.9-4.5,10.5C280.1,118.1,275.8,119.4,270.3,119.4z M278.9,114c1.7-2,2.6-4.8,2.6-8.6s-1-6.6-3-8.7
					c-2-2.1-4.8-3.1-8.5-3.1h-3c-0.7,0-1,0.1-1,0.3v20.4c0,0.7,0.1,1.2,0.2,1.5s0.6,0.6,1.4,0.8s2,0.3,3.7,0.3
					C274.7,116.9,277.2,116,278.9,114z"/>
				<path class="st1" d="M295.6,119.3l-4.8,0.2l-0.3-2.2c0.9-0.1,1.7-0.3,2.2-0.7s1-0.8,1.3-1.2s0.5-1.1,0.9-1.9l8.2-22.1h3.4
					l9.3,22.7c0.5,1.2,1,2,1.5,2.5s1.2,0.7,2.2,0.7l0.4,2.1c-1.2-0.1-3.2-0.1-5.9-0.1s-4.8,0-6,0.1l-0.4-2.1c1.4,0,2.3-0.1,2.6-0.3
					c0.3-0.2,0.5-0.4,0.5-0.7s-0.1-0.6-0.2-0.9l-2.6-5.9h-8.5l-1.6,4.7c-0.1,0.3-0.2,0.6-0.2,0.8c0,0.6,0.3,1.1,1,1.5
					c0.7,0.4,1.7,0.7,3,0.7l0.4,2.2L295.6,119.3z M303.3,98.5l-3,8.5h6.6L303.3,98.5z"/>
				<path class="st1" d="M350.3,119.4l-5-0.1c-1.1,0-2,0-2.8,0c-1-1.2-3.1-3.6-6.2-7.1c-3.1-3.5-4.9-5.3-5.2-5.3h0v8.8
					c0,0.5,0.2,0.8,0.5,1.1c0.4,0.2,1.1,0.3,2.1,0.3l0.5,2.1c-3.1-0.1-5.3-0.1-6.5-0.1c-1.1,0-2.7,0-4.8,0.1l-0.5-2.1
					c1.3,0,2.1-0.2,2.5-0.4c0.4-0.2,0.6-0.6,0.6-1V94.8c0-0.5-0.2-0.8-0.5-1.1c-0.4-0.2-1.1-0.3-2.1-0.3l-0.5-2.1
					c3.1,0.1,5.3,0.1,6.5,0.1s2.8,0,4.7-0.1l0.5,2.1c-1.3,0-2.1,0.2-2.5,0.4c-0.4,0.2-0.6,0.6-0.6,1v9.4c1.6-1.5,3.6-3.5,5.9-6.1
					s3.5-3.9,3.5-4.3c0-0.3-0.9-0.5-2.6-0.5l-0.5-2.1c3.1,0.1,5.3,0.1,6.5,0.1c1.1,0,2.7,0,4.8-0.1l0.5,2.1
					c-2.7,0.1-4.4,0.5-5.1,1.3l-8.7,9.3l11,11.9c1,0.9,2.2,1.4,3.6,1.4L350.3,119.4z"/>
				<path class="st1" d="M369,94h-2.2v21.9c0,0.5,0.2,0.9,0.6,1.1c0.4,0.2,1.2,0.3,2.4,0.3l0.5,2.1c-3.1-0.1-5.4-0.1-6.8-0.1
					s-3.1,0-5.1,0.1l-0.5-2.1c1.4,0,2.4-0.2,2.8-0.4c0.5-0.2,0.7-0.6,0.7-1V94h-1.3c-2.4,0-3.9,0.3-4.5,0.9c-0.5,0.4-1,1.8-1.4,4
					l-1.8,0c-0.3-1.3-0.4-2.6-0.4-4s0.2-2.7,0.5-3.9c1,0.2,2.2,0.3,3.5,0.3H373c1.8,0,3.1-0.1,4-0.3c0.2,1.8,0.2,3.3,0.2,4.3
					s-0.1,2.3-0.4,3.7l-1.9-0.3c-0.3-2.1-0.8-3.4-1.4-3.9C372.6,94.3,371.1,94,369,94z"/>
				<path class="st1" d="M389.1,94.8v21.1c0,0.5,0.2,0.8,0.5,1.1c0.4,0.2,1.1,0.3,2.1,0.3l0.5,2.1c-3.1-0.1-5.3-0.1-6.5-0.1
					c-1.1,0-2.7,0-4.8,0.1l-0.5-2.1c1.3,0,2.1-0.2,2.5-0.4c0.4-0.2,0.6-0.6,0.6-1V94.8c0-0.5-0.2-0.8-0.5-1.1
					c-0.4-0.2-1.1-0.3-2.1-0.3l-0.5-2.1c3.1,0.1,5.3,0.1,6.5,0.1s2.8,0,4.7-0.1l0.5,2.1c-1.3,0-2.1,0.2-2.5,0.4
					C389.3,94,389.1,94.3,389.1,94.8z"/>
				<path class="st1" d="M411.2,119.8c-4.3,0-7.9-1.3-10.7-3.9c-2.8-2.6-4.2-5.9-4.2-10.1s1.5-7.7,4.5-10.6s6.6-4.4,10.9-4.4
					s7.8,1.3,10.6,3.9s4.1,6,4.1,10.2s-1.5,7.7-4.4,10.5C419.1,118.4,415.5,119.8,411.2,119.8z M406.7,115.1
					c1.5,1.3,3.5,1.9,5.8,1.9s4.2-1,5.6-3s2.1-4.5,2.1-7.5c0-3.7-0.8-6.8-2.5-9.2c-1.6-2.4-4-3.7-7.2-3.7c-2.5,0-4.5,1-5.9,3.1
					c-1.5,2-2.2,4.6-2.2,7.6C402.5,109.1,403.9,112.8,406.7,115.1z"/>
				<path class="st1" d="M457.7,119.5c-0.5-0.1-1.1-0.2-1.7-0.2c-0.6,0-1.1,0-1.5,0.1l-16.7-21.1v17.6c0,0.5,0.2,0.8,0.5,1.1
					c0.4,0.2,1.1,0.3,2.1,0.3l0.5,2.1c-3.1-0.1-5.1-0.1-5.8-0.1s-2.1,0-4.1,0.1l-0.5-2.1c2.3-0.1,3.4-0.5,3.4-1.4V94.8
					c0-0.9-1-1.4-2.9-1.4l-0.5-2.1c3.1,0.1,5.3,0.1,6.4,0.1s2,0,2.7-0.1c0,0.3,0.2,0.7,0.5,1.3s0.7,1,0.9,1.4s0.6,0.8,1,1.4
					c0.4,0.5,0.8,1,1.1,1.4c0.3,0.4,0.7,0.9,1.2,1.5c1.7,2.2,2.8,3.5,3.2,4s1.4,1.8,3.2,4.1c1.7,2.3,2.8,3.6,3.2,4.1l0-15.5
					c0-0.5-0.2-0.8-0.5-1.1c-0.4-0.2-1.1-0.3-2.1-0.3l-0.5-2.1c3.1,0.1,5.1,0.1,5.8,0.1s2.1,0,4.1-0.1l0.5,2.1
					c-2.3,0.1-3.4,0.5-3.4,1.4L457.7,119.5z"/>
			</g>
		</g>
		<path class="st2" d="M93.1,65.1v70c-0.2-0.1-0.4-0.2-0.6-0.4c-1.5-0.9-2.9-1.9-4.4-2.9V72.4L61.6,83.3v19.9
			c-0.2-0.3-0.3-0.5-0.5-0.8c-1.6-2.8-3.1-5.7-4.5-8.6V79.9l0,0l31.4-12.8l0.1,0v-0.1L93.1,65.1z"/>
		<polygon class="st3" points="56.7,79.9 56.7,79.9 56.7,79.9 		"/>
		<polygon class="st3" points="88.2,67.1 88.2,67.1 88.1,67.1 		"/>
		<polygon class="st3" points="88.1,67.1 88.2,67.1 88.2,67.1 		"/>
		<path class="st2" d="M122.1,74v72c-1.7-0.3-3.3-0.6-4.9-1V77.5l-4.9-1.8v67.9c-0.6-0.2-1.2-0.4-1.8-0.6c-1.1-0.4-2.1-0.7-3.1-1.1
			v-68l-4.8-1.7v67.7c-1.7-0.8-3.3-1.6-4.9-2.4V65.2h0l4.5,1.6l0.5,0.2l9.8,3.5l0,0l4.9,1.8L122.1,74z"/>
		<polygon class="st3" points="112.2,70.4 112.2,70.4 112.2,70.4 		"/>
		<polygon class="st3" points="117.2,52.7 117.2,52.7 117.2,52.7 		"/>
		<polygon class="st2" points="154.1,38.5 154.1,104.5 149.1,103.1 149.1,45.7 122.1,56.1 122.1,74 117.2,72.2 117.2,52.7 
			117.2,52.7 149.1,40.4 		"/>
		<polygon class="st2" points="194.5,52.4 194.5,116.1 189.6,114.7 189.6,55.8 183.8,53.6 183.8,113 178.9,111.6 178.9,51.7 
			173.5,49.7 173.5,110.1 168.6,108.7 168.6,47.8 163.1,45.6 163.1,107.1 158.1,105.7 158.1,38.4 163.1,40.3 168.6,42.5 173.5,44.4 
			189.6,50.5 		"/>
		<path class="st2" d="M216.7,152l-47.8-7l-18.3-29.3L134,149.3h0l-0.3,0.7c-0.7,1.5-1.6,3.1-1.6,3.1h-0.1c-0.8,0-1.6-0.1-2.5-0.1
			c0,0-0.1,0-0.1,0c-0.2,0-0.4,0-0.6,0c-0.1,0-0.3,0-0.4,0c-6.3-0.4-12.4-1.5-18.2-3.2c-0.6-0.2-1.2-0.4-1.8-0.6
			c-1.1-0.3-2.1-0.7-3.1-1.1c-1.6-0.6-3.3-1.2-4.8-1.9c-1.7-0.7-3.3-1.5-4.9-2.3c-0.8-0.4-1.7-0.9-2.5-1.3c-0.8-0.4-1.6-0.9-2.4-1.4
			c-0.7-0.4-1.4-0.8-2.1-1.3c-0.8-0.5-1.5-0.9-2.3-1.5c-10.7-7.1-19.7-16.5-26.5-27.4c-0.3-0.5-0.6-1-0.9-1.5
			c-0.8-1.3-1.5-2.6-2.2-4c-0.6-1.2-1.2-2.4-1.8-3.6c-5.2-10.9-8.2-23-8.5-35.6c0-0.7,0-1.4,0-2.1v-0.2c0-0.5,0-1,0-1.5
			c0-0.6,0-1.2,0-1.7c0.5,12.2,3.5,24.1,8.5,35c1.3,2.9,2.8,5.8,4.5,8.6c0.2,0.3,0.3,0.5,0.5,0.8c0.2,0.4,0.5,0.8,0.7,1.2
			c6.7,10.8,15.5,20.2,25.8,27.4c1.4,1,2.9,2,4.4,2.9c0.2,0.1,0.4,0.2,0.6,0.4c1.4,0.9,2.9,1.7,4.4,2.5c1.6,0.9,3.3,1.7,4.9,2.4
			c1.6,0.7,3.2,1.4,4.8,2c1,0.4,2.1,0.8,3.1,1.1c0.6,0.2,1.2,0.4,1.8,0.6c1.6,0.5,3.3,0.9,4.9,1.3c1.6,0.4,3.3,0.7,4.9,1
			c2.6,0.5,5.3,0.8,8,1l21.6-41.8l44.9,12.6L216.7,152z"/>
		<g>
			<g>
				<path class="st1" d="M35.2,66.3l9.5,0.3l-0.1,2.6c0,1.5-0.5,2.6-1.3,3.4s-2,1.2-3.6,1.1c-0.8,0-1.5-0.2-2.1-0.4
					c-0.6-0.2-1.1-0.6-1.5-1c-0.4-0.4-0.7-0.9-0.9-1.5s-0.3-1.2-0.2-1.9L35.2,66.3z M36.5,68l0,0.7c0,1,0.2,1.7,0.8,2.3
					c0.5,0.5,1.4,0.8,2.6,0.9c1.2,0,2-0.2,2.6-0.7c0.5-0.5,0.8-1.2,0.9-2.2l0-0.7L36.5,68z"/>
				<path class="st1" d="M35.2,78l9.5-0.5l0.1,1.7l-9.5,0.5L35.2,78z"/>
				<path class="st1" d="M35.7,84.5l9.4-1.5l0.9,5.7L44.6,89L44,85l-2.4,0.4l0.5,3.4l-1.4,0.2l-0.5-3.4L37.4,86l0.6,4.2l-1.4,0.2
					L35.7,84.5z"/>
				<path class="st1" d="M40,103.4c-0.2-0.5-0.3-1-0.3-1.5s0.1-0.9,0.3-1.3s0.6-0.8,1-1.1s1.1-0.6,1.8-0.9l5-1.8l0.6,1.6l-5.2,1.8
					c-0.5,0.2-0.9,0.4-1.2,0.6c-0.3,0.2-0.5,0.4-0.7,0.7s-0.2,0.5-0.2,0.7s0,0.5,0.1,0.8c0.1,0.3,0.2,0.5,0.4,0.7
					c0.2,0.2,0.4,0.3,0.6,0.4c0.3,0.1,0.6,0.1,0.9,0.1c0.4,0,0.8-0.1,1.3-0.3l5.2-1.8l0.5,1.5l-5,1.8c-0.7,0.3-1.4,0.4-2,0.4
					c-0.6,0-1.1-0.1-1.5-0.2s-0.8-0.5-1.1-0.8S40.2,103.9,40,103.4z"/>
				<path class="st1" d="M43.4,111.5l8.5-4.3l0.8,1.6l-3.4,5.1l-1.4,1.8l0,0.1c0.4-0.3,0.9-0.5,1.4-0.8c0.5-0.3,1-0.6,1.4-0.8
					l3.7-1.9l0.7,1.4l-8.5,4.3l-0.8-1.6l3.4-5.1l1.4-1.8l0-0.1c-0.4,0.3-0.9,0.5-1.3,0.8c-0.5,0.3-0.9,0.6-1.4,0.8l-3.7,1.9
					L43.4,111.5z"/>
				<path class="st1" d="M48.6,121.3l9.6-2.8l1.1,1.6l-6.1,7.9l-1-1.5l1.7-2.1l-1.8-2.7l-2.5,0.8L48.6,121.3z M54.5,121.1l-1.2,0.4
					l1.4,2l0.8-0.9c0.3-0.4,0.7-0.8,1-1.2c0.4-0.4,0.7-0.8,1.1-1.2l0-0.1c-0.5,0.2-1,0.4-1.5,0.6C55.6,120.7,55.1,120.9,54.5,121.1z
					"/>
				<path class="st1" d="M55.6,131.1l7.2-6.3l2,2.3c0.3,0.4,0.6,0.7,0.8,1.1c0.2,0.4,0.3,0.7,0.4,1.1c0.1,0.4,0,0.7-0.1,1
					c-0.1,0.3-0.3,0.6-0.7,0.9c-0.3,0.3-0.7,0.5-1.2,0.6c-0.5,0.1-0.9,0-1.3-0.2l0,0c0.3,0.5,0.4,1,0.3,1.5s-0.3,1-0.8,1.4
					c-0.4,0.3-0.7,0.5-1.1,0.6c-0.4,0.1-0.8,0.1-1.2,0s-0.8-0.3-1.2-0.5s-0.7-0.6-1.1-1L55.6,131.1z M57.7,131.5l0.9,1.1
					c0.5,0.5,0.9,0.9,1.3,1s0.9,0,1.3-0.4c0.4-0.3,0.5-0.7,0.5-1.1s-0.3-0.9-0.8-1.5l-0.9-1.1L57.7,131.5z M60.9,128.7l0.8,0.9
					c0.4,0.5,0.8,0.8,1.2,0.9c0.4,0.1,0.7,0,1-0.3c0.4-0.3,0.5-0.6,0.4-1s-0.3-0.8-0.7-1.3l-0.8-0.9L60.9,128.7z"/>
				<path class="st1" d="M63.3,139.5l6.3-7.1l1.3,1.1l-2.5,2.9l2.9,2.6l2.5-2.9l1.3,1.1l-6.3,7.1l-1.3-1.1l2.8-3.2l-2.9-2.6
					l-2.8,3.2L63.3,139.5z"/>
				<path class="st1" d="M71.8,146.8l7.9-6.1l1.6,1.1l-2.8,9.6l-1.5-1l0.8-2.6l-2.7-1.8l-2.1,1.7L71.8,146.8z M77.3,144.4l-0.9,0.8
					l2,1.4l0.4-1.1c0.2-0.5,0.3-1,0.5-1.5c0.2-0.5,0.4-1,0.6-1.6l-0.1,0c-0.4,0.4-0.8,0.7-1.2,1.1S77.7,144,77.3,144.4z M79.7,139.6
					c-0.2-0.1-0.3-0.3-0.4-0.6c0-0.2,0-0.4,0.2-0.6c0.1-0.2,0.3-0.3,0.6-0.4c0.2-0.1,0.4,0,0.7,0.1s0.3,0.3,0.4,0.6
					c0,0.2,0,0.4-0.2,0.7s-0.3,0.3-0.6,0.4C80.1,139.8,79.9,139.8,79.7,139.6z M82.3,141.4c-0.2-0.1-0.3-0.3-0.4-0.6
					c-0.1-0.2,0-0.4,0.1-0.6c0.1-0.2,0.3-0.3,0.6-0.4c0.2,0,0.4,0,0.7,0.1c0.2,0.1,0.3,0.3,0.4,0.6c0,0.2,0,0.4-0.2,0.7
					s-0.3,0.3-0.6,0.4S82.5,141.5,82.3,141.4z"/>
				<path class="st1" d="M82,153.3l4.3-8.5l1.5,0.8l0.2,6.1L88,154l0.1,0c0.2-0.5,0.4-0.9,0.6-1.5s0.4-1,0.7-1.5l1.9-3.7l1.4,0.7
					l-4.3,8.5l-1.5-0.8l-0.2-6.1l0.1-2.3l-0.1,0c-0.2,0.5-0.4,1-0.6,1.5c-0.2,0.5-0.4,1-0.7,1.5l-1.9,3.7L82,153.3z"/>
				<path class="st1" d="M96.8,160.1c-0.6-0.2-1.1-0.5-1.6-0.9c-0.4-0.4-0.8-0.8-1-1.4s-0.4-1.1-0.4-1.8c0-0.6,0.1-1.4,0.4-2.1
					c0.3-0.7,0.6-1.4,1-1.9s0.9-0.9,1.4-1.2s1.1-0.4,1.7-0.4c0.6,0,1.2,0.1,1.8,0.3c0.6,0.2,1.1,0.5,1.5,0.9
					c0.4,0.4,0.6,0.8,0.8,1.2l-1.2,0.7c-0.2-0.3-0.3-0.6-0.6-0.8s-0.6-0.4-1-0.6c-0.4-0.1-0.8-0.2-1.2-0.2s-0.7,0.1-1.1,0.4
					c-0.3,0.2-0.6,0.5-0.9,0.8c-0.3,0.4-0.5,0.8-0.7,1.3c-0.4,1-0.4,1.9-0.2,2.7c0.3,0.8,0.8,1.3,1.8,1.6c0.3,0.1,0.5,0.1,0.8,0.1
					s0.5,0,0.7-0.1l0.7-1.9l-1.7-0.6l0.5-1.3l3.1,1.1l-1.4,4c-0.4,0.2-0.9,0.3-1.5,0.3C98,160.4,97.4,160.3,96.8,160.1z"/>
				<path class="st1" d="M104.3,162.2l2.3-9.3l1.6,0.4l-2.3,9.3L104.3,162.2z"/>
				<path class="st1" d="M114.8,164.3c-0.6-0.1-1.2-0.3-1.7-0.6s-0.9-0.7-1.3-1.1c-0.3-0.5-0.6-1-0.7-1.7s-0.2-1.3-0.1-2.1
					c0.1-0.8,0.3-1.4,0.6-2s0.7-1.1,1.2-1.4c0.5-0.4,1-0.6,1.6-0.8c0.6-0.1,1.2-0.2,1.8-0.1c0.7,0.1,1.2,0.3,1.7,0.6
					c0.4,0.3,0.8,0.6,1,1l-1,1c-0.2-0.3-0.4-0.5-0.7-0.7c-0.3-0.2-0.6-0.3-1.1-0.4c-0.4-0.1-0.8,0-1.2,0.1s-0.7,0.3-1,0.6
					c-0.3,0.3-0.5,0.6-0.7,1c-0.2,0.4-0.3,0.9-0.4,1.4c-0.2,1.1,0,2,0.4,2.6c0.4,0.7,1.1,1.1,2,1.2c0.3,0,0.5,0,0.8,0
					s0.5-0.1,0.6-0.2l0.3-2l-1.8-0.3l0.2-1.4l3.3,0.4l-0.6,4.2c-0.4,0.3-0.8,0.5-1.4,0.6C116,164.4,115.4,164.4,114.8,164.3z"/>
				<path class="st1" d="M122.6,164.9l0.1-9.5l5.7,0.1l0,1.4l-4.1-0.1l0,2.4l3.4,0l0,1.4l-3.4-0.1l0,2.8l4.2,0.1l0,1.4L122.6,164.9z
					"/>
			</g>
		</g>
	</g>
</g>
<g id="_x39_9d_logo" class="st4">
	<g class="st5">
		<g>
			<defs>
				<path id="SVGID_1_" d="M-3.7,8.1C12-19.2,46.6-28.5,73.8-12.8C100.9,3,110.2,37.9,94.5,65.1C78.8,92.4,44.2,101.7,17.1,86
					C-10.1,70.3-19.3,35.4-3.7,8.1z M212.8,8.1c15.7-27.3,50.3-36.6,77.4-20.9c27.1,15.7,36.4,50.6,20.8,77.9
					c-15.7,27.3-50.3,36.6-77.4,20.9C206.4,70.3,197.1,35.4,212.8,8.1z M515.7,180.3c-11.2,11.3-25.5,16.9-42.9,16.9
					c-8.4,0-16.3-1.5-23.6-4.5c-7.3-3-13.5-7.1-18.7-12.4c-5.1-5.3-9.2-11.6-12.1-19c-3-7.4-4.4-15.4-4.4-24.2
					c0-8.4,1.5-16.4,4.4-23.7s7.1-13.6,12.4-18.8c5.3-5.2,11.6-9.2,18.9-12.2c7.3-3,15.3-4.5,24-4.5c8.4,0,16.2,1.5,23.3,4.5
					c7.1,3,13.4,7.1,18.7,12.4c5.3,5.3,9.4,11.5,12.4,18.5c3,7.1,4.4,14.8,4.4,23.2C532.5,154.5,526.9,169,515.7,180.3z M153.6,97.8
					c10.6,18.9,26.1,35.3,46.2,47c16.8,9.8,35,15,53.1,16.3l-54,94.1h80.8l64.4-112.2c0.5,16.2,3.4,31.2,8.5,44.9
					c5.8,15.3,13.9,28.5,24.3,39.6c10.4,11.1,22.8,19.8,37.1,26.1c14.3,6.3,30,9.4,47.1,9.4c16.2,0,29.8-2.6,40.8-7.7
					c11-5.2,21.2-13.5,30.6-25.1v24.9h66.3v-336h-70V40c-9.6-9.4-19.9-16.4-30.8-20.9c-10.9-4.5-23.6-6.8-38.3-6.8
					c-16.5,0-31.8,3.1-46,9.4c-10.3,4.6-19.6,10.4-27.9,17.5c0.9-44-21.5-87.1-62-110.7c-59.4-34.5-135.3-14-169.5,45.7
					c-0.3,0.4-0.5,0.9-0.7,1.3c-10.5-18.9-26.1-35.3-46.2-47C48.1-106-27.8-85.5-62.1-25.8C-96.3,33.9-76,110.3-16.6,144.7
					c16.8,9.8,35,15,53.1,16.3l-54,94.1h80.8l89.6-156C153.1,98.6,153.4,98.2,153.6,97.8L153.6,97.8z"/>
			</defs>
			<clipPath id="SVGID_2_">
				<use xlink:href="#SVGID_1_"  style="overflow:visible;"/>
			</clipPath>
			<g class="st6">
				<g>
					<defs>
						<rect id="SVGID_3_" x="-625.5" y="-798.8" width="1770.8" height="1770.8"/>
					</defs>
					<clipPath id="SVGID_4_">
						<use xlink:href="#SVGID_3_"  style="overflow:visible;"/>
					</clipPath>
					<rect x="-89.8" y="-99.3" class="st7" width="699.7" height="373.2"/>
				</g>
			</g>
		</g>
	</g>
</g>
<g id="Guides">
</g>
<g id="TEMPLATE__x28_delete_x29_" class="st4">
	<path class="st8" d="M-240-413V587H760V-413H-240z M560,387H-40v-600h600V387z"/>
	<g class="st5">
		<g>
			<defs>
				<path id="SVGID_5_" d="M7.5-118.1c2-3.5,6.4-4.6,9.8-2.7c3.4,2,4.6,6.4,2.6,9.9c-2,3.5-6.4,4.6-9.8,2.7
					C6.7-110.2,5.5-114.6,7.5-118.1z M36.1-118.1c2-3.5,6.4-4.6,9.8-2.7c3.4,2,4.6,6.4,2.6,9.9c-2,3.5-6.4,4.6-9.8,2.7
					C35.3-110.2,34.1-114.6,36.1-118.1z M79.4-96.3c-1.4,1.4-3.2,2.1-5.4,2.1c-1.1,0-2.1-0.2-3-0.6s-1.7-0.9-2.4-1.6
					c-0.7-0.7-1.2-1.5-1.5-2.4s-0.6-2-0.6-3.1c0-1.1,0.2-2.1,0.6-3c0.4-0.9,0.9-1.7,1.6-2.4c0.7-0.7,1.5-1.2,2.4-1.6
					c0.9-0.4,1.9-0.6,3.1-0.6c1.1,0,2.1,0.2,3,0.6c0.9,0.4,1.7,0.9,2.4,1.6c0.7,0.7,1.2,1.5,1.6,2.3s0.6,1.9,0.6,2.9
					C81.5-99.5,80.8-97.7,79.4-96.3z M81.1-129.4v15.3c-1.2-1.2-2.5-2.1-3.9-2.7c-1.4-0.6-3-0.9-4.8-0.9c-2.1,0-4,0.4-5.8,1.2
					s-3.3,1.9-4.7,3.3c-1.3,1.4-2.3,3.1-3.1,5c-0.8,1.9-1.1,4-1.1,6.3c0,2.3,0.4,4.5,1.1,6.4c0.7,1.9,1.8,3.6,3.1,5
					c1.3,1.4,2.9,2.5,4.7,3.3c1.8,0.8,3.8,1.2,6,1.2c2.1,0,3.8-0.3,5.2-1s2.7-1.7,3.9-3.2v3.2h8.4v-42.6L81.1-129.4L81.1-129.4z
					 M28-121.1c0.2-0.4,0.4-0.9,0.7-1.3c4.3-7.6,14-10.2,21.5-5.8c7.5,4.4,10.1,14.1,5.8,21.6L44.6-86.8H34.4l6.8-11.9
					c-2.3-0.2-4.6-0.8-6.7-2.1c-2.9-1.7-5.1-4.2-6.4-7.1c-0.2,0.4-0.4,0.9-0.7,1.3L16-86.8H5.8l6.9-11.9c-2.3-0.2-4.6-0.8-6.7-2.1
					c-7.5-4.4-10.1-14.1-5.8-21.6c4.3-7.6,14-10.2,21.5-5.8C24.5-126.5,26.7-124,28-121.1z M100.7-104.8c0.3-1.7,1.1-2.9,2.3-3.8
					c1.2-0.9,2.6-1.3,4.3-1.3s3.2,0.5,4.4,1.4c1.2,0.9,2,2.2,2.3,3.7L100.7-104.8L100.7-104.8z M121.6-107.7c-0.8-2-1.9-3.7-3.3-5.1
					c-1.4-1.4-3.1-2.6-5-3.4c-1.9-0.8-4-1.3-6.2-1.3c-2.1,0-4.1,0.4-6,1.3c-1.9,0.8-3.5,2-4.9,3.4c-1.4,1.4-2.5,3.1-3.3,5.1
					s-1.2,4-1.2,6.2c0,2.2,0.4,4.3,1.2,6.2s1.9,3.6,3.3,5c1.4,1.4,3,2.5,4.9,3.3s3.9,1.2,6.1,1.2c3.2,0,6-0.9,8.5-2.7
					c2.4-1.7,4.3-4.1,5.7-7.1h-9.2c-0.9,0.9-1.8,1.5-2.6,1.8s-1.7,0.5-2.8,0.5c-1.8,0-3.3-0.5-4.4-1.5c-1.2-1-1.9-2.3-2.1-4h22.1
					C123.1-101.8,122.8-104.8,121.6-107.7z M147.2-108.1c-0.4-5.8-4.9-9.3-11.3-9.3c-6,0-11.4,3.8-11.4,9.6c0,3.5,2,6.4,9.4,8.7
					c4.4,1.4,5.4,2.2,5.4,3.9c0,1.4-1.5,2.3-3.1,2.3c-1.8,0-3.1-0.8-3.4-2.7H124c0.6,6,5.4,9.8,12,9.8c6.7,0,12-3.9,12-10.1
					c0-4.3-2.3-7.1-9.3-9c-4.1-1.1-5.5-1.9-5.5-3.5c0-1.1,1.1-2,2.6-2c1.4,0,2.7,0.5,2.7,2.2H147.2z M154.9-119.6
					c2.9,0,5.3-2.4,5.3-5.3s-2.4-5.3-5.3-5.3c-2.9,0-5.3,2.4-5.3,5.3S152-119.6,154.9-119.6z M159.3-86.8h-8.9v-29.7h8.9V-86.8z
					 M176.2-110.8c2.7,0,4.9,2.2,4.9,4.9c0,2.7-2.2,4.9-4.9,4.9s-4.9-2.2-4.9-4.9C171.4-108.6,173.5-110.8,176.2-110.8z M182.4-80.7
					c-1,1.4-2.9,1.9-4.5,1.9c-1.9,0.1-4.4-0.3-5.7-1.9c-1.2-1.5-0.9-3.6,0.7-4.6c0.5-0.3,1-0.5,1.5-0.6h4.4c1.9,0,4.4,0.5,4.3,2.9
					C183.1-82.1,182.8-81.3,182.4-80.7z M173.8-92.6c-3.6-0.6-3.5-2-2.6-2.7c8.2,3.1,18.1-0.8,18.2-10.3c0-3.5-1.3-5.7-2.2-6.7
					c0.8-1.4,1.6-2.2,3.4-2.6l-3.7-6.4c-3.4,0.3-5.6,2.4-6.6,4.5c-2-0.8-6.1-0.9-9.3,0.3c-1.6,0.6-3,1.3-4.3,2.4
					c-1.2,1.1-2.1,2.3-2.8,3.8c-0.7,1.5-1,3.1-1,4.8c0,2.3,0.7,4.9,2,6.8c-3.6,3.5-3.4,8.8,0.3,12.1c-0.4,0.3-0.8,0.6-1.1,1
					c-3.3,3.6-1.8,8.7,2.1,11.3c4.8,3.5,13.4,3.7,18.7,1.3c9.3-3.8,9.6-17.6-1.2-19.4C180.8-93,177.4-92.1,173.8-92.6z M192.8-86.8
					h8.9v-16.6c0-3.9,1.7-5.8,5-5.8c1.6,0,2.8,0.5,3.5,1.5c0.7,1,1.1,2.6,1.1,4.7v16.2h8.9v-18.6c0-1.2-0.1-2.2-0.1-3.1
					c-0.1-0.9-0.3-1.7-0.5-2.4c-0.2-0.7-0.5-1.3-0.9-1.9c-0.4-0.6-0.9-1.1-1.4-1.7c-0.9-0.9-2.1-1.7-3.5-2.2
					c-1.4-0.5-2.9-0.8-4.4-0.8c-1.9,0-3.4,0.3-4.7,1s-2.4,1.7-3.4,3.2v-3.2h-8.4L192.8-86.8L192.8-86.8z M245.1-108.1
					c-0.4-5.8-4.9-9.3-11.3-9.3c-6,0-11.4,3.8-11.4,9.6c0,3.5,2,6.4,9.4,8.7c4.4,1.4,5.4,2.2,5.4,3.9c0,1.4-1.5,2.3-3.1,2.3
					c-1.8,0-3.1-0.8-3.4-2.7H222c0.6,6,5.4,9.8,12,9.8c6.7,0,12-3.9,12-10.1c0-4.3-2.3-7.1-9.3-9c-4.1-1.1-5.5-1.9-5.5-3.5
					c0-1.1,1.1-2,2.6-2c1.4,0,2.7,0.5,2.7,2.2H245.1z"/>
			</defs>
			<clipPath id="SVGID_6_">
				<use xlink:href="#SVGID_5_"  style="overflow:visible;"/>
			</clipPath>
			<g class="st9">
				<g>
					<defs>
						<rect id="SVGID_7_" x="-43.3" y="-270.4" width="330.7" height="330.7"/>
					</defs>
					<clipPath id="SVGID_8_">
						<use xlink:href="#SVGID_7_"  style="overflow:visible;"/>
					</clipPath>
					<rect x="-4.1" y="-132.4" class="st10" width="252.2" height="62.8"/>
				</g>
			</g>
		</g>
	</g>
	<g class="st5">
		<path class="st11" d="M3-27.2h7v3.1H-0.3v-16.8H3L3-27.2L3-27.2z"/>
		<path class="st11" d="M24.3-30.2c0,3.8-2.7,6.4-6.4,6.4c-3.6,0-6.4-2.6-6.4-6.4s2.7-6.3,6.4-6.3C21.6-36.5,24.3-34,24.3-30.2z
			 M14.8-30.2c0,2,1.3,3.5,3.2,3.5c1.9,0,3.1-1.5,3.1-3.5c0-2-1.3-3.5-3.1-3.5C16.1-33.7,14.8-32.2,14.8-30.2z"/>
		<path class="st11" d="M37.9-33.6h-1.8c0.1,0.4,0.2,0.9,0.2,1.4c0,2.5-2,4.2-4.8,4.2c-0.7,0-1.4-0.1-2-0.3
			c-0.2,0.2-0.3,0.5-0.3,0.9c0,0.6,0.5,1,1.2,1h2.9c2.5,0,4,1.2,4,3.5c0,2.7-2.1,4.2-5.4,4.2c-3.6,0-5.5-1.3-5.5-3.7
			c0-1.1,0.6-1.8,1.2-2.1c-0.7-0.5-1.4-1.4-1.4-2.6c0-1.1,0.5-2,1.3-2.6c-0.5-0.7-0.8-1.5-0.8-2.5c0-2.5,2.1-4.3,4.9-4.3
			c0.6,0,1.2,0.1,1.7,0.3h4.6L37.9-33.6L37.9-33.6z M30.7-24c-0.7,0.1-1.3,0.6-1.3,1.4c0,1.1,1,1.7,2.5,1.7c1.4,0,2.3-0.6,2.3-1.7
			c0-0.9-0.7-1.3-1.7-1.3L30.7-24L30.7-24z M29.7-32.2c0,1.1,0.7,1.9,1.8,1.9c1.1,0,1.8-0.8,1.8-1.9c0-1.2-0.7-2-1.8-2
			C30.4-34.2,29.7-33.4,29.7-32.2z"/>
		<path class="st11" d="M51.8-30.2c0,3.8-2.7,6.4-6.4,6.4c-3.7,0-6.4-2.6-6.4-6.4s2.7-6.3,6.4-6.3C49-36.5,51.8-34,51.8-30.2z
			 M42.2-30.2c0,2,1.3,3.5,3.2,3.5c1.9,0,3.1-1.5,3.1-3.5c0-2-1.3-3.5-3.1-3.5C43.5-33.7,42.2-32.2,42.2-30.2z"/>
		<path class="st11" d="M63.3-36.3H66v2.8h-2.8l0,4.9c0,1.3,0.4,1.8,1.6,1.8c0.6,0,0.9-0.1,1.3-0.2v2.7c-0.4,0.1-1,0.3-2,0.3
			c-2.7,0-4-1.1-4-3.8l0-5.7h-2v-2.8h2l0-3h3.1L63.3-36.3z"/>
		<path class="st11" d="M79.6-30.2v1h-8.5c0.1,1.6,1.2,2.7,2.9,2.7c1.2,0,2.1-0.5,2.4-1.4h3c-0.7,2.6-2.6,4.1-5.6,4.1
			c-3.6,0-6.1-2.5-6.1-6.3c0-3.7,2.4-6.4,6.1-6.4C77.2-36.5,79.6-34.5,79.6-30.2z M71.1-31.4h5.3c0-1.5-1-2.5-2.6-2.5
			C72.3-33.9,71.3-32.9,71.1-31.4z"/>
		<path class="st11" d="M99.4-32v7.9h-3.1v-7.2c0-1.4-0.6-2.2-1.7-2.2c-1.2,0-2.1,0.9-2.1,2.8v6.6h-3.1v-7.2c0-1.4-0.6-2.2-1.7-2.2
			c-1.2,0-2.1,1-2.1,3v6.4h-3.1v-12.2h2.7l0.2,1.6c0.6-1,1.7-1.8,3.2-1.8c1.7,0,2.9,0.8,3.5,2.1c0.6-1.2,1.8-2.1,3.5-2.1
			C98.1-36.5,99.4-34.8,99.4-32z"/>
		<path class="st11" d="M115.3-30.2c0,3.6-2.4,6.4-5.7,6.4c-1.8,0-3-0.7-3.7-1.6v6.5h-3.1v-17.3h2.7l0.2,1.6c0.7-1,1.8-1.9,3.9-1.9
			C112.9-36.5,115.3-33.8,115.3-30.2z M105.9-30.3v0.1c0,2.1,1.6,3.3,3.1,3.3c1.7,0,3.1-1.3,3.1-3.4s-1.3-3.4-3.1-3.4
			C107.4-33.6,105.9-32.4,105.9-30.3z"/>
		<path class="st11" d="M121.1-24.1H118v-17.5h3.1V-24.1z"/>
		<path class="st11" d="M134-32.1v8h-2.7l-0.2-1.5c-0.6,1-1.8,1.8-3.5,1.8c-2.2,0-3.7-1.3-3.7-3.5c0-2.4,1.6-3.3,3.8-3.6l3.1-0.6
			V-32c0-1.2-0.6-1.8-1.7-1.8c-1,0-1.8,0.6-1.8,1.6h-3c0.1-2.5,2-4.3,4.9-4.3S134-35.1,134-32.1z M128.5-29
			c-0.8,0.2-1.4,0.5-1.4,1.4c0,0.7,0.5,1.2,1.4,1.2c0.8,0,1.5-0.4,1.9-1.1c0.3-0.4,0.4-1,0.4-1.6v-0.4L128.5-29z"/>
		<path class="st11" d="M141.2-36.3h2.8v2.8h-2.8l-0.1,4.9c0,1.3,0.4,1.8,1.6,1.8c0.6,0,0.9-0.1,1.3-0.2v2.7c-0.4,0.1-1,0.3-2,0.3
			c-2.7,0-4-1.1-4-3.8l0.1-5.7h-2v-2.8h2l0-3h3.1L141.2-36.3z"/>
		<path class="st11" d="M157.5-30.2v1H149c0.1,1.6,1.2,2.7,2.9,2.7c1.2,0,2.1-0.5,2.4-1.4h3c-0.7,2.6-2.6,4.1-5.6,4.1
			c-3.6,0-6.1-2.5-6.1-6.3c0-3.7,2.4-6.4,6.1-6.4C155.1-36.5,157.5-34.5,157.5-30.2z M149-31.4h5.3c0-1.5-1-2.5-2.6-2.5
			C150.2-33.9,149.2-32.9,149-31.4z"/>
		<path class="st12" d="M170.6-40.4c-2,2.7-3,5-3,8.6c0,3.6,1,6,3,8.6l-2.2,1.5c-2.2-2.7-3.7-5.7-3.7-10.1s1.5-7.4,3.7-10.1
			L170.6-40.4z"/>
		<path class="st12" d="M178.6-24.1h-3.3v-11.6h-3.5v-2.8c2.6,0,4-0.6,4.4-2.4h2.4V-24.1z"/>
		<path class="st12" d="M193.3-32.5c0,5.4-2.1,8.7-6,8.7s-5.9-3.4-5.9-8.7c0-5.3,2.1-8.7,5.9-8.7S193.3-37.9,193.3-32.5z
			 M184.7-32.5c0,3.5,0.9,5.7,2.6,5.7c1.8,0,2.6-2.1,2.6-5.7c0-3.5-0.9-5.6-2.6-5.6C185.6-38.1,184.7-36.1,184.7-32.5z"/>
		<path class="st12" d="M207.3-32.5c0,5.4-2.1,8.7-6,8.7s-5.9-3.4-5.9-8.7c0-5.3,2.1-8.7,5.9-8.7S207.3-37.9,207.3-32.5z
			 M198.7-32.5c0,3.5,0.9,5.7,2.6,5.7c1.8,0,2.6-2.1,2.6-5.7c0-3.5-0.9-5.6-2.6-5.6C199.5-38.1,198.7-36.1,198.7-32.5z"/>
		<path class="st12" d="M221.2-32.5c0,5.4-2.1,8.7-6,8.7s-5.9-3.4-5.9-8.7c0-5.3,2.1-8.7,5.9-8.7S221.2-37.9,221.2-32.5z
			 M212.6-32.5c0,3.5,0.9,5.7,2.6,5.7c1.8,0,2.6-2.1,2.6-5.7c0-3.5-0.9-5.6-2.6-5.6C213.5-38.1,212.6-36.1,212.6-32.5z"/>
		<path class="st12" d="M238-32.6l5.7,8.5h-3.9l-4-6.1l-4,6.1h-3.9l5.6-8.5l-5.5-8.3h3.9l3.9,5.8l3.9-5.8h3.9L238-32.6z"/>
		<path class="st12" d="M257-24.1h-3.3v-11.6h-3.5v-2.8c2.6,0,4-0.6,4.4-2.4h2.4V-24.1z"/>
		<path class="st12" d="M271.7-32.5c0,5.4-2.1,8.7-6,8.7s-6-3.4-6-8.7c0-5.3,2.1-8.7,6-8.7C269.6-41.2,271.7-37.9,271.7-32.5z
			 M263.1-32.5c0,3.5,0.9,5.7,2.6,5.7c1.8,0,2.6-2.1,2.6-5.7c0-3.5-0.9-5.6-2.6-5.6C264-38.1,263.1-36.1,263.1-32.5z"/>
		<path class="st12" d="M285.7-32.5c0,5.4-2.1,8.7-6,8.7s-6-3.4-6-8.7c0-5.3,2.1-8.7,6-8.7C283.5-41.2,285.7-37.9,285.7-32.5z
			 M277.1-32.5c0,3.5,0.9,5.7,2.6,5.7c1.8,0,2.6-2.1,2.6-5.7c0-3.5-0.9-5.6-2.6-5.6C277.9-38.1,277.1-36.1,277.1-32.5z"/>
		<path class="st12" d="M299.6-32.5c0,5.4-2.1,8.7-6,8.7s-6-3.4-6-8.7c0-5.3,2.1-8.7,6-8.7C297.5-41.2,299.6-37.9,299.6-32.5z
			 M291-32.5c0,3.5,0.9,5.7,2.6,5.7c1.8,0,2.6-2.1,2.6-5.7c0-3.5-0.9-5.6-2.6-5.6C291.9-38.1,291-36.1,291-32.5z"/>
		<path class="st12" d="M314.9-30.2c0,3.6-2.4,6.4-5.7,6.4c-1.8,0-3-0.7-3.6-1.6v6.5h-3.1v-17.3h2.7l0.2,1.6c0.7-1,1.8-1.9,3.9-1.9
			C312.5-36.5,314.9-33.8,314.9-30.2z M305.5-30.3v0.1c0,2.1,1.6,3.3,3.1,3.3c1.7,0,3.1-1.3,3.1-3.4s-1.3-3.4-3.1-3.4
			C307.1-33.6,305.5-32.4,305.5-30.3z"/>
		<path class="st12" d="M324-30.3l3.8,6.2h-3.6l-2.4-3.8l-2.4,3.8h-3.6l3.8-6.2l-3.7-6h3.6l2.2,3.5l2.2-3.5h3.6L324-30.3z"/>
		<path class="st12" d="M334.6-31.8c0,4.4-1.6,7.4-3.8,10.1l-2.2-1.5c2-2.7,3-5,3-8.6c0-3.6-1-6-3-8.6l2.2-1.5
			C333.1-39.2,334.6-36.2,334.6-31.8z"/>
	</g>
	<g class="st5">
		<path class="st12" d="M1.6,30.2H6v1.3H1.6V30.2z"/>
		<path class="st12" d="M14.8,31.4v4.7h-1.5V23.9H17c2.4,0,4.2,1.1,4.2,3.8c0,2.6-1.8,3.8-4.3,3.8H14.8z M16.9,30.2
			c1.8,0,2.8-0.9,2.8-2.6c0-1.8-1-2.6-2.8-2.6h-2.1v5.2H16.9z"/>
		<path class="st12" d="M23.3,23.5h1.4v12.6h-1.4V23.5z"/>
		<path class="st12" d="M27.5,30c0-1.5,1.2-2.5,3.2-2.5c2.1,0,3.1,0.9,3.1,3.1V34c0,0.7,0.1,0.9,0.8,1v1.2h-0.2
			c-1.3,0-1.8-0.5-1.9-1.5h0c-0.5,1-1.5,1.6-2.7,1.6c-1.7,0-2.7-0.9-2.7-2.4c0-0.9,0.4-1.7,1.3-2.1c0.9-0.5,2.2-0.6,4.1-0.7v-0.4
			c0-1.5-0.6-2.1-1.8-2.1c-1.3,0-1.7,0.7-1.8,1.4C28.9,30,27.5,30,27.5,30z M32.4,32.3v-0.2c-1.8,0.1-2.9,0.2-3.4,0.6
			c-0.3,0.2-0.5,0.6-0.5,1c0,0.9,0.6,1.3,1.5,1.3C31.1,35.1,32.4,34.3,32.4,32.3z"/>
		<path class="st12" d="M41.9,30.2c-0.1-0.9-0.7-1.6-1.9-1.6c-1.5,0-2.3,1.3-2.3,3.3c0,1.9,0.6,3.3,2.3,3.3c1.6,0,2-1.2,2.1-1.8h1.3
			c-0.2,2-1.6,3-3.4,3c-2.4,0-3.8-1.7-3.8-4.4c0-2.6,1.4-4.5,3.8-4.5c1.7,0,3.2,0.8,3.3,2.8C43.3,30.2,41.9,30.2,41.9,30.2z"/>
		<path class="st12" d="M48.8,36.3c-2.6,0-3.8-1.9-3.8-4.4c0-2.5,1.3-4.5,3.8-4.5c2.5,0,3.5,2,3.5,4.1v0.7h-5.8
			c0.1,1.7,0.8,2.9,2.4,2.9c1.4,0,1.8-0.8,1.9-1.3h1.4C51.9,35.3,50.6,36.3,48.8,36.3z M50.8,31c0-1.4-0.6-2.5-2.1-2.5
			c-1.3,0-2.1,1.1-2.3,2.6L50.8,31L50.8,31z"/>
		<path class="st12" d="M58.3,27.7h1.4l1.8,5.3c0.3,0.8,0.4,1.3,0.4,1.3h0c0,0,0.1-0.5,0.4-1.3l1.7-5.3h1.4l-3.1,9
			c-0.7,1.9-1.2,2.7-3.1,2.7c-0.3,0-0.6,0-0.9-0.1V38c0.3,0.1,0.6,0.1,0.7,0.1c1.1,0,1.4-0.4,1.8-1.5l0.2-0.5L58.3,27.7z"/>
		<path class="st12" d="M66.9,31.9c0-2.6,1.4-4.4,3.8-4.4c2.5,0,3.8,1.8,3.8,4.4c0,2.6-1.4,4.4-3.8,4.4
			C68.1,36.3,66.9,34.5,66.9,31.9z M68.3,31.9c0,2.1,0.7,3.3,2.3,3.3c1.6,0,2.3-1.3,2.3-3.3c0-2-0.7-3.3-2.3-3.3
			C69.1,28.6,68.3,29.8,68.3,31.9z"/>
		<path class="st12" d="M78.2,32.8c0,0.6,0,1.3,0.3,1.7c0.3,0.4,0.7,0.6,1.3,0.6c1.6,0,2.3-1,2.3-2.9v-4.6h1.4v8.4h-1.4v-1.4h0
			c-0.4,0.9-1.3,1.7-2.7,1.7c-1.6,0-2.7-0.8-2.7-2.8v-5.9h1.4L78.2,32.8L78.2,32.8z"/>
		<path class="st12" d="M86.7,27.7h1.4v1.6h0c0.4-0.9,1.4-1.8,2.7-1.8h0.1V29h-0.3c-1.5,0-2.5,0.9-2.5,2.5v4.6h-1.4L86.7,27.7
			L86.7,27.7z"/>
		<path class="st12" d="M97.7,23.5h1.4v12.6h-1.4V23.5z"/>
		<path class="st12" d="M101.5,31.9c0-2.6,1.4-4.4,3.8-4.4c2.5,0,3.8,1.8,3.8,4.4c0,2.6-1.4,4.4-3.8,4.4
			C102.8,36.3,101.5,34.5,101.5,31.9z M103,31.9c0,2.1,0.7,3.3,2.3,3.3c1.6,0,2.3-1.3,2.3-3.3c0-2-0.7-3.3-2.3-3.3
			C103.7,28.6,103,29.8,103,31.9z"/>
		<path class="st12" d="M111.1,36.9h1.4c0.2,0.7,0.7,1.2,2.1,1.2c1.6,0,2.4-0.6,2.4-2.5v-1.3h0c-0.4,0.8-1.4,1.5-2.7,1.5
			c-1.8,0-3.4-1.1-3.4-4.2c0-2.8,1.5-4.3,3.6-4.3c1.4,0,2.2,0.8,2.5,1.5h0v-1.3h1.4v8.2c0,2.4-1.6,3.4-3.8,3.4
			C112.9,39.3,111.3,38.7,111.1,36.9z M117,31.4c0-1.7-0.9-2.8-2.4-2.8c-1.5,0-2.2,1.3-2.2,3.2c0,1.9,0.5,3.1,2.3,3.1
			c1.4,0,2.3-1.2,2.3-2.6L117,31.4L117,31.4z"/>
		<path class="st12" d="M120.8,31.9c0-2.6,1.4-4.4,3.8-4.4c2.5,0,3.8,1.8,3.8,4.4c0,2.6-1.4,4.4-3.8,4.4
			C122.1,36.3,120.8,34.5,120.8,31.9z M122.3,31.9c0,2.1,0.7,3.3,2.3,3.3c1.6,0,2.3-1.3,2.3-3.3c0-2-0.7-3.3-2.3-3.3
			C123,28.6,122.3,29.8,122.3,31.9z"/>
		<path class="st12" d="M134.2,27.7h1.5l1.6,5.7c0.1,0.5,0.3,1.1,0.3,1.1h0c0,0,0.2-0.6,0.3-1.1l1.8-5.7h1.5l1.8,5.7
			c0.2,0.5,0.3,1.1,0.3,1.1h0c0,0,0.1-0.6,0.3-1.1l1.7-5.7h1.4l-2.6,8.4h-1.5l-1.5-5c-0.2-0.8-0.5-1.8-0.5-1.8h0c0,0-0.3,1-0.5,1.8
			l-1.6,5h-1.5L134.2,27.7z"/>
		<path class="st12" d="M148.7,24.2h1.5v1.5h-1.5V24.2z M148.8,27.7h1.5v8.4h-1.5V27.7z"/>
		<path class="st12" d="M155.1,25.2v2.5h2.1v1.1h-2.1v5c0,0.9,0.4,1.3,1.3,1.3c0.4,0,0.9-0.1,0.9-0.1v1.2c0,0-0.6,0.1-1.3,0.1
			c-1.6,0-2.3-0.8-2.3-2.2v-5.2h-1.5v-1.1h0.3c1.1,0,1.4-0.3,1.4-1.9v-0.6H155.1z"/>
		<path class="st12" d="M164.7,30.9c0-0.6,0-1.3-0.3-1.7c-0.3-0.4-0.8-0.6-1.3-0.6c-1.6,0-2.3,1-2.3,2.4v5.1h-1.4V23.5h1.4V29h0
			c0.4-0.8,1.3-1.6,2.6-1.6c1.6,0,2.7,0.8,2.7,2.8v5.9h-1.4V30.9z"/>
		<path class="st12" d="M169.2,24.2h1.5v1.5h-1.5V24.2z M169.2,27.7h1.5v8.4h-1.5V27.7z"/>
		<path class="st12" d="M179.2,30.9c0-0.6,0-1.3-0.3-1.7c-0.3-0.4-0.8-0.6-1.3-0.6c-1.6,0-2.3,1-2.3,2.4v5.1h-1.4v-8.4h1.4v1.4h0
			c0.4-0.9,1.4-1.6,2.7-1.6c1.6,0,2.7,0.8,2.7,2.8v5.9h-1.4V30.9z"/>
		<path class="st12" d="M190,25.2v2.5h2.1v1.1H190v5c0,0.9,0.4,1.3,1.3,1.3c0.4,0,0.9-0.1,0.9-0.1v1.2c0,0-0.6,0.1-1.3,0.1
			c-1.6,0-2.3-0.8-2.3-2.2v-5.2h-1.5v-1.1h0.3c1.1,0,1.4-0.3,1.4-1.9v-0.6H190z"/>
		<path class="st12" d="M199.6,30.9c0-0.6,0-1.3-0.3-1.7c-0.3-0.4-0.8-0.6-1.3-0.6c-1.6,0-2.3,1-2.3,2.4v5.1h-1.4V23.5h1.4V29h0
			c0.4-0.8,1.3-1.6,2.6-1.6c1.6,0,2.7,0.8,2.7,2.8v5.9h-1.4V30.9z"/>
		<path class="st12" d="M207.2,36.3c-2.6,0-3.8-1.9-3.8-4.4c0-2.5,1.3-4.5,3.8-4.5c2.5,0,3.5,2,3.5,4.1v0.7h-5.8
			c0.1,1.7,0.8,2.9,2.4,2.9c1.4,0,1.8-0.8,1.9-1.3h1.4C210.2,35.3,209,36.3,207.2,36.3z M209.2,31c0-1.4-0.6-2.5-2.1-2.5
			c-1.3,0-2.1,1.1-2.3,2.6L209.2,31L209.2,31L209.2,31z"/>
		<path class="st12" d="M222.5,30.2c-0.1-0.9-0.7-1.6-1.9-1.6c-1.5,0-2.3,1.3-2.3,3.3c0,1.9,0.6,3.3,2.3,3.3c1.6,0,2-1.2,2.1-1.8
			h1.3c-0.2,2-1.6,3-3.4,3c-2.4,0-3.8-1.7-3.8-4.4c0-2.6,1.4-4.5,3.8-4.5c1.7,0,3.2,0.8,3.3,2.8C223.9,30.2,222.5,30.2,222.5,30.2z"
			/>
		<path class="st12" d="M226.3,27.7h1.4v1.6h0c0.4-0.9,1.4-1.8,2.7-1.8h0.1V29h-0.3c-1.5,0-2.5,0.9-2.5,2.5v4.6h-1.4L226.3,27.7
			L226.3,27.7z"/>
		<path class="st12" d="M231.8,31.9c0-2.6,1.4-4.4,3.8-4.4c2.5,0,3.8,1.8,3.8,4.4c0,2.6-1.4,4.4-3.8,4.4
			C233.1,36.3,231.8,34.5,231.8,31.9z M233.3,31.9c0,2.1,0.7,3.3,2.3,3.3c1.6,0,2.3-1.3,2.3-3.3c0-2-0.7-3.3-2.3-3.3
			C234.1,28.6,233.3,29.8,233.3,31.9z"/>
		<path class="st12" d="M241.8,27.7h1.4v1.4h0c0.5-0.9,1.4-1.6,2.7-1.6c1.8,0,3.4,1.1,3.4,4.3c0,3.1-1.6,4.5-3.5,4.5
			c-1.2,0-2.2-0.7-2.5-1.4h0v4.2h-1.4V27.7z M245.6,35.2c1.5,0,2.2-1.2,2.2-3.4c0-1.8-0.5-3.1-2.3-3.1c-1.5,0-2.4,1.3-2.4,2.7v0.9
			C243.2,33.8,244,35.2,245.6,35.2z"/>
		<path class="st12" d="M251.7,27.7h1.4v1.4h0c0.5-0.9,1.4-1.6,2.7-1.6c1.8,0,3.4,1.1,3.4,4.3c0,3.1-1.6,4.5-3.5,4.5
			c-1.2,0-2.2-0.7-2.5-1.4h0v4.2h-1.4L251.7,27.7L251.7,27.7z M255.6,35.2c1.5,0,2.2-1.2,2.2-3.4c0-1.8-0.5-3.1-2.3-3.1
			c-1.5,0-2.4,1.3-2.4,2.7v0.9C253.1,33.8,253.9,35.2,255.6,35.2z"/>
		<path class="st12" d="M261.6,24.2h1.5v1.5h-1.5V24.2z M261.7,27.7h1.5v8.4h-1.5V27.7z"/>
		<path class="st12" d="M271.7,30.9c0-0.6,0-1.3-0.3-1.7c-0.3-0.4-0.8-0.6-1.3-0.6c-1.6,0-2.3,1-2.3,2.4v5.1h-1.4v-8.4h1.4v1.4h0
			c0.4-0.9,1.4-1.6,2.7-1.6c1.6,0,2.7,0.8,2.7,2.8v5.9h-1.4V30.9z"/>
		<path class="st12" d="M275.6,36.9h1.4c0.2,0.7,0.7,1.2,2.1,1.2c1.6,0,2.4-0.6,2.4-2.5v-1.3h0c-0.4,0.8-1.4,1.5-2.7,1.5
			c-1.8,0-3.4-1.1-3.4-4.2c0-2.8,1.5-4.3,3.5-4.3c1.4,0,2.2,0.8,2.5,1.5h0v-1.3h1.4v8.2c0,2.4-1.5,3.4-3.8,3.4
			C277.5,39.3,275.8,38.7,275.6,36.9z M281.5,31.4c0-1.7-0.9-2.8-2.4-2.8c-1.5,0-2.2,1.3-2.2,3.2c0,1.9,0.5,3.1,2.3,3.1
			c1.4,0,2.3-1.2,2.3-2.6L281.5,31.4L281.5,31.4z"/>
		<path class="st12" d="M290.1,36.9h1.4c0.2,0.7,0.7,1.2,2.1,1.2c1.6,0,2.4-0.6,2.4-2.5v-1.3h0c-0.4,0.8-1.4,1.5-2.7,1.5
			c-1.8,0-3.4-1.1-3.4-4.2c0-2.8,1.5-4.3,3.5-4.3c1.4,0,2.2,0.8,2.5,1.5h0v-1.3h1.4v8.2c0,2.4-1.5,3.4-3.8,3.4
			C291.9,39.3,290.3,38.7,290.1,36.9z M296,31.4c0-1.7-0.9-2.8-2.4-2.8c-1.5,0-2.2,1.3-2.2,3.2c0,1.9,0.5,3.1,2.3,3.1
			c1.4,0,2.3-1.2,2.3-2.6L296,31.4L296,31.4z"/>
		<path class="st12" d="M301.8,32.8c0,0.6,0,1.3,0.3,1.7c0.3,0.4,0.7,0.6,1.3,0.6c1.6,0,2.3-1,2.3-2.9v-4.6h1.4v8.4h-1.4v-1.4h0
			c-0.4,0.9-1.3,1.7-2.7,1.7c-1.6,0-2.7-0.8-2.7-2.8v-5.9h1.4L301.8,32.8L301.8,32.8z"/>
		<path class="st12" d="M310.3,24.2h1.5v1.5h-1.5V24.2z M310.3,27.7h1.5v8.4h-1.5V27.7z"/>
		<path class="st12" d="M321.7,36.1h-1.4v-1.4h0c-0.5,0.8-1.4,1.6-2.7,1.6c-1.8,0-3.4-1.1-3.4-4.4c0-2.9,1.5-4.5,3.6-4.5
			c1.3,0,2.1,0.7,2.4,1.5h0v-5.5h1.4L321.7,36.1L321.7,36.1z M320.3,31.5c0-1.8-0.9-3-2.3-3c-1.6,0-2.4,1.3-2.4,3.3
			c0,1.9,0.6,3.3,2.2,3.3c1.5,0,2.4-1.2,2.4-2.7L320.3,31.5L320.3,31.5z"/>
		<path class="st12" d="M327.9,36.3c-2.6,0-3.8-1.9-3.8-4.4c0-2.5,1.3-4.5,3.8-4.5c2.5,0,3.5,2,3.5,4.1v0.7h-5.8
			c0.1,1.7,0.8,2.9,2.4,2.9c1.4,0,1.8-0.8,1.9-1.3h1.4C331,35.3,329.7,36.3,327.9,36.3z M329.9,31c0-1.4-0.6-2.5-2.1-2.5
			c-1.3,0-2.1,1.1-2.3,2.6L329.9,31L329.9,31z"/>
		<path class="st12" d="M338,29.8c-0.1-0.8-0.7-1.2-1.7-1.2s-1.6,0.6-1.6,1.4c0,0.7,0.4,1,1.3,1.1l1.3,0.2c1.8,0.3,2.4,1,2.4,2.5
			c0,1.7-1.4,2.6-3.3,2.6c-1.8,0-3.2-0.8-3.3-2.6h1.4c0.1,0.7,0.4,1.5,1.9,1.5c1.1,0,1.9-0.5,1.9-1.4c0-0.7-0.2-1-1.3-1.2l-1.3-0.2
			c-1.5-0.2-2.3-0.9-2.3-2.3c0-1.5,1.1-2.6,3.1-2.6c1.8,0,2.9,0.9,3,2.3L338,29.8L338,29.8z"/>
		<path class="st12" d="M341.5,34.1h2v2h-2V34.1z"/>
		<path class="st12" d="M1.6,60.2H6v1.3H1.6V60.2z"/>
		<path class="st12" d="M18.2,53.7c3,0,5.5,2,5.5,6.3c0,4.4-2.5,6.3-5.5,6.3c-3,0-5.5-2-5.5-6.3C12.8,55.6,15.3,53.7,18.2,53.7z
			 M22.2,60c0-3.4-1.6-5.2-4-5.2c-2.3,0-3.9,1.7-3.9,5.2c0,3.3,1.6,5.1,3.9,5.1C20.5,65.2,22.2,63.3,22.2,60z"/>
		<path class="st12" d="M27.9,62.8c0,0.6,0,1.3,0.3,1.7c0.3,0.4,0.7,0.6,1.3,0.6c1.6,0,2.3-1,2.3-2.9v-4.6h1.4v8.4h-1.4v-1.4h0
			c-0.4,0.9-1.3,1.7-2.7,1.7c-1.6,0-2.7-0.8-2.7-2.8v-5.9h1.4L27.9,62.8L27.9,62.8z"/>
		<path class="st12" d="M38.2,55.2v2.5h2.1v1.1h-2.1v5c0,0.9,0.4,1.3,1.3,1.3c0.4,0,0.9-0.1,0.9-0.1v1.2c0,0-0.6,0.1-1.3,0.1
			c-1.7,0-2.3-0.8-2.3-2.2v-5.2h-1.5v-1.1h0.3c1.1,0,1.4-0.3,1.4-1.9v-0.6C36.9,55.2,38.2,55.2,38.2,55.2z"/>
		<path class="st12" d="M42.4,53.5h1.4v12.6h-1.4V53.5z"/>
		<path class="st12" d="M46.9,54.2h1.5v1.5h-1.5V54.2z M47,57.7h1.5v8.4H47V57.7z"/>
		<path class="st12" d="M57,60.9c0-0.6,0-1.3-0.3-1.7c-0.3-0.4-0.8-0.6-1.3-0.6c-1.6,0-2.3,1-2.3,2.4v5.1h-1.4v-8.4H53v1.4h0
			c0.4-0.9,1.4-1.6,2.7-1.6c1.6,0,2.7,0.8,2.7,2.8v5.9H57V60.9z"/>
		<path class="st12" d="M64.5,66.3c-2.6,0-3.8-1.9-3.8-4.4c0-2.5,1.3-4.5,3.8-4.5c2.5,0,3.5,2,3.5,4.1v0.7h-5.8
			c0.1,1.7,0.8,2.9,2.4,2.9c1.4,0,1.8-0.8,1.9-1.3h1.4C67.6,65.3,66.3,66.3,64.5,66.3z M66.5,61c0-1.4-0.6-2.5-2.1-2.5
			c-1.3,0-2.1,1.1-2.3,2.6L66.5,61C66.5,61.1,66.5,61,66.5,61z"/>
		<path class="st12" d="M74.6,60c0-1.5,1.2-2.5,3.2-2.5c2.1,0,3.1,0.9,3.1,3.1V64c0,0.7,0.1,0.9,0.8,1v1.2h-0.2
			c-1.3,0-1.8-0.5-1.9-1.5h0c-0.4,1-1.5,1.6-2.7,1.6c-1.7,0-2.7-0.9-2.7-2.4c0-0.9,0.4-1.7,1.3-2.1c0.9-0.5,2.2-0.6,4.1-0.7v-0.4
			c0-1.5-0.6-2.1-1.8-2.1c-1.3,0-1.7,0.7-1.8,1.4H74.6z M79.5,62.3v-0.2c-1.8,0.1-2.9,0.2-3.4,0.6c-0.3,0.2-0.5,0.6-0.5,1
			c0,0.9,0.6,1.3,1.5,1.3C78.2,65.1,79.5,64.3,79.5,62.3z"/>
		<path class="st12" d="M83.9,53.5h1.4v12.6h-1.4V53.5z"/>
		<path class="st12" d="M88.5,53.5H90v12.6h-1.4V53.5z"/>
		<path class="st12" d="M99.4,66.1H98v-7.3h-1.5v-1.1H98v-1.9c0-1.7,1-2.3,2.6-2.3c0.3,0,0.6,0,0.9,0.1v1.2c-0.2,0-0.4-0.1-0.8-0.1
			c-0.8,0-1.2,0.3-1.2,1.3v1.7h2v1.1h-2L99.4,66.1L99.4,66.1z"/>
		<path class="st12" d="M102.6,61.9c0-2.6,1.4-4.4,3.8-4.4c2.5,0,3.8,1.8,3.8,4.4c0,2.6-1.4,4.4-3.8,4.4
			C103.9,66.3,102.6,64.5,102.6,61.9z M104.1,61.9c0,2.1,0.7,3.3,2.3,3.3c1.6,0,2.3-1.3,2.3-3.3c0-2-0.7-3.3-2.3-3.3
			C104.9,58.6,104.1,59.8,104.1,61.9z"/>
		<path class="st12" d="M118,60.9c0-0.6,0-1.3-0.3-1.7c-0.3-0.4-0.8-0.6-1.3-0.6c-1.6,0-2.3,1-2.3,2.4v5.1h-1.4v-8.4h1.4v1.4h0
			c0.4-0.9,1.4-1.6,2.7-1.6c1.6,0,2.7,0.8,2.7,2.8v5.9H118V60.9z"/>
		<path class="st12" d="M124.3,55.2v2.5h2.1v1.1h-2.1v5c0,0.9,0.4,1.3,1.3,1.3c0.4,0,0.9-0.1,0.9-0.1v1.2c0,0-0.6,0.1-1.3,0.1
			c-1.7,0-2.3-0.8-2.3-2.2v-5.2h-1.5v-1.1h0.3c1.1,0,1.4-0.3,1.4-1.9v-0.6C122.9,55.2,124.3,55.2,124.3,55.2z"/>
		<path class="st12" d="M132.7,59.8c-0.1-0.8-0.7-1.2-1.7-1.2s-1.6,0.6-1.6,1.4c0,0.7,0.4,1,1.3,1.2l1.3,0.2c1.8,0.3,2.4,1,2.4,2.5
			c0,1.7-1.4,2.6-3.3,2.6c-1.8,0-3.2-0.8-3.3-2.6h1.4c0.1,0.7,0.4,1.5,1.9,1.5c1.1,0,1.9-0.5,1.9-1.4c0-0.7-0.2-1-1.3-1.2l-1.3-0.2
			c-1.5-0.2-2.3-0.9-2.3-2.3c0-1.5,1.1-2.6,3.1-2.6c1.8,0,2.9,0.8,3,2.3L132.7,59.8L132.7,59.8z"/>
		<path class="st12" d="M142.6,62.8c0,0.6,0,1.3,0.3,1.7c0.3,0.4,0.7,0.6,1.3,0.6c1.6,0,2.3-1,2.3-2.9v-4.6h1.4v8.4h-1.4v-1.4h0
			c-0.4,0.9-1.3,1.7-2.7,1.7c-1.6,0-2.7-0.8-2.7-2.8v-5.9h1.4L142.6,62.8L142.6,62.8z"/>
		<path class="st12" d="M155.3,59.8c-0.1-0.8-0.7-1.2-1.7-1.2s-1.6,0.6-1.6,1.4c0,0.7,0.4,1,1.3,1.2l1.3,0.2c1.8,0.3,2.4,1,2.4,2.5
			c0,1.7-1.4,2.6-3.3,2.6c-1.8,0-3.2-0.8-3.3-2.6h1.4c0.1,0.7,0.4,1.5,1.9,1.5c1.1,0,1.9-0.5,1.9-1.4c0-0.7-0.2-1-1.3-1.2l-1.3-0.2
			c-1.5-0.2-2.3-0.9-2.3-2.3c0-1.5,1.1-2.6,3.1-2.6c1.8,0,2.9,0.8,3,2.3L155.3,59.8L155.3,59.8z"/>
		<path class="st12" d="M162.5,66.3c-2.6,0-3.8-1.9-3.8-4.4c0-2.5,1.3-4.5,3.8-4.5c2.5,0,3.5,2,3.5,4.1v0.7h-5.8
			c0.1,1.7,0.8,2.9,2.4,2.9c1.4,0,1.8-0.8,1.9-1.3h1.4C165.6,65.3,164.3,66.3,162.5,66.3z M164.5,61c0-1.4-0.6-2.5-2.1-2.5
			c-1.3,0-2.1,1.1-2.3,2.6L164.5,61L164.5,61L164.5,61z"/>
		<path class="st12" d="M175.3,66.1h-1.4v-1.4h-0.1c-0.4,0.8-1.4,1.6-2.7,1.6c-1.8,0-3.4-1.1-3.4-4.4c0-2.9,1.5-4.5,3.6-4.5
			c1.3,0,2.1,0.7,2.4,1.5h0v-5.5h1.4L175.3,66.1L175.3,66.1z M173.8,61.5c0-1.8-0.9-3-2.3-3c-1.6,0-2.4,1.3-2.4,3.3
			c0,1.9,0.6,3.3,2.2,3.3c1.5,0,2.4-1.2,2.4-2.7V61.5z"/>
		<path class="st12" d="M182.9,54.2h1.5v1.5h-1.5V54.2z M182.9,57.7h1.5v8.4h-1.5V57.7z"/>
		<path class="st12" d="M192.9,60.9c0-0.6,0-1.3-0.3-1.7c-0.3-0.4-0.8-0.6-1.3-0.6c-1.6,0-2.3,1-2.3,2.4v5.1h-1.4v-8.4h1.4v1.4h0
			c0.4-0.9,1.4-1.6,2.7-1.6c1.6,0,2.7,0.8,2.7,2.8v5.9h-1.4V60.9z"/>
		<path class="st12" d="M201.1,57.7h1.4l1.8,5.3c0.3,0.8,0.4,1.3,0.4,1.3h0.1c0,0,0.1-0.5,0.4-1.3l1.7-5.3h1.4l-3.1,9
			c-0.7,1.9-1.2,2.7-3.1,2.7c-0.3,0-0.6-0.1-0.9-0.1V68c0.3,0.1,0.6,0.1,0.7,0.1c1.1,0,1.4-0.4,1.8-1.5l0.2-0.4L201.1,57.7z"/>
		<path class="st12" d="M209.6,61.9c0-2.6,1.4-4.4,3.8-4.4c2.5,0,3.8,1.8,3.8,4.4c0,2.6-1.4,4.4-3.8,4.4
			C210.9,66.3,209.6,64.5,209.6,61.9z M211.1,61.9c0,2.1,0.7,3.3,2.3,3.3c1.6,0,2.3-1.3,2.3-3.3c0-2-0.7-3.3-2.3-3.3
			C211.8,58.6,211.1,59.8,211.1,61.9z"/>
		<path class="st12" d="M221,62.8c0,0.6,0,1.3,0.3,1.7c0.3,0.4,0.7,0.6,1.3,0.6c1.6,0,2.3-1,2.3-2.9v-4.6h1.4v8.4h-1.4v-1.4h0
			c-0.4,0.9-1.3,1.7-2.7,1.7c-1.6,0-2.7-0.8-2.7-2.8v-5.9h1.4L221,62.8L221,62.8z"/>
		<path class="st12" d="M229.5,57.7h1.4v1.6h0c0.4-0.9,1.4-1.8,2.7-1.8h0.1V59h-0.3c-1.5,0-2.5,0.9-2.5,2.5v4.6h-1.4L229.5,57.7
			L229.5,57.7z"/>
		<path class="st12" d="M247.2,66.1h-1.4v-1.4h-0.1c-0.4,0.8-1.4,1.6-2.7,1.6c-1.8,0-3.4-1.1-3.4-4.4c0-2.9,1.5-4.5,3.6-4.5
			c1.3,0,2.1,0.7,2.4,1.5h0v-5.5h1.4L247.2,66.1L247.2,66.1z M245.8,61.5c0-1.8-0.9-3-2.3-3c-1.6,0-2.4,1.3-2.4,3.3
			c0,1.9,0.6,3.3,2.2,3.3c1.5,0,2.4-1.2,2.4-2.7V61.5z"/>
		<path class="st12" d="M253.4,66.3c-2.6,0-3.8-1.9-3.8-4.4c0-2.5,1.3-4.5,3.8-4.5c2.5,0,3.5,2,3.5,4.1v0.7H251
			c0.1,1.7,0.8,2.9,2.4,2.9c1.4,0,1.8-0.8,1.9-1.3h1.4C256.5,65.3,255.2,66.3,253.4,66.3z M255.4,61c0-1.4-0.6-2.5-2.1-2.5
			c-1.3,0-2.1,1.1-2.3,2.6L255.4,61L255.4,61L255.4,61z"/>
		<path class="st12" d="M263.5,59.8c-0.1-0.8-0.7-1.2-1.7-1.2s-1.6,0.6-1.6,1.4c0,0.7,0.4,1,1.3,1.2l1.3,0.2c1.8,0.3,2.4,1,2.4,2.5
			c0,1.7-1.4,2.6-3.3,2.6c-1.8,0-3.2-0.8-3.3-2.6h1.4c0.1,0.7,0.4,1.5,1.9,1.5c1.1,0,1.9-0.5,1.9-1.4c0-0.7-0.2-1-1.3-1.2l-1.3-0.2
			c-1.5-0.2-2.3-0.9-2.3-2.3c0-1.5,1.1-2.6,3.1-2.6c1.8,0,2.9,0.8,3,2.3L263.5,59.8L263.5,59.8z"/>
		<path class="st12" d="M267.5,54.2h1.5v1.5h-1.5V54.2z M267.6,57.7h1.5v8.4h-1.5V57.7z"/>
		<path class="st12" d="M271.7,66.9h1.4c0.2,0.7,0.7,1.2,2.1,1.2c1.6,0,2.4-0.6,2.4-2.4v-1.3h0c-0.4,0.8-1.4,1.6-2.7,1.6
			c-1.8,0-3.4-1.1-3.4-4.2c0-2.8,1.5-4.3,3.5-4.3c1.4,0,2.2,0.8,2.5,1.5h0v-1.3h1.4v8.2c0,2.4-1.5,3.4-3.8,3.4
			C273.5,69.3,271.9,68.7,271.7,66.9z M277.6,61.4c0-1.7-0.9-2.8-2.4-2.8c-1.5,0-2.2,1.3-2.2,3.2c0,1.9,0.5,3.1,2.3,3.1
			c1.4,0,2.3-1.2,2.3-2.6L277.6,61.4L277.6,61.4z"/>
		<path class="st12" d="M287.5,60.9c0-0.6,0-1.3-0.3-1.7c-0.3-0.4-0.8-0.6-1.3-0.6c-1.6,0-2.3,1-2.3,2.4v5.1h-1.4v-8.4h1.4v1.4h0
			c0.4-0.9,1.4-1.6,2.7-1.6c1.6,0,2.7,0.8,2.7,2.8v5.9h-1.4V60.9z"/>
		<path class="st12" d="M291.4,64.1h2v1.9h-2V64.1z"/>
		<path class="st12" d="M1.6,90.2H6v1.3H1.6V90.2z"/>
		<path class="st12" d="M13.4,83.8h7.8v1.3h-6.3v4.1h5.8v1.3h-5.8v4.2h6.4v1.3h-7.9V83.8z"/>
		<path class="st12" d="M25.9,91.7l-2.7-4.1h1.7l1.8,2.9h0l1.9-2.9h1.6l-2.7,4l2.9,4.4h-1.7l-2.1-3.3h0l-2.1,3.3H23L25.9,91.7z"/>
		<path class="st12" d="M32.4,87.7h1.4v1.4h0c0.5-0.9,1.4-1.6,2.7-1.6c1.8,0,3.4,1.1,3.4,4.3c0,3.1-1.6,4.6-3.5,4.6
			c-1.2,0-2.2-0.7-2.5-1.4h0v4.2h-1.4C32.4,99.1,32.4,87.7,32.4,87.7z M36.2,95.2c1.5,0,2.2-1.2,2.2-3.4c0-1.8-0.5-3.2-2.3-3.2
			c-1.5,0-2.4,1.3-2.4,2.7v0.9C33.8,93.8,34.6,95.2,36.2,95.2z"/>
		<path class="st12" d="M41.7,91.9c0-2.6,1.4-4.4,3.8-4.4c2.5,0,3.8,1.8,3.8,4.4c0,2.6-1.4,4.4-3.8,4.4C43,96.3,41.7,94.5,41.7,91.9
			z M43.2,91.9c0,2.1,0.7,3.3,2.3,3.3c1.6,0,2.3-1.3,2.3-3.3c0-2.1-0.7-3.3-2.3-3.3C44,88.6,43.2,89.8,43.2,91.9z"/>
		<path class="st12" d="M51.7,87.7h1.4v1.6h0c0.4-0.9,1.4-1.8,2.7-1.8h0.1V89h-0.3c-1.5,0-2.5,0.9-2.5,2.5v4.6h-1.4V87.7z"/>
		<path class="st12" d="M60.1,85.2v2.4h2.1v1.1h-2.1v5c0,0.9,0.4,1.3,1.3,1.3c0.4,0,0.9-0.1,0.9-0.1v1.2c0,0-0.6,0.1-1.3,0.1
			c-1.7,0-2.3-0.8-2.3-2.2v-5.2h-1.5v-1.1h0.3c1.1,0,1.4-0.3,1.4-1.9v-0.6H60.1z"/>
		<path class="st12" d="M68.5,90c0-1.5,1.2-2.5,3.2-2.5c2.1,0,3.1,0.9,3.1,3.1V94c0,0.7,0.1,0.9,0.8,1v1.2h-0.2
			c-1.3,0-1.8-0.5-1.9-1.5h0c-0.4,1-1.5,1.6-2.7,1.6c-1.7,0-2.7-0.9-2.7-2.4c0-0.9,0.4-1.7,1.3-2.1c0.9-0.5,2.2-0.6,4.1-0.7v-0.4
			c0-1.5-0.6-2.1-1.8-2.1c-1.3,0-1.7,0.7-1.8,1.4H68.5z M73.4,92.3v-0.2c-1.8,0.1-2.9,0.2-3.4,0.6c-0.3,0.2-0.5,0.6-0.5,1
			c0,0.9,0.6,1.3,1.5,1.3C72.1,95.1,73.4,94.3,73.4,92.3z"/>
		<path class="st12" d="M83.2,90.9c0-0.6,0-1.3-0.3-1.7c-0.3-0.4-0.8-0.6-1.3-0.6c-1.6,0-2.3,1-2.3,2.4v5.1h-1.4v-8.4h1.4v1.4h0
			c0.4-0.9,1.4-1.6,2.7-1.6c1.6,0,2.7,0.8,2.7,2.8v5.9h-1.4V90.9z"/>
		<path class="st12" d="M94.5,96.1h-1.4v-1.4h-0.1c-0.4,0.8-1.4,1.6-2.7,1.6c-1.8,0-3.4-1.1-3.4-4.4c0-2.9,1.5-4.5,3.6-4.5
			c1.3,0,2.1,0.7,2.4,1.5h0v-5.5h1.4L94.5,96.1L94.5,96.1z M93.1,91.6c0-1.8-0.9-2.9-2.3-2.9c-1.6,0-2.3,1.3-2.3,3.3
			c0,1.9,0.6,3.3,2.2,3.3c1.5,0,2.4-1.2,2.4-2.7V91.6z"/>
		<path class="st12" d="M106.3,89.8c-0.1-0.8-0.7-1.2-1.7-1.2s-1.7,0.6-1.7,1.4c0,0.7,0.4,1,1.3,1.2l1.3,0.2c1.8,0.3,2.4,1,2.4,2.4
			c0,1.7-1.4,2.6-3.3,2.6c-1.8,0-3.2-0.8-3.3-2.6h1.4c0.1,0.7,0.4,1.5,1.9,1.5c1.2,0,1.9-0.5,1.9-1.4c0-0.7-0.2-1-1.3-1.2l-1.3-0.2
			c-1.5-0.2-2.3-0.9-2.3-2.3c0-1.5,1.1-2.6,3.1-2.6c1.8,0,2.9,0.8,3,2.3L106.3,89.8L106.3,89.8z"/>
		<path class="st12" d="M111.7,92.8c0,0.6,0,1.3,0.3,1.7c0.3,0.4,0.7,0.6,1.3,0.6c1.6,0,2.3-1,2.3-2.9v-4.6h1.4v8.4h-1.4v-1.4h0
			c-0.4,0.9-1.3,1.7-2.7,1.7c-1.6,0-2.7-0.8-2.7-2.8v-5.9h1.4L111.7,92.8L111.7,92.8z"/>
		<path class="st12" d="M120.2,83.5h1.4v5.6h0c0.5-0.9,1.4-1.6,2.7-1.6c1.8,0,3.4,1.1,3.4,4.3c0,3.1-1.6,4.6-3.5,4.6
			c-1.3,0-2.2-0.7-2.6-1.6h0v1.3h-1.4L120.2,83.5L120.2,83.5z M126.2,91.8c0-1.8-0.5-3.2-2.3-3.2c-1.5,0-2.4,1.3-2.4,2.7v0.9
			c0,1.7,0.8,3,2.4,3C125.5,95.2,126.2,94,126.2,91.8z"/>
		<path class="st12" d="M130.1,87.7h1.4v1.4h0c0.4-0.9,1.4-1.6,2.7-1.6c1.3,0,2.2,0.6,2.5,1.8h0c0.3-0.9,1.4-1.8,2.8-1.8
			c1.6,0,2.7,0.8,2.7,2.8v5.9h-1.4v-5.2c0-0.6,0-1.3-0.3-1.7c-0.3-0.4-0.8-0.5-1.3-0.5c-1.6,0-2.3,1-2.3,2.4v5.1h-1.4v-5.2
			c0-0.6,0-1.3-0.3-1.7c-0.3-0.4-0.8-0.6-1.3-0.6c-1.6,0-2.3,1-2.3,2.3v5.1h-1.4L130.1,87.7L130.1,87.7z"/>
		<path class="st12" d="M145.3,84.2h1.5v1.6h-1.5V84.2z M145.3,87.7h1.5v8.4h-1.5V87.7z"/>
		<path class="st12" d="M151.7,85.2v2.4h2.1v1.1h-2.1v5c0,0.9,0.4,1.3,1.3,1.3c0.4,0,0.9-0.1,0.9-0.1v1.2c0,0-0.6,0.1-1.3,0.1
			c-1.6,0-2.3-0.8-2.3-2.2v-5.2h-1.5v-1.1h0.3c1.1,0,1.4-0.3,1.4-1.9v-0.6H151.7z"/>
		<path class="st12" d="M160.4,83.5h1.4v12.6h-1.4V83.5z"/>
		<path class="st12" d="M164.3,91.9c0-2.6,1.4-4.4,3.8-4.4c2.5,0,3.8,1.8,3.8,4.4c0,2.6-1.4,4.4-3.8,4.4
			C165.5,96.3,164.3,94.5,164.3,91.9z M165.7,91.9c0,2.1,0.7,3.3,2.3,3.3c1.6,0,2.3-1.3,2.3-3.3c0-2.1-0.7-3.3-2.3-3.3
			C166.5,88.6,165.7,89.8,165.7,91.9z"/>
		<path class="st12" d="M173.9,96.9h1.4c0.2,0.7,0.7,1.2,2.1,1.2c1.6,0,2.4-0.6,2.4-2.4v-1.3h0c-0.4,0.8-1.4,1.6-2.7,1.6
			c-1.8,0-3.4-1.1-3.4-4.2c0-2.8,1.5-4.3,3.6-4.3c1.4,0,2.2,0.8,2.5,1.5h0v-1.3h1.4v8.2c0,2.4-1.6,3.4-3.8,3.4
			C175.7,99.3,174,98.7,173.9,96.9z M179.8,91.4c0-1.7-0.9-2.8-2.4-2.8c-1.5,0-2.2,1.3-2.2,3.2c0,1.9,0.5,3.1,2.3,3.1
			c1.4,0,2.3-1.2,2.3-2.6L179.8,91.4L179.8,91.4z"/>
		<path class="st12" d="M183.6,91.9c0-2.6,1.4-4.4,3.8-4.4c2.5,0,3.8,1.8,3.8,4.4c0,2.6-1.4,4.4-3.8,4.4
			C184.8,96.3,183.6,94.5,183.6,91.9z M185,91.9c0,2.1,0.7,3.3,2.3,3.3c1.6,0,2.3-1.3,2.3-3.3c0-2.1-0.7-3.3-2.3-3.3
			C185.8,88.6,185,89.8,185,91.9z"/>
		<path class="st12" d="M197.8,89.8c-0.1-0.8-0.7-1.2-1.7-1.2s-1.6,0.6-1.6,1.4c0,0.7,0.4,1,1.3,1.2l1.3,0.2c1.8,0.3,2.4,1,2.4,2.4
			c0,1.7-1.4,2.6-3.3,2.6c-1.8,0-3.2-0.8-3.3-2.6h1.4c0.1,0.7,0.4,1.5,1.9,1.5c1.1,0,1.9-0.5,1.9-1.4c0-0.7-0.2-1-1.3-1.2l-1.3-0.2
			c-1.5-0.2-2.3-0.9-2.3-2.3c0-1.5,1.1-2.6,3.1-2.6c1.8,0,2.9,0.8,3,2.3L197.8,89.8L197.8,89.8z"/>
		<path class="st12" d="M206,90c0-1.5,1.2-2.5,3.2-2.5c2.1,0,3.1,0.9,3.1,3.1V94c0,0.7,0.1,0.9,0.8,1v1.2h-0.2
			c-1.3,0-1.8-0.5-1.9-1.5h0c-0.4,1-1.5,1.6-2.7,1.6c-1.7,0-2.7-0.9-2.7-2.4c0-0.9,0.4-1.7,1.3-2.1c0.9-0.5,2.2-0.6,4.1-0.7v-0.4
			c0-1.5-0.6-2.1-1.8-2.1c-1.3,0-1.7,0.7-1.8,1.4H206z M210.9,92.3v-0.2c-1.8,0.1-2.9,0.2-3.4,0.6c-0.3,0.2-0.5,0.6-0.5,1
			c0,0.9,0.6,1.3,1.5,1.3C209.6,95.1,210.9,94.3,210.9,92.3z"/>
		<path class="st12" d="M217.1,85.2v2.4h2.1v1.1h-2.1v5c0,0.9,0.4,1.3,1.3,1.3c0.4,0,0.9-0.1,0.9-0.1v1.2c0,0-0.6,0.1-1.3,0.1
			c-1.6,0-2.3-0.8-2.3-2.2v-5.2h-1.5v-1.1h0.3c1.1,0,1.4-0.3,1.4-1.9v-0.6H217.1z"/>
		<path class="st12" d="M227.6,87.4h-2.4v-1h0.4c0.8,0,1.4-0.2,1.7-0.6c0.4-0.3,0.5-0.8,0.5-1.6h1.2v11.9h-1.5L227.6,87.4
			L227.6,87.4z"/>
		<path class="st12" d="M236.6,84.1c2.6,0,4.3,2,4.3,6.2c0,4.1-1.7,6.2-4.3,6.2c-2.6,0-4.2-2-4.2-6.2
			C232.4,86.1,234,84.1,236.6,84.1z M239.3,90.2c0-3.3-1-5-2.7-5c-1.7,0-2.7,1.6-2.7,5c0,3.3,1,4.9,2.7,4.9
			C238.3,95.2,239.3,93.5,239.3,90.2z"/>
		<path class="st12" d="M247.6,84.1c2.6,0,4.3,2,4.3,6.2c0,4.1-1.7,6.2-4.3,6.2c-2.6,0-4.2-2-4.2-6.2
			C243.3,86.1,245,84.1,247.6,84.1z M250.3,90.2c0-3.3-1-5-2.7-5c-1.7,0-2.7,1.6-2.7,5c0,3.3,1,4.9,2.7,4.9
			C249.2,95.2,250.3,93.5,250.3,90.2z"/>
		<path class="st12" d="M258.5,84.1c2.6,0,4.3,2,4.3,6.2c0,4.1-1.7,6.2-4.3,6.2c-2.6,0-4.2-2-4.2-6.2
			C254.3,86.1,255.9,84.1,258.5,84.1z M261.2,90.2c0-3.3-1-5-2.7-5c-1.7,0-2.7,1.6-2.7,5c0,3.3,1,4.9,2.7,4.9
			C260.2,95.2,261.2,93.5,261.2,90.2z"/>
		<path class="st12" d="M265.5,87.7h1.4v1.4h0c0.5-0.9,1.4-1.6,2.7-1.6c1.8,0,3.4,1.1,3.4,4.3c0,3.1-1.6,4.6-3.5,4.6
			c-1.2,0-2.2-0.7-2.5-1.4h0v4.2h-1.4L265.5,87.7L265.5,87.7z M269.4,95.2c1.5,0,2.2-1.2,2.2-3.4c0-1.8-0.5-3.2-2.3-3.2
			c-1.5,0-2.4,1.3-2.4,2.7v0.9C266.9,93.8,267.8,95.2,269.4,95.2z"/>
		<path class="st12" d="M277,91.7l-2.7-4.1h1.7l1.8,2.9h0l1.9-2.9h1.6l-2.7,4l2.9,4.4h-1.7l-2.1-3.3h0l-2.1,3.3h-1.6L277,91.7z"/>
		<path class="st12" d="M292.3,89.8c-0.1-0.8-0.7-1.2-1.7-1.2s-1.6,0.6-1.6,1.4c0,0.7,0.4,1,1.3,1.2l1.3,0.2c1.8,0.3,2.4,1,2.4,2.4
			c0,1.7-1.4,2.6-3.3,2.6c-1.8,0-3.2-0.8-3.3-2.6h1.4c0.1,0.7,0.4,1.5,1.9,1.5c1.1,0,1.9-0.5,1.9-1.4c0-0.7-0.2-1-1.3-1.2l-1.3-0.2
			c-1.5-0.2-2.3-0.9-2.3-2.3c0-1.5,1.1-2.6,3.1-2.6c1.8,0,2.9,0.8,3,2.3L292.3,89.8L292.3,89.8z"/>
		<path class="st12" d="M303.2,99.1h-1.4v-4.3h0c-0.4,0.8-1.3,1.5-2.6,1.5c-1.8,0-3.4-1.1-3.4-4.4c0-2.9,1.5-4.5,3.6-4.5
			c1.3,0,2.1,0.7,2.5,1.5h0v-1.3h1.4L303.2,99.1L303.2,99.1z M301.8,92.4v-0.9c0-1.8-0.9-2.9-2.3-2.9c-1.6,0-2.4,1.3-2.4,3.3
			c0,1.9,0.6,3.3,2.2,3.3C300.8,95.2,301.8,94,301.8,92.4z"/>
		<path class="st12" d="M307.6,92.8c0,0.6,0,1.3,0.3,1.7c0.3,0.4,0.7,0.6,1.3,0.6c1.6,0,2.3-1,2.3-2.9v-4.6h1.4v8.4h-1.4v-1.4h0
			c-0.4,0.9-1.3,1.7-2.7,1.7c-1.6,0-2.7-0.8-2.7-2.8v-5.9h1.4L307.6,92.8L307.6,92.8z"/>
		<path class="st12" d="M315.7,90c0-1.5,1.2-2.5,3.2-2.5c2.1,0,3.1,0.9,3.1,3.1V94c0,0.7,0.1,0.9,0.8,1v1.2h-0.2
			c-1.3,0-1.8-0.5-1.9-1.5h0c-0.5,1-1.5,1.6-2.7,1.6c-1.7,0-2.7-0.9-2.7-2.4c0-0.9,0.4-1.7,1.3-2.1c0.9-0.5,2.2-0.6,4.1-0.7v-0.4
			c0-1.5-0.6-2.1-1.8-2.1c-1.3,0-1.7,0.7-1.8,1.4H315.7z M320.6,92.3v-0.2c-1.8,0.1-2.9,0.2-3.4,0.6c-0.3,0.2-0.5,0.6-0.5,1
			c0,0.9,0.6,1.3,1.5,1.3C319.3,95.1,320.6,94.3,320.6,92.3z"/>
		<path class="st12" d="M325.1,87.7h1.4v1.6h0c0.4-0.9,1.4-1.8,2.7-1.8h0.1V89H329c-1.5,0-2.5,0.9-2.5,2.5v4.6h-1.4L325.1,87.7
			L325.1,87.7z"/>
		<path class="st12" d="M334.4,96.3c-2.6,0-3.8-1.9-3.8-4.4c0-2.5,1.3-4.5,3.8-4.5c2.5,0,3.5,1.9,3.5,4.1v0.7H332
			c0.1,1.7,0.8,2.9,2.4,2.9c1.4,0,1.8-0.8,1.9-1.3h1.4C337.4,95.3,336.2,96.3,334.4,96.3z M336.4,91c0-1.4-0.6-2.5-2.1-2.5
			c-1.3,0-2.1,1.1-2.3,2.6L336.4,91L336.4,91z"/>
		<path class="st12" d="M346.6,85.2v2.4h2.1v1.1h-2.1v5c0,0.9,0.4,1.3,1.3,1.3c0.4,0,0.9-0.1,0.9-0.1v1.2c0,0-0.6,0.1-1.3,0.1
			c-1.6,0-2.3-0.8-2.3-2.2v-5.2h-1.5v-1.1h0.3c1.1,0,1.4-0.3,1.4-1.9v-0.6H346.6z"/>
		<path class="st12" d="M350.2,91.9c0-2.6,1.4-4.4,3.8-4.4c2.5,0,3.8,1.8,3.8,4.4c0,2.6-1.4,4.4-3.8,4.4
			C351.5,96.3,350.2,94.5,350.2,91.9z M351.7,91.9c0,2.1,0.7,3.3,2.3,3.3c1.6,0,2.3-1.3,2.3-3.3c0-2.1-0.7-3.3-2.3-3.3
			C352.4,88.6,351.7,89.8,351.7,91.9z"/>
		<path class="st12" d="M359.8,87.7h2v2h-2V87.7z M359.8,96.1v-2h2v2H359.8z"/>
		<path class="st12" d="M19.6,120.2h4.4v1.3h-4.5C19.6,121.5,19.6,120.2,19.6,120.2z"/>
		<path class="st12" d="M30.1,126.1v-1.3h0.3c2.6,0,3-0.7,3-2.5v-8.6H35v8.7c0,2.6-1.4,3.6-4.1,3.6L30.1,126.1L30.1,126.1z"/>
		<path class="st12" d="M39.8,121.4v4.7h-1.5v-12.3H42c2.4,0,4.2,1.1,4.2,3.8c0,2.6-1.8,3.8-4.3,3.8L39.8,121.4L39.8,121.4z
			 M41.9,120.2c1.8,0,2.8-0.9,2.8-2.6c0-1.8-1-2.6-2.8-2.6h-2.1v5.2H41.9z"/>
		<path class="st12" d="M49.7,120.1c0,3.3,1.4,5.1,3.9,5.1c2.3,0,3.7-1.3,3.7-3.7v-0.2h-3.5v-1.3h5v6.2h-1.3v-1.8h-0.1
			c-0.6,1.1-1.8,2-3.8,2c-3.1,0-5.4-2-5.4-6.3c0-4,2.4-6.3,5.6-6.3c2.5,0,4.3,1.3,4.6,3.4h-1.6c-0.2-1.4-1.5-2.2-3.1-2.2
			C51.1,114.9,49.7,116.9,49.7,120.1z"/>
		<path class="st12" d="M61.8,124.1h1.8l-1.3,3.8h-1L61.8,124.1z"/>
		<path class="st12" d="M71.9,121.4v4.7h-1.5v-12.3h3.7c2.4,0,4.2,1.1,4.2,3.8c0,2.6-1.8,3.8-4.3,3.8L71.9,121.4L71.9,121.4z
			 M74,120.2c1.8,0,2.8-0.9,2.8-2.6c0-1.8-1-2.6-2.8-2.6H72v5.2H74z"/>
		<path class="st12" d="M80.8,113.8h1.9l5.4,9.1c0.4,0.7,0.6,1.2,0.6,1.2h0.1v-10.3h1.4v12.3h-1.9l-5.4-9.1
			c-0.5-0.8-0.6-1.2-0.6-1.2h0v10.3h-1.4C80.9,126.1,80.9,113.8,80.8,113.8z"/>
		<path class="st12" d="M94.7,120.1c0,3.3,1.4,5.1,3.9,5.1c2.3,0,3.7-1.3,3.7-3.7v-0.2h-3.5v-1.3h5v6.2h-1.3v-1.8h-0.1
			c-0.6,1.1-1.8,2-3.8,2c-3.1,0-5.4-2-5.4-6.3c0-4,2.4-6.3,5.6-6.3c2.5,0,4.3,1.3,4.6,3.4h-1.6c-0.2-1.4-1.5-2.2-3.1-2.2
			C96.1,114.9,94.7,116.9,94.7,120.1z"/>
		<path class="st12" d="M106.7,117.7h2v2h-2V117.7z M106.7,126.1v-2h2v2H106.7z"/>
		<path class="st12" d="M120,119.8c-0.1-0.8-0.7-1.2-1.7-1.2s-1.7,0.6-1.7,1.4c0,0.7,0.4,1,1.3,1.2l1.3,0.2c1.8,0.3,2.4,1,2.4,2.4
			c0,1.7-1.4,2.6-3.3,2.6c-1.8,0-3.2-0.8-3.3-2.6h1.4c0.1,0.7,0.4,1.5,1.9,1.5c1.2,0,1.9-0.5,1.9-1.4c0-0.7-0.2-1-1.3-1.2l-1.3-0.2
			c-1.5-0.2-2.3-0.9-2.3-2.3c0-1.5,1.1-2.6,3.1-2.6c1.8,0,2.9,0.8,3,2.3L120,119.8L120,119.8z"/>
		<path class="st12" d="M127.2,126.3c-2.6,0-3.8-1.9-3.8-4.4c0-2.5,1.3-4.5,3.8-4.5c2.5,0,3.5,1.9,3.5,4.1v0.7h-5.8
			c0.1,1.7,0.8,2.9,2.4,2.9c1.4,0,1.8-0.8,1.9-1.3h1.4C130.2,125.3,129,126.3,127.2,126.3z M129.1,121c0-1.4-0.6-2.5-2.1-2.5
			c-1.3,0-2.1,1.1-2.3,2.6L129.1,121L129.1,121z"/>
		<path class="st12" d="M134.8,115.2v2.4h2.1v1.1h-2.1v5c0,0.9,0.4,1.3,1.3,1.3c0.4,0,0.9-0.1,0.9-0.1v1.2c0,0-0.6,0.1-1.3,0.1
			c-1.6,0-2.3-0.8-2.3-2.2v-5.2h-1.5v-1.1h0.3c1.1,0,1.4-0.3,1.4-1.9v-0.6H134.8z"/>
		<path class="st12" d="M145.3,115.2v2.4h2.1v1.1h-2.1v5c0,0.9,0.4,1.3,1.3,1.3c0.4,0,0.9-0.1,0.9-0.1v1.2c0,0-0.6,0.1-1.3,0.1
			c-1.6,0-2.3-0.8-2.3-2.2v-5.2h-1.5v-1.1h0.3c1.1,0,1.4-0.3,1.4-1.9v-0.6H145.3z"/>
		<path class="st12" d="M148.9,121.9c0-2.6,1.4-4.4,3.8-4.4c2.5,0,3.8,1.8,3.8,4.4c0,2.6-1.4,4.4-3.8,4.4
			C150.2,126.3,148.9,124.5,148.9,121.9z M150.4,121.9c0,2.1,0.7,3.3,2.3,3.3c1.6,0,2.3-1.3,2.3-3.3c0-2.1-0.7-3.3-2.3-3.3
			C151.1,118.6,150.4,119.8,150.4,121.9z"/>
		<path class="st12" d="M163.4,117.7h1.4v1.4h0c0.4-0.9,1.4-1.6,2.7-1.6c1.3,0,2.2,0.6,2.5,1.8h0c0.3-0.9,1.4-1.8,2.8-1.8
			c1.6,0,2.7,0.8,2.7,2.8v5.9h-1.4v-5.2c0-0.6,0-1.3-0.3-1.7c-0.3-0.4-0.8-0.5-1.3-0.5c-1.6,0-2.3,1-2.3,2.4v5.1h-1.4v-5.2
			c0-0.6,0-1.3-0.3-1.7c-0.3-0.4-0.8-0.6-1.3-0.6c-1.6,0-2.3,1-2.3,2.3v5.1h-1.4L163.4,117.7L163.4,117.7z"/>
		<path class="st12" d="M178.3,120c0-1.5,1.2-2.5,3.2-2.5c2.1,0,3.1,0.9,3.1,3.1v3.4c0,0.7,0.1,0.9,0.8,1v1.2h-0.2
			c-1.3,0-1.8-0.5-1.9-1.5h0c-0.4,1-1.5,1.6-2.7,1.6c-1.7,0-2.7-0.9-2.7-2.4c0-0.9,0.4-1.7,1.3-2.1c0.9-0.5,2.2-0.6,4.1-0.7v-0.4
			c0-1.5-0.6-2.1-1.8-2.1c-1.3,0-1.7,0.7-1.8,1.4H178.3z M183.2,122.3v-0.2c-1.8,0.1-2.9,0.2-3.4,0.6c-0.3,0.2-0.5,0.6-0.5,1
			c0,0.9,0.6,1.3,1.5,1.3C181.8,125.1,183.2,124.3,183.2,122.3z"/>
		<path class="st12" d="M189.3,121.7l-2.7-4.1h1.7l1.8,2.9h0l1.9-2.9h1.6l-2.7,4l2.9,4.4h-1.7l-2.1-3.3H190l-2.1,3.3h-1.6
			L189.3,121.7z"/>
		<path class="st12" d="M195.8,114.2h1.5v1.6h-1.5V114.2z M195.9,117.7h1.5v8.4h-1.5V117.7z"/>
		<path class="st12" d="M200.5,117.7h1.4v1.4h0c0.4-0.9,1.4-1.6,2.7-1.6c1.3,0,2.2,0.6,2.5,1.8h0c0.3-0.9,1.4-1.8,2.8-1.8
			c1.6,0,2.7,0.8,2.7,2.8v5.9h-1.4v-5.2c0-0.6,0-1.3-0.3-1.7c-0.3-0.4-0.8-0.5-1.3-0.5c-1.6,0-2.3,1-2.3,2.4v5.1h-1.4v-5.2
			c0-0.6,0-1.3-0.3-1.7c-0.3-0.4-0.8-0.6-1.3-0.6c-1.6,0-2.3,1-2.3,2.3v5.1h-1.4L200.5,117.7L200.5,117.7z"/>
		<path class="st12" d="M217.1,122.8c0,0.6,0,1.3,0.3,1.7c0.3,0.4,0.7,0.6,1.3,0.6c1.6,0,2.3-1,2.3-2.9v-4.6h1.4v8.4H221v-1.4h0
			c-0.4,0.9-1.3,1.7-2.7,1.7c-1.6,0-2.7-0.8-2.7-2.8v-5.9h1.4L217.1,122.8L217.1,122.8z"/>
		<path class="st12" d="M225.6,117.7h1.4v1.4h0c0.4-0.9,1.4-1.6,2.7-1.6c1.3,0,2.2,0.6,2.5,1.8h0c0.3-0.9,1.4-1.8,2.8-1.8
			c1.6,0,2.7,0.8,2.7,2.8v5.9h-1.4v-5.2c0-0.6,0-1.3-0.3-1.7c-0.3-0.4-0.8-0.5-1.3-0.5c-1.6,0-2.3,1-2.3,2.4v5.1h-1.4v-5.2
			c0-0.6,0-1.3-0.3-1.7c-0.3-0.4-0.8-0.6-1.3-0.6c-1.6,0-2.3,1-2.3,2.3v5.1h-1.4L225.6,117.7L225.6,117.7z"/>
		<path class="st12" d="M252,129.1h-1.4v-4.3h-0.1c-0.4,0.8-1.3,1.5-2.6,1.5c-1.8,0-3.4-1.1-3.4-4.4c0-2.9,1.5-4.5,3.6-4.5
			c1.3,0,2.1,0.7,2.4,1.5h0v-1.3h1.4V129.1z M250.6,122.4v-0.9c0-1.8-0.9-2.9-2.3-2.9c-1.6,0-2.4,1.3-2.4,3.3c0,1.9,0.6,3.3,2.2,3.3
			C249.7,125.2,250.6,124,250.6,122.4z"/>
		<path class="st12" d="M256.5,122.8c0,0.6,0,1.3,0.3,1.7c0.3,0.4,0.7,0.6,1.3,0.6c1.6,0,2.3-1,2.3-2.9v-4.6h1.4v8.4h-1.4v-1.4h0
			c-0.4,0.9-1.3,1.7-2.7,1.7c-1.6,0-2.7-0.8-2.7-2.8v-5.9h1.4L256.5,122.8L256.5,122.8z"/>
		<path class="st12" d="M264.6,120c0-1.5,1.2-2.5,3.2-2.5c2.1,0,3.1,0.9,3.1,3.1v3.4c0,0.7,0.1,0.9,0.8,1v1.2h-0.2
			c-1.3,0-1.8-0.5-1.9-1.5h0c-0.5,1-1.5,1.6-2.7,1.6c-1.7,0-2.7-0.9-2.7-2.4c0-0.9,0.4-1.7,1.3-2.1c0.9-0.5,2.2-0.6,4.1-0.7v-0.4
			c0-1.5-0.6-2.1-1.8-2.1c-1.3,0-1.7,0.7-1.8,1.4H264.6z M269.5,122.3v-0.2c-1.8,0.1-2.9,0.2-3.4,0.6c-0.3,0.2-0.5,0.6-0.5,1
			c0,0.9,0.6,1.3,1.5,1.3C268.2,125.1,269.5,124.3,269.5,122.3z"/>
		<path class="st12" d="M273.9,113.5h1.4v12.6h-1.4V113.5z"/>
		<path class="st12" d="M278.5,114.2h1.5v1.6h-1.5V114.2z M278.5,117.7h1.5v8.4h-1.5V117.7z"/>
		<path class="st12" d="M284.9,115.2v2.4h2.1v1.1h-2.1v5c0,0.9,0.4,1.3,1.3,1.3c0.4,0,0.9-0.1,0.9-0.1v1.2c0,0-0.6,0.1-1.3,0.1
			c-1.6,0-2.3-0.8-2.3-2.2v-5.2H282v-1.1h0.3c1.1,0,1.4-0.3,1.4-1.9v-0.6H284.9z"/>
		<path class="st12" d="M288.5,117.7h1.4l1.8,5.3c0.3,0.8,0.4,1.3,0.4,1.3h0c0,0,0.1-0.5,0.4-1.3l1.7-5.3h1.4l-3.1,9
			c-0.7,1.9-1.2,2.7-3.1,2.7c-0.3,0-0.6-0.1-0.9-0.1V128c0.3,0.1,0.6,0.1,0.7,0.1c1.1,0,1.4-0.4,1.8-1.5l0.2-0.4L288.5,117.7z"/>
		<path class="st12" d="M296.2,124.1h2v1.9h-2V124.1z"/>
		<path class="st12" d="M19.6,150.2h4.4v1.3h-4.5C19.6,151.5,19.6,150.2,19.6,150.2z"/>
		<path class="st12" d="M32.9,151.4v4.7h-1.5v-12.3h3.7c2.4,0,4.2,1.1,4.2,3.8c0,2.6-1.8,3.8-4.3,3.8L32.9,151.4L32.9,151.4z
			 M35,150.2c1.8,0,2.8-0.9,2.8-2.6c0-1.8-1-2.6-2.8-2.6h-2.1v5.2H35z"/>
		<path class="st12" d="M41.8,143.9h3.8c3.3,0,5.9,1.6,5.9,6c0,4.3-2.4,6.3-5.8,6.3h-3.9L41.8,143.9L41.8,143.9z M45.5,154.8
			c2.6,0,4.4-1.3,4.4-4.9c0-3.4-1.8-4.7-4.3-4.7h-2.4v9.7L45.5,154.8L45.5,154.8z"/>
		<path class="st12" d="M55.8,156.1h-1.5v-12.3h7.3v1.3h-5.8v4.4h5.3v1.3h-5.3L55.8,156.1L55.8,156.1z"/>
		<path class="st12" d="M19.6,180.2h4.4v1.3h-4.5C19.6,181.5,19.6,180.2,19.6,180.2z"/>
		<path class="st12" d="M31.4,173.9h7.8v1.3h-6.3v4.1h5.8v1.3h-5.8v4.2h6.4v1.3h-7.9C31.4,186.1,31.4,173.9,31.4,173.9z"/>
		<path class="st12" d="M43.9,181.4v4.7h-1.5v-12.3h3.7c2.4,0,4.2,1.1,4.2,3.8c0,2.6-1.8,3.8-4.3,3.8L43.9,181.4L43.9,181.4z
			 M45.9,180.2c1.8,0,2.8-0.9,2.8-2.6c0-1.8-1-2.6-2.8-2.6h-2.1v5.2H45.9z"/>
		<path class="st12" d="M59.3,177.1c-0.1-1.2-0.8-2.3-2.5-2.3c-1.7,0-2.6,0.9-2.6,2.1c0,1.1,0.6,1.8,2,2l1.7,0.3
			c2.4,0.4,3.2,1.6,3.2,3.4c0,2.2-1.5,3.7-4.5,3.7c-2.8,0-4.5-1.5-4.6-3.7h1.5c0.2,1.3,1.1,2.5,3.1,2.5c2.2,0,2.9-1.1,2.9-2.4
			c0-1.1-0.6-1.8-2.1-2.1l-1.7-0.3c-2.4-0.4-3.3-1.7-3.3-3.3c0-2,1.6-3.4,4.2-3.4c2.6,0,3.9,1.4,4,3.5L59.3,177.1L59.3,177.1z"/>
		<path class="st12" d="M63.6,177.7h2v2h-2C63.6,179.6,63.6,177.7,63.6,177.7z M63.6,186.1v-2h2v2H63.6z"/>
		<path class="st12" d="M75.8,186.3c-2.6,0-3.8-1.9-3.8-4.4c0-2.5,1.3-4.5,3.8-4.5c2.5,0,3.5,1.9,3.5,4.1v0.7h-5.8
			c0.1,1.7,0.8,2.9,2.4,2.9c1.4,0,1.8-0.8,1.9-1.3h1.4C78.8,185.3,77.6,186.3,75.8,186.3z M77.8,181c0-1.4-0.6-2.5-2.1-2.5
			c-1.3,0-2.1,1.1-2.3,2.6L77.8,181L77.8,181z"/>
		<path class="st12" d="M83.3,181.7l-2.7-4.1h1.7l1.8,2.9h0l1.9-2.9h1.6l-2.7,4l2.9,4.4h-1.7l-2.1-3.3H84l-2.1,3.3h-1.6L83.3,181.7z
			"/>
		<path class="st12" d="M89.8,177.7h1.4v1.4h0c0.5-0.9,1.4-1.6,2.7-1.6c1.8,0,3.4,1.1,3.4,4.3c0,3.1-1.6,4.6-3.5,4.6
			c-1.2,0-2.2-0.7-2.5-1.4h0v4.2h-1.4V177.7z M93.6,185.2c1.5,0,2.2-1.2,2.2-3.4c0-1.8-0.5-3.1-2.3-3.1c-1.5,0-2.4,1.3-2.4,2.7v0.9
			C91.2,183.9,92,185.2,93.6,185.2z"/>
		<path class="st12" d="M99.1,181.9c0-2.6,1.4-4.4,3.8-4.4c2.5,0,3.8,1.8,3.8,4.4c0,2.6-1.4,4.4-3.8,4.4
			C100.4,186.3,99.1,184.5,99.1,181.9z M100.6,181.9c0,2.1,0.7,3.3,2.3,3.3c1.6,0,2.3-1.3,2.3-3.3c0-2.1-0.7-3.3-2.3-3.3
			C101.4,178.6,100.6,179.8,100.6,181.9z"/>
		<path class="st12" d="M109.1,177.7h1.4v1.6h0c0.4-0.9,1.4-1.8,2.7-1.8h0.1v1.5H113c-1.5,0-2.5,0.9-2.5,2.5v4.6h-1.4L109.1,177.7
			L109.1,177.7z"/>
		<path class="st12" d="M117.5,175.2v2.4h2.1v1.1h-2.1v5c0,0.9,0.4,1.3,1.3,1.3c0.4,0,0.9-0.1,0.9-0.1v1.2c0,0-0.6,0.1-1.3,0.1
			c-1.7,0-2.3-0.8-2.3-2.2v-5.2h-1.5v-1.1h0.3c1.1,0,1.4-0.3,1.4-1.9v-0.6H117.5z"/>
		<path class="st12" d="M130.6,180.9h-2.7v5.2h-1.5v-12.3h4.4c0.9,0,1.7,0.2,2.4,0.5c1,0.5,1.6,1.5,1.6,2.9c0,2.3-1.5,3.1-2.6,3.4v0
			l2.7,5.4h-1.7L130.6,180.9z M130.7,179.7c1.4,0,2.5-0.7,2.5-2.4c0-1.5-1-2.2-2.4-2.2h-2.9v4.6H130.7z"/>
		<path class="st12" d="M138.5,180.1c0,3.3,1.4,5.1,3.9,5.1c2.3,0,3.7-1.3,3.7-3.7v-0.2h-3.5v-1.3h5v6.2h-1.3v-1.8h-0.1
			c-0.6,1.1-1.8,2-3.8,2c-3.1,0-5.4-2-5.4-6.3c0-4,2.4-6.4,5.6-6.4c2.5,0,4.3,1.3,4.6,3.4h-1.6c-0.2-1.4-1.5-2.2-3.1-2.2
			C139.9,174.9,138.5,176.9,138.5,180.1z"/>
		<path class="st12" d="M151,186.1v-12.3h4.8c2.1,0,3.8,1,3.8,3c0,1.5-0.8,2.4-2.2,2.7v0c1.5,0.3,2.6,1.5,2.6,2.9
			c0,2.8-2.1,3.6-4.5,3.6H151z M155.5,179c1.3,0,2.5-0.5,2.5-2c0-1.3-0.9-1.9-2.3-1.9h-3.3v3.9H155.5z M155.4,184.9
			c1.8,0,3-0.6,3-2.4c0-1.6-1.1-2.2-3.1-2.2h-2.9v4.7H155.4z"/>
		<path class="st12" d="M169.2,188.2c-0.9-1.8-2.1-4.1-2.1-7.4c0-3.3,1.2-5.5,2.1-7.4h1.1c-0.9,1.9-1.8,4.1-1.8,7.4
			c0,3.3,0.8,5.4,1.8,7.4H169.2z"/>
		<path class="st12" d="M179.2,186.1h-1.4v-1.4h-0.1c-0.4,0.8-1.4,1.6-2.7,1.6c-1.8,0-3.4-1.1-3.4-4.4c0-2.9,1.5-4.5,3.6-4.5
			c1.3,0,2.1,0.7,2.4,1.5h0v-5.5h1.4L179.2,186.1L179.2,186.1z M177.8,181.6c0-1.8-0.9-2.9-2.3-2.9c-1.6,0-2.4,1.3-2.4,3.3
			c0,1.9,0.6,3.3,2.2,3.3c1.5,0,2.4-1.2,2.4-2.7V181.6z"/>
		<path class="st12" d="M182.3,174.2h1.5v1.6h-1.5V174.2z M182.4,177.7h1.5v8.4h-1.5V177.7z"/>
		<path class="st12" d="M186.4,186.9h1.4c0.2,0.7,0.7,1.2,2.1,1.2c1.6,0,2.4-0.6,2.4-2.4v-1.3h0c-0.4,0.8-1.4,1.6-2.7,1.6
			c-1.8,0-3.4-1.1-3.4-4.2c0-2.8,1.5-4.3,3.6-4.3c1.4,0,2.2,0.8,2.5,1.5h0v-1.3h1.4v8.2c0,2.4-1.6,3.4-3.8,3.4
			C188.3,189.3,186.6,188.7,186.4,186.9z M192.4,181.4c0-1.7-0.9-2.8-2.4-2.8c-1.5,0-2.2,1.3-2.2,3.2c0,1.9,0.5,3.1,2.3,3.1
			c1.4,0,2.3-1.2,2.3-2.6L192.4,181.4L192.4,181.4z"/>
		<path class="st12" d="M196.9,174.2h1.5v1.6h-1.5V174.2z M196.9,177.7h1.5v8.4h-1.5V177.7z"/>
		<path class="st12" d="M203.3,175.2v2.4h2.1v1.1h-2.1v5c0,0.9,0.4,1.3,1.3,1.3c0.4,0,0.9-0.1,0.9-0.1v1.2c0,0-0.6,0.1-1.3,0.1
			c-1.6,0-2.3-0.8-2.3-2.2v-5.2h-1.5v-1.1h0.3c1.1,0,1.4-0.3,1.4-1.9v-0.6H203.3z"/>
		<path class="st12" d="M207.8,180c0-1.5,1.2-2.5,3.2-2.5c2.1,0,3.1,0.9,3.1,3.1v3.4c0,0.7,0.1,0.9,0.8,1v1.2h-0.2
			c-1.3,0-1.8-0.5-1.9-1.5h0c-0.4,1-1.5,1.6-2.7,1.6c-1.7,0-2.7-0.9-2.7-2.4c0-0.9,0.4-1.7,1.3-2.1c0.9-0.5,2.2-0.6,4.1-0.7v-0.4
			c0-1.5-0.6-2.1-1.8-2.1c-1.3,0-1.7,0.7-1.8,1.4L207.8,180L207.8,180z M212.7,182.3v-0.2c-1.8,0.1-2.9,0.2-3.4,0.6
			c-0.3,0.2-0.5,0.6-0.5,1c0,0.9,0.6,1.3,1.5,1.3C211.4,185.1,212.7,184.4,212.7,182.3z"/>
		<path class="st12" d="M217.1,173.5h1.4v12.6h-1.4V173.5z"/>
		<path class="st12" d="M222.5,180.8c0-3.3-0.8-5.4-1.8-7.4h1.1c0.9,1.8,2.1,4.1,2.1,7.4c0,3.2-1.2,5.5-2.1,7.4h-1.1
			C221.7,186.2,222.5,184.1,222.5,180.8z"/>
		<path class="st12" d="M231.4,180c0-1.5,1.2-2.5,3.2-2.5c2.1,0,3.1,0.9,3.1,3.1v3.4c0,0.7,0.1,0.9,0.8,1v1.2h-0.2
			c-1.3,0-1.8-0.5-1.9-1.5h0c-0.4,1-1.5,1.6-2.7,1.6c-1.7,0-2.7-0.9-2.7-2.4c0-0.9,0.4-1.7,1.3-2.1c0.9-0.5,2.2-0.6,4.1-0.7v-0.4
			c0-1.5-0.6-2.1-1.8-2.1c-1.3,0-1.7,0.7-1.8,1.4L231.4,180L231.4,180z M236.3,182.3v-0.2c-1.8,0.1-2.9,0.2-3.4,0.6
			c-0.3,0.2-0.5,0.6-0.5,1c0,0.9,0.6,1.3,1.5,1.3C235,185.1,236.3,184.4,236.3,182.3z"/>
		<path class="st12" d="M246.1,180.9c0-0.6,0-1.3-0.3-1.7c-0.3-0.4-0.8-0.6-1.3-0.6c-1.6,0-2.3,1-2.3,2.4v5.1h-1.4v-8.4h1.4v1.4h0
			c0.4-0.9,1.4-1.6,2.7-1.6c1.6,0,2.7,0.8,2.7,2.8v5.9h-1.4V180.9z"/>
		<path class="st12" d="M257.4,186.1H256v-1.4h-0.1c-0.4,0.8-1.4,1.6-2.7,1.6c-1.8,0-3.4-1.1-3.4-4.4c0-2.9,1.5-4.5,3.6-4.5
			c1.3,0,2.1,0.7,2.4,1.5h0v-5.5h1.4L257.4,186.1L257.4,186.1z M256,181.6c0-1.8-0.9-2.9-2.3-2.9c-1.6,0-2.4,1.3-2.4,3.3
			c0,1.9,0.6,3.3,2.2,3.3c1.5,0,2.4-1.2,2.4-2.7V181.6z"/>
		<path class="st12" d="M266.2,180c0,3.2,1.4,5.1,3.9,5.1c2.2,0,3.1-1.5,3.2-2.9h1.5c-0.2,2.3-2,4.1-4.7,4.1c-3.2,0-5.4-2.1-5.4-6.3
			c0-4,2.3-6.3,5.5-6.3c2.1,0,4.4,1.1,4.7,3.8h-1.6c-0.2-1.3-1.2-2.6-3.1-2.6C267.6,174.9,266.2,176.9,266.2,180z"/>
		<path class="st12" d="M277.7,173.9h2.3l3.1,8.8c0.4,1.1,0.5,1.6,0.5,1.6h0c0,0,0.2-0.5,0.5-1.6l3.1-8.8h2.2v12.3H288v-10.5h0
			c0,0-0.2,0.6-0.7,1.9l-3.1,8.6h-1.4l-3-8.6c-0.4-1.3-0.7-1.9-0.7-1.9h0v10.5h-1.4L277.7,173.9L277.7,173.9z"/>
		<path class="st12" d="M295.9,180.9l-4.3-7h1.7l3.3,5.6h0l3.4-5.6h1.6l-4.3,6.9v5.3h-1.5L295.9,180.9L295.9,180.9z"/>
		<path class="st12" d="M305.1,186.1h-1.5v-12.3h1.5v6.3l5.7-6.3h1.8L308,179l5,7.1h-1.8l-4.3-6l-1.8,2L305.1,186.1L305.1,186.1z"/>
		<path class="st12" d="M321.7,188.2c-0.9-1.8-2.1-4.1-2.1-7.4c0-3.3,1.2-5.5,2.1-7.4h1.1c-0.9,1.9-1.8,4.1-1.8,7.4
			c0,3.3,0.8,5.4,1.8,7.4H321.7z"/>
		<path class="st12" d="M325.1,177.7h1.4v1.4h0c0.5-0.9,1.4-1.6,2.7-1.6c1.8,0,3.4,1.1,3.4,4.3c0,3.1-1.6,4.6-3.5,4.6
			c-1.2,0-2.2-0.7-2.5-1.4h0v4.2h-1.4L325.1,177.7L325.1,177.7z M328.9,185.2c1.5,0,2.2-1.2,2.2-3.4c0-1.8-0.5-3.1-2.3-3.1
			c-1.5,0-2.4,1.3-2.4,2.7v0.9C326.5,183.9,327.3,185.2,328.9,185.2z"/>
		<path class="st12" d="M335,177.7h1.4v1.6h0c0.4-0.9,1.4-1.8,2.7-1.8h0.1v1.5h-0.3c-1.5,0-2.5,0.9-2.5,2.5v4.6H335V177.7z"/>
		<path class="st12" d="M341.4,174.2h1.5v1.6h-1.5V174.2z M341.4,177.7h1.5v8.4h-1.5V177.7z"/>
		<path class="st12" d="M351.4,180.9c0-0.6,0-1.3-0.3-1.7c-0.3-0.4-0.8-0.6-1.3-0.6c-1.6,0-2.3,1-2.3,2.4v5.1h-1.4v-8.4h1.4v1.4h0
			c0.4-0.9,1.4-1.6,2.7-1.6c1.6,0,2.7,0.8,2.7,2.8v5.9h-1.4V180.9z"/>
		<path class="st12" d="M357.7,175.2v2.4h2.1v1.1h-2.1v5c0,0.9,0.4,1.3,1.3,1.3c0.4,0,0.9-0.1,0.9-0.1v1.2c0,0-0.6,0.1-1.3,0.1
			c-1.6,0-2.3-0.8-2.3-2.2v-5.2h-1.5v-1.1h0.3c1.1,0,1.4-0.3,1.4-1.9v-0.6H357.7z"/>
		<path class="st12" d="M363,180.8c0-3.3-0.8-5.4-1.8-7.4h1.1c0.9,1.8,2.1,4.1,2.1,7.4c0,3.2-1.2,5.5-2.1,7.4h-1.1
			C362.2,186.2,363,184.1,363,180.8z"/>
		<path class="st12" d="M371.1,177.7h1.5l1.8,5.4c0.2,0.7,0.4,1.3,0.4,1.3h0c0,0,0.2-0.6,0.4-1.3l1.9-5.4h1.4l-2.9,8.4H374
			L371.1,177.7z"/>
		<path class="st12" d="M383.5,186.3c-2.6,0-3.8-1.9-3.8-4.4c0-2.5,1.3-4.5,3.8-4.5c2.5,0,3.5,1.9,3.5,4.1v0.7h-5.8
			c0.1,1.7,0.8,2.9,2.4,2.9c1.4,0,1.8-0.8,1.9-1.3h1.4C386.6,185.3,385.3,186.3,383.5,186.3z M385.5,181c0-1.4-0.6-2.5-2.1-2.5
			c-1.3,0-2.1,1.1-2.3,2.6L385.5,181L385.5,181z"/>
		<path class="st12" d="M389.3,177.7h1.4v1.6h0c0.4-0.9,1.4-1.8,2.7-1.8h0.1v1.5h-0.3c-1.5,0-2.5,0.9-2.5,2.5v4.6h-1.4L389.3,177.7
			L389.3,177.7z"/>
		<path class="st12" d="M399.7,179.8c-0.1-0.8-0.7-1.2-1.7-1.2s-1.6,0.6-1.6,1.4c0,0.7,0.4,1,1.3,1.1l1.3,0.2c1.8,0.3,2.4,1,2.4,2.4
			c0,1.7-1.4,2.6-3.3,2.6c-1.8,0-3.2-0.8-3.3-2.6h1.4c0.1,0.7,0.4,1.5,1.9,1.5c1.1,0,1.9-0.5,1.9-1.4c0-0.7-0.2-1-1.3-1.2l-1.3-0.2
			c-1.5-0.2-2.3-0.9-2.3-2.3c0-1.5,1.1-2.6,3.1-2.6c1.8,0,2.9,0.9,3,2.3L399.7,179.8L399.7,179.8z"/>
		<path class="st12" d="M403.8,174.2h1.5v1.6h-1.5V174.2z M403.9,177.7h1.5v8.4h-1.5V177.7z"/>
		<path class="st12" d="M407.7,181.9c0-2.6,1.4-4.4,3.8-4.4c2.5,0,3.8,1.8,3.8,4.4c0,2.6-1.4,4.4-3.8,4.4
			C409,186.3,407.7,184.5,407.7,181.9z M409.2,181.9c0,2.1,0.7,3.3,2.3,3.3c1.6,0,2.3-1.3,2.3-3.3c0-2.1-0.7-3.3-2.3-3.3
			C410,178.6,409.2,179.8,409.2,181.9z"/>
		<path class="st12" d="M423.1,180.9c0-0.6,0-1.3-0.3-1.7c-0.3-0.4-0.8-0.6-1.3-0.6c-1.6,0-2.3,1-2.3,2.4v5.1h-1.4v-8.4h1.4v1.4h0
			c0.4-0.9,1.4-1.6,2.7-1.6c1.6,0,2.7,0.8,2.7,2.8v5.9h-1.4V180.9z"/>
		<path class="st12" d="M431.8,179.8c-0.1-0.8-0.7-1.2-1.7-1.2s-1.6,0.6-1.6,1.4c0,0.7,0.4,1,1.3,1.1l1.3,0.2c1.8,0.3,2.4,1,2.4,2.4
			c0,1.7-1.4,2.6-3.3,2.6c-1.8,0-3.2-0.8-3.3-2.6h1.4c0.1,0.7,0.4,1.5,1.9,1.5c1.1,0,1.9-0.5,1.9-1.4c0-0.7-0.2-1-1.3-1.2l-1.3-0.2
			c-1.5-0.2-2.3-0.9-2.3-2.3c0-1.5,1.1-2.6,3.1-2.6c1.8,0,2.9,0.9,3,2.3L431.8,179.8L431.8,179.8z"/>
		<path class="st12" d="M435.3,184.1h2v1.9h-2V184.1z"/>
	</g>
</g>
</svg>
